<svg width="58" height="66" viewBox="0 0 58 66" fill="none" xmlns="http://www.w3.org/2000/svg">
<path fill-rule="evenodd" clip-rule="evenodd" d="M23.172 52.0741C16.8549 51.2674 10.3773 51.3463 4.10057 51.4692C2.74932 51.5002 1.65325 52.6024 1.74989 53.913C1.7519 55.2385 2.87544 56.2851 4.13191 56.2681C10.2148 56.1438 16.4945 56.0447 22.518 56.8299C23.8026 57.0034 25.022 56.0757 25.2153 54.7611C25.4087 53.4474 24.4568 52.2486 23.172 52.0741Z" fill="black" stroke="white" stroke-width="1.5"/>
<path fill-rule="evenodd" clip-rule="evenodd" d="M37.541 39.5378C28.9943 28.3244 19.0513 18.2433 10.7281 6.78548C9.9919 5.72052 8.47717 5.47958 7.41496 6.2557C6.35262 7.03277 6.07022 8.52688 6.90149 9.60369C15.221 21.091 25.1605 31.2006 33.7035 42.4435C34.5376 43.4975 36.0567 43.7004 37.1222 42.8986C38.0924 42.0859 38.3752 40.5918 37.541 39.5378Z" fill="black" stroke="white" stroke-width="1.5"/>
<path fill-rule="evenodd" clip-rule="evenodd" d="M46.0786 8.75933C47.1654 14.427 48.2516 20.0946 49.3384 25.7632C49.5222 27.0706 50.8031 27.92 52.1224 27.6697C53.4415 27.4186 54.2333 26.1724 54.0495 24.8641C52.9614 19.187 51.874 13.5108 50.7861 7.83461C50.5075 6.54058 49.2278 5.69779 47.9096 5.95561C46.6862 6.20009 45.8002 7.46625 46.0786 8.75933Z" fill="black" stroke="white" stroke-width="1.5"/>
</svg>
