<svg width="67" height="67" viewBox="0 0 67 67" fill="none" xmlns="http://www.w3.org/2000/svg">
<path d="M0.577193 20.8639C-0.469189 14.7652 0.0186042 6.97886 4.19533 1.37847C4.69773 0.665591 5.50104 0.300385 6.16814 0.821554C6.6777 1.24011 6.83814 2.27637 6.33575 2.98925C2.0242 8.74018 2.33833 16.8971 3.9141 22.7339C7.25446 35.1588 16.8636 42.1541 27.371 45.184C32.8056 46.6868 38.4971 47.2951 44.2496 47.5314C50.0977 47.7425 55.9946 47.4634 61.9403 46.6941C61.7042 46.5283 61.4674 46.3635 61.2306 46.1987C60.6049 45.7632 59.9791 45.3278 59.366 44.8739C54.5424 41.4374 49.656 37.9673 44.7695 34.4972C44.1973 34.1407 44.0459 33.3558 44.5482 32.6193C45.0003 31.9565 45.9555 31.5629 46.5278 31.9195C48.0371 32.9787 49.5323 34.0429 51.0274 35.1071C52.5226 36.1713 54.0178 37.2356 55.5271 38.2948C56.8478 39.2531 58.1811 40.1929 59.5143 41.1328C60.8475 42.0726 62.1807 43.0124 63.5014 43.9707C64.2057 44.4482 64.8472 44.8921 65.495 45.3896C66.1427 45.8871 66.6837 46.4783 66.6718 47.3768C66.7005 48.9409 65.2143 50.0447 63.9366 50.9935C63.7628 51.1226 63.5928 51.2488 63.431 51.373L43.8298 66.519C43.1827 67.0272 42.2648 66.737 41.8369 66.1058C41.5222 65.4346 41.8988 64.6308 42.6024 64.1026C44.305 62.802 46.0059 61.488 47.7069 60.174C49.4079 58.86 51.1089 57.546 52.8114 56.2454C54.5818 54.9006 56.3307 53.5443 58.072 52.194C59.041 51.4424 60.0077 50.6927 60.9745 49.9479C54.2457 50.786 47.5788 51.0462 41.0194 50.6064C29.1624 49.8177 17.1236 47.0038 8.79883 37.9415C4.66411 33.4933 1.72438 27.6349 0.577193 20.8639Z" fill="#101010"/>
</svg>
