<svg width="281" height="335" viewBox="0 0 281 335" fill="none" xmlns="http://www.w3.org/2000/svg">
<path d="M216.293 232.448C203.271 231.746 180.732 231.26 176.279 230.847C173.989 220.349 170.3 203.724 168.838 195.923C168.863 195.907 168.887 195.891 168.91 195.873C177.947 190.038 186.049 174.066 173.078 151.558C155.793 151.704 139.937 155.582 125.328 164.563C125.695 167.864 125.995 170.665 126.162 172.499C84.6472 191.277 76.6444 196.807 75.1106 206.11C73.3292 216.976 82.7975 232.488 110.49 278.202C121.02 280.659 137.059 274.64 140.767 265.064C136.53 256.505 121.83 226.886 117.192 218.615C129.693 214.052 144.219 208.392 156.202 202.625C151.302 207.339 141.564 217.258 138.033 221.449C143.168 237.121 149.17 255.321 155.672 258.329C163.266 261.839 166.765 262.864 216.26 262.864C221.941 257.769 220.668 239.827 216.293 232.448Z" fill="white"/>
<path d="M59.9054 41.0474C58.5383 43.5482 57.3045 45.9824 56.1708 48.2832C47.201 66.7897 45.4337 79.0273 45.4653 88.1638C45.4986 92.6654 45.9321 96.4001 46.1673 99.8013V99.8346C46.8008 100.201 47.3958 100.568 48.1346 101.002C49.4684 98.8957 50.5688 99.3011 53.8366 100.902C58.3382 103.102 58.7717 103.302 59.1016 106.47C59.135 106.87 59.1683 107.237 59.235 107.604C62.3694 105.837 65.9373 104.069 70.0054 101.461C77.7081 96.4931 86.978 88.3569 97.5484 70.7174C98.8822 68.4833 100.249 66.1544 101.616 63.6149L59.9054 41.0474ZM73.3768 77.5601L71.2427 87.697L66.6148 78.4271L56.3445 79.5942L63.7155 72.2916L59.4473 62.855L68.6506 67.5935L76.2866 60.6577L74.6193 70.8946L83.6225 75.9964L73.3768 77.5601Z" fill="white"/>
<path d="M232.299 27.3092C232.266 28.9765 232.266 30.577 232.299 31.9775C234.533 31.3106 235.567 30.5103 235.733 29.7101C236.039 28.271 233.24 27.1214 232.299 27.3092Z" fill="#DDF247"/>
<path d="M220.862 235.182C219.805 235.156 218.75 235.21 217.703 235.349C220.637 242.618 220.804 253.889 218.405 259.757C222.266 264.926 233.673 272.728 242.546 275.096C241.902 261.158 226.997 240.851 220.862 235.182Z" fill="#A6FF00"/>
<path d="M212.692 28.0426C212.122 28.0268 209.884 28.4709 209.884 30.01C209.884 30.8436 210.918 31.7773 213.452 32.4108C213.726 30.9108 213.456 29.3624 212.692 28.0426Z" fill="#DDF247"/>
<path d="M174.646 121.042C175.112 127.944 175.846 136.18 175.846 141.882C178.38 132.979 181.481 122.209 183.282 116.24L174.646 121.042Z" fill="#A6FF00"/>
<path d="M161.408 54.352C161.408 52.0846 158.473 51.3176 156.906 53.7851C156.773 51.6511 153.305 51.1526 151.604 54.0519C151.238 51.7511 147.336 52.2513 145.969 54.8522C145.569 52.8181 142.234 53.9519 141.668 56.9863C141.067 60.1874 140.534 63.0884 140.167 65.6893C144.476 64.4226 148.947 63.7934 153.438 63.822C152.505 67.3566 152.912 72.1249 154.439 68.8904C155.939 65.656 159.774 68.0902 157.071 72.325C156.636 73.2016 156.457 74.184 156.557 75.1581C156.659 76.1319 157.033 77.0573 157.638 77.8269C158.038 70.8578 163.44 61.8213 165.107 58.1533C167.377 53.1849 163.942 51.8511 161.408 54.352Z" fill="#A6FF00"/>
<path d="M134.865 211.874C135.866 214.841 136.933 218.076 138.024 221.444C141.959 216.775 153.33 205.738 157.431 202.037C150.271 205.538 142.431 208.906 134.865 211.874Z" fill="#A6FF00"/>
<path d="M147.345 84.1624C147.318 85.683 147.173 87.1993 146.911 88.6974C149.219 87.071 151.013 84.8178 152.08 82.2039C150.555 82.9789 148.972 83.6337 147.345 84.1624Z" fill="#DDF247"/>
<path d="M139.2 268.027C140.788 269.259 142.241 270.656 143.535 272.195C135.799 290.535 119.226 305.973 112.69 310.075C113.343 299.306 115.567 288.69 119.293 278.564C126.795 277.563 135.235 273.762 139.2 268.027Z" fill="#A6FF00"/>
<path d="M121.56 132.449C118.126 136.584 108.589 146.821 99.6528 152.723C107.575 150.164 115.318 147.077 122.828 143.483C122.361 139.548 121.927 135.747 121.56 132.449Z" fill="#A6FF00"/>
<path d="M63.7737 111.239C63.0401 110.805 61.773 111.339 60.8394 112.706C61.6073 114.085 62.8485 115.139 64.3336 115.673C64.8741 113.073 64.5091 111.672 63.7737 111.239Z" fill="#DDF247"/>
<path d="M55.6707 132.546C54.1368 134.28 52.968 134.784 52.2028 134.547C51.134 134.217 51.0024 132.213 51.6359 130.112C53.0031 130.912 54.3702 131.712 55.6707 132.546Z" fill="#DDF247"/>
<path d="M30.4284 256.523C35.9716 256.523 40.4653 252.028 40.4653 246.486C40.4653 240.942 35.9716 236.449 30.4284 236.449C24.8853 236.449 20.3916 240.942 20.3916 246.486C20.3916 252.028 24.8853 256.523 30.4284 256.523Z" fill="#A6FF00"/>
<path d="M46.1671 126.944C46.2338 123.909 47.6677 120.675 50.0281 116.273C49.5373 114.646 49.4128 112.931 49.6638 111.249C49.9148 109.569 50.5348 107.964 51.4795 106.551C50.8812 107.476 50.1845 108.333 49.4016 109.108C50.4019 111.142 48.768 114.243 45.867 112.776L46.2672 113.409C49.8017 115.41 47.4676 119.945 43.6996 118.148L44.4016 118.781C47.8695 120.615 45.702 125.05 41.9674 123.416C40.3335 122.683 38.9997 122.149 37.8993 121.682C35.0316 123.983 31.4637 124.517 25.5283 123.683L51.2707 137.621C47.601 133.446 46.0671 130.312 46.1671 126.944Z" fill="#A6FF00"/>
<path d="M24.6668 123.228L18.3979 131.431L48.7086 147.87L52.1764 138.133L24.6668 123.228Z" fill="#DDF247"/>
<path d="M55.6705 132.546C52.5115 130.479 48.8681 128.645 46.1338 126.877" stroke="black" stroke-linecap="round" stroke-linejoin="round"/>
<path d="M140.033 66.7563L133.764 1L85.2808 122.576" stroke="black" stroke-linecap="round" stroke-linejoin="round"/>
<path d="M143.001 98.1673L141.667 83.8623" stroke="black" stroke-linecap="round" stroke-linejoin="round"/>
<path d="M213.126 232.281L258.708 117.974L178.647 132.113" stroke="black" stroke-linecap="round" stroke-linejoin="round"/>
<path d="M165.442 261.358L172.411 334.45L200.988 262.792" stroke="black" stroke-linecap="round" stroke-linejoin="round"/>
<path d="M75.1438 147.985L47.4341 217.476L75.1771 212.574" stroke="black" stroke-linecap="round" stroke-linejoin="round"/>
<path d="M56.2039 48.3499L38.8645 38.98C25 64.5889 37.6641 83.9957 45.5002 88.2305" stroke="black" stroke-linecap="round" stroke-linejoin="round"/>
<path d="M66.6409 78.4604L56.3706 79.5941L63.7065 72.3249L59.4383 62.8883L68.6416 67.6233L76.2776 60.6542L74.6103 70.8577L83.6135 75.9929L73.3766 77.5601L71.3092 87.697L66.6409 78.4604Z" stroke="black" stroke-linecap="round" stroke-linejoin="round"/>
<path d="M97.6671 70.7612L114.891 80.1275C101.012 105.736 77.8465 105.736 70.042 101.502" stroke="black" stroke-linecap="round" stroke-linejoin="round"/>
<path d="M44.2104 284.671C55.0747 284.671 63.8822 275.865 63.8822 264.999C63.8822 254.134 55.0747 245.328 44.2104 245.328C33.3459 245.328 24.5386 254.134 24.5386 264.999C24.5386 275.865 33.3459 284.671 44.2104 284.671Z" stroke="black" stroke-linecap="round" stroke-linejoin="round"/>
<path d="M258.775 69.6573C262.127 69.6573 264.844 66.9403 264.844 63.5886C264.844 60.2369 262.127 57.5198 258.775 57.5198C255.423 57.5198 252.706 60.2369 252.706 63.5886C252.706 66.9403 255.423 69.6573 258.775 69.6573Z" stroke="black" stroke-linecap="round" stroke-linejoin="round"/>
<path d="M23.0923 170.726C24.805 170.726 26.1934 169.338 26.1934 167.625C26.1934 165.912 24.805 164.524 23.0923 164.524C21.3796 164.524 19.9912 165.912 19.9912 167.625C19.9912 169.338 21.3796 170.726 23.0923 170.726Z" stroke="black" stroke-linecap="round" stroke-linejoin="round"/>
<path d="M181.681 18.4061L178.58 30.8105L187.983 29.1432L184.882 41.5476" stroke="black" stroke-linecap="round" stroke-linejoin="round"/>
<path d="M43.6664 118.108C47.4396 119.898 49.765 115.379 46.2339 113.369C43.6014 111.872 41.699 110.933 39.5649 109.835C38.9291 109.467 38.1762 109.36 37.463 109.534C36.7497 109.708 36.1309 110.15 35.7357 110.769C35.3405 111.388 35.199 112.135 35.3408 112.855C35.4826 113.576 35.8968 114.213 36.4972 114.636C38.196 115.709 40.2038 116.465 43.6664 118.108Z" stroke="black" stroke-linecap="round" stroke-linejoin="round"/>
<path d="M48.1681 101.035C46.8343 100.235 45.8708 99.6942 44.5668 98.929C43.9515 98.5271 43.2041 98.3806 42.4826 98.5204C41.7613 98.6601 41.1226 99.0754 40.7022 99.678C40.2817 100.281 40.1121 101.023 40.2299 101.749C40.3475 102.474 40.7429 103.125 41.3324 103.564C42.7585 104.516 44.2518 105.363 45.8006 106.098" stroke="black" stroke-linecap="round" stroke-linejoin="round"/>
<path d="M41.9992 123.409C45.7005 125.043 47.8661 120.614 44.4 118.774C41.8307 117.411 39.9265 116.551 37.8644 115.573C37.2422 115.224 36.5087 115.129 35.8181 115.31C35.1275 115.49 34.5339 115.932 34.1624 116.541C33.7907 117.15 33.6699 117.88 33.8256 118.576C33.9813 119.273 34.4011 119.882 34.9967 120.275C36.664 121.24 38.598 121.909 41.9992 123.409Z" stroke="black" stroke-linecap="round" stroke-linejoin="round"/>
<path d="M45.7302 106.237C44.3631 105.503 43.1557 104.95 41.8289 104.236C41.1922 103.841 40.4266 103.709 39.6943 103.868C38.9619 104.027 38.3199 104.464 37.9042 105.088C37.4886 105.711 37.3317 106.472 37.4667 107.209C37.6016 107.946 38.0181 108.602 38.6278 109.038C40.3599 110.175 42.3361 110.991 45.8233 112.739C48.7295 114.194 50.3582 111.105 49.3578 109.071" stroke="black" stroke-linecap="round" stroke-linejoin="round"/>
<path d="M60.8058 112.706C61.7728 111.339 63.0329 110.817 63.7735 111.239C65.095 111.993 65.2056 115.84 61.1059 123.943C56.736 132.579 53.6682 135.021 52.1695 134.547C51.134 134.219 50.9691 132.179 51.6026 130.112" stroke="black" stroke-linecap="round" stroke-linejoin="round"/>
<path d="M64.333 115.674C62.0656 114.74 59.77 113.074 59.1312 106.47C58.8206 103.311 58.366 103.099 53.8662 100.902C48.6012 98.3307 48.8978 98.7956 44.9297 108.138C43.954 110.435 47.5307 112.806 51.6654 106.137C48.431 111.239 49.0329 116.316 51.9989 119.541" stroke="black" stroke-linecap="round" stroke-linejoin="round"/>
<path d="M225.793 14.5714C225.463 18.7396 220.407 18.873 220.424 14.8382C220.437 11.8372 220.565 9.70301 220.691 7.30217C220.902 3.30077 226.239 3.33411 226.36 6.63527C226.437 8.63597 226.1 10.7368 225.793 14.5714Z" stroke="black" stroke-linecap="round" stroke-linejoin="round"/>
<path d="M208.824 11.5072C208.791 10.04 208.813 8.96939 208.791 7.5689C208.729 3.76757 214.145 3.59558 214.393 6.76862C214.507 8.38943 214.507 10.0162 214.393 11.6371" stroke="black" stroke-linecap="round" stroke-linejoin="round"/>
<path d="M231.532 15.5384C231.115 19.6083 226.213 19.6065 226.364 15.6718C226.476 12.7708 226.659 10.7034 226.831 8.40261C227.12 4.54161 232.299 4.70132 232.299 7.87611C232.299 9.8031 231.913 11.8389 231.532 15.5384Z" stroke="black" stroke-linecap="round" stroke-linejoin="round"/>
<path d="M214.526 11.6039C214.559 10.0367 214.691 8.70277 214.726 7.20225C214.821 3.13416 220.252 3.06747 220.461 6.40197C220.589 8.43601 220.295 10.5702 220.095 14.4751C220.107 15.0574 219.933 15.6284 219.596 16.1035C219.257 16.5786 218.776 16.9322 218.222 17.1119C217.669 17.2917 217.071 17.2878 216.52 17.1012C215.967 16.9145 215.491 16.5547 215.159 16.0756" stroke="black" stroke-linecap="round" stroke-linejoin="round"/>
<path d="M212.659 28.0428C210.991 28.3096 209.924 29.1099 209.924 29.9435C209.924 31.444 213.159 33.2394 222.195 33.0779C231.799 32.9024 235.437 31.2106 235.767 29.6767C236.004 28.5764 234.6 27.5707 232.499 27.2426" stroke="black" stroke-linecap="round" stroke-linejoin="round"/>
<path d="M213.492 32.3777C213.792 29.9435 213.48 27.1934 208.124 23.7413C205.551 22.0828 205.588 21.5739 205.923 16.6055C206.32 10.7367 206.558 11.2317 216.593 11.7371C219.061 11.8617 219.328 16.1053 211.525 16.9056C217.527 16.2387 221.629 18.973 222.932 23.0077" stroke="black" stroke-linecap="round" stroke-linejoin="round"/>
<path d="M232.332 31.9441C232.132 25.0751 232.859 14.0045 232.332 8.66931" stroke="black" stroke-linecap="round" stroke-linejoin="round"/>
<path d="M209.925 29.9768C209.991 38.3131 209.925 59.6539 209.358 69.624C206.725 71.358 185.951 81.7335 177.046 85.863C168.986 89.6029 162.171 88.829 158.996 83.7465C154.609 76.7265 162.101 64.9206 165.139 58.1533C167.373 53.1849 163.972 51.8511 161.437 54.352C161.437 52.1179 158.503 51.3176 156.936 53.7851C156.769 51.6511 153.301 51.1526 151.634 54.0519C151.234 51.7844 147.366 52.2846 145.999 54.8522C145.599 52.8515 142.287 53.9747 141.697 56.9863C136.402 83.9448 139.591 88.4008 152.134 82.1951C151.067 84.8088 149.274 87.0622 146.966 88.6886" stroke="black" stroke-linecap="round" stroke-linejoin="round"/>
<path d="M235.767 29.7101C235.767 76.6932 236.278 78.9993 233.8 83.629C230.512 89.7715 224.029 93.5991 174.646 121.042C175.146 127.944 175.846 136.181 175.846 141.883" stroke="black" stroke-linecap="round" stroke-linejoin="round"/>
<path d="M63.7734 111.238C74.7773 117.841 89.7158 124.643 91.5832 125.51C99.9194 122.109 127.492 109.666 138.793 102.235C145.393 97.8969 147.296 88.9306 147.329 84.1289" stroke="black" stroke-linecap="round" stroke-linejoin="round"/>
<path d="M138.8 102.263C143.168 106.865 160.074 103.667 164.442 87.8251" stroke="black" stroke-linecap="round" stroke-linejoin="round"/>
<path d="M140.167 65.6893C144.477 64.429 148.947 63.8 153.438 63.822C152.504 67.3899 152.911 72.1916 154.438 68.8904C155.965 65.5892 159.789 68.134 157.071 72.3249C156.628 73.2 156.446 74.1837 156.548 75.1589C156.648 76.1343 157.027 77.0603 157.638 77.8269" stroke="black" stroke-linecap="round" stroke-linejoin="round"/>
<path d="M112.09 220.443C127.162 215.042 151.845 205.916 168.21 196.335C177.483 190.907 186.416 174.661 173.112 151.553C175.613 142.778 180.748 124.677 183.291 116.24" stroke="black" stroke-linecap="round" stroke-linejoin="round"/>
<path d="M142.534 165.124C86.6478 189.999 76.8567 195.67 75.1105 206.105C73.6205 215.01 77.4113 223.945 110.49 278.236C119.693 280.736 136.965 275.168 140.767 265.073C130.83 244.891 120.493 224.533 117.192 218.623" stroke="black" stroke-linecap="round" stroke-linejoin="round"/>
<path d="M134.898 211.874C140.634 228.613 147.803 254.655 155.706 258.323C163.608 261.991 166.676 262.725 216.253 262.858C221.222 259.057 221.388 240.617 216.253 232.414C203.091 231.681 181.008 231.247 176.306 230.814C174.005 220.143 170.339 203.436 168.935 195.835" stroke="black" stroke-linecap="round" stroke-linejoin="round"/>
<path d="M139.2 268.027C141.56 269.984 143.707 272.186 145.602 274.596C141.601 285.766 125.771 306.907 112.757 314.943C111.99 306.307 115.191 288.834 119.259 278.564" stroke="black" stroke-linecap="round" stroke-linejoin="round"/>
<path d="M205.923 231.981C210.325 236.916 212.492 253.755 205.256 262.825" stroke="black" stroke-linecap="round" stroke-linejoin="round"/>
<path d="M104.488 268.36C114.625 270.594 130.637 266.526 135.765 254.955" stroke="black" stroke-linecap="round" stroke-linejoin="round"/>
<path d="M112.624 310.075C119.092 306.007 135.765 290.535 143.501 272.167" stroke="black" stroke-linecap="round" stroke-linejoin="round"/>
<path d="M217.694 235.315C219.698 235.082 221.725 235.082 223.729 235.315C229.365 239.878 245.103 258.757 245.303 275.663C236.234 274.434 222.729 265.493 218.394 259.724" stroke="black" stroke-linecap="round" stroke-linejoin="round"/>
<path d="M220.861 235.182C227.004 240.851 241.869 261.156 242.536 275.096" stroke="black" stroke-linecap="round" stroke-linejoin="round"/>
<path d="M120.86 125.51C121.727 135.881 125.423 163.99 126.125 172.46" stroke="black" stroke-linecap="round" stroke-linejoin="round"/>
<path d="M173.111 151.553C154.238 151.686 138.699 156.354 125.328 164.557" stroke="black" stroke-linecap="round" stroke-linejoin="round"/>
<path d="M124.628 265.726C117.359 251.621 102.287 219.443 99.0522 212.707C114.124 205.105 152.438 189.166 159.04 185.064C165.642 180.963 168.243 175.694 161.241 152.286" stroke="black" stroke-linecap="round" stroke-linejoin="round"/>
<path d="M52.2026 134.555C83.7804 153.653 88.8505 155.724 96.7516 153.553C105.697 150.894 114.417 147.527 122.827 143.483" stroke="black" stroke-linecap="round" stroke-linejoin="round"/>
<path d="M99.6523 152.72C108.559 146.818 118.125 136.547 121.56 132.449" stroke="black" stroke-linecap="round" stroke-linejoin="round"/>
<path d="M138.066 221.444C142.001 216.775 153.371 205.772 157.473 202.037" stroke="black" stroke-linecap="round" stroke-linejoin="round"/>
<path d="M11.2217 74.9592L12.3782 81.4966" stroke="black" stroke-linecap="round" stroke-linejoin="round"/>
<path d="M26.1917 85.4313L19.6543 86.5878" stroke="black" stroke-linecap="round" stroke-linejoin="round"/>
<path d="M15.7195 100.402L14.563 93.8643" stroke="black" stroke-linecap="round" stroke-linejoin="round"/>
<path d="M0.749512 89.9291L7.29039 88.7726" stroke="black" stroke-linecap="round" stroke-linejoin="round"/>
<path d="M19.6546 86.5877C18.8429 86.7314 18.0109 86.7137 17.206 86.5354C16.4014 86.3573 15.6395 86.0223 14.9644 85.5493C14.2892 85.0765 13.7139 84.475 13.2715 83.7797C12.8289 83.0842 12.5277 82.3085 12.3854 81.4965C12.5304 82.3087 12.5135 83.1412 12.3361 83.947C12.1585 84.7525 11.8238 85.5151 11.351 86.1911C10.8782 86.8671 10.2766 87.4431 9.58073 87.8861C8.88487 88.329 8.10846 88.6304 7.2959 88.7727C8.10776 88.6281 8.94016 88.6451 9.74535 88.8227C10.5507 89.0003 11.3129 89.3352 11.9886 89.808C12.6643 90.2808 13.2399 90.8824 13.6827 91.5781C14.1253 92.2737 14.4265 93.05 14.5686 93.8622C14.4242 93.0505 14.4412 92.2185 14.6186 91.4133C14.7961 90.6082 15.1306 89.846 15.603 89.1704C16.0755 88.4947 16.6764 87.9187 17.3717 87.4756C18.0669 87.0324 18.8426 86.7307 19.6546 86.5877Z" stroke="black" stroke-linecap="round" stroke-linejoin="round"/>
<path d="M258.742 173.927L260.398 183.302" stroke="black" stroke-linecap="round" stroke-linejoin="round"/>
<path d="M280.207 188.945L270.832 190.601" stroke="black" stroke-linecap="round" stroke-linejoin="round"/>
<path d="M265.191 210.41L263.533 201.035" stroke="black" stroke-linecap="round" stroke-linejoin="round"/>
<path d="M243.724 195.393L253.105 193.736" stroke="black" stroke-linecap="round" stroke-linejoin="round"/>
<path d="M270.832 190.601C269.666 190.809 268.473 190.784 267.318 190.529C266.163 190.275 265.07 189.794 264.101 189.117C263.131 188.439 262.306 187.576 261.671 186.579C261.035 185.58 260.602 184.468 260.398 183.302C260.605 184.466 260.583 185.659 260.328 186.816C260.074 187.971 259.594 189.064 258.917 190.033C258.24 191.002 257.376 191.828 256.379 192.463C255.382 193.099 254.27 193.531 253.104 193.736C254.268 193.529 255.463 193.553 256.616 193.808C257.771 194.062 258.864 194.543 259.833 195.221C260.802 195.898 261.629 196.761 262.262 197.758C262.897 198.757 263.329 199.87 263.533 201.035C263.326 199.87 263.35 198.676 263.605 197.521C263.859 196.367 264.34 195.273 265.017 194.304C265.695 193.334 266.558 192.509 267.555 191.874C268.554 191.238 269.666 190.805 270.832 190.601Z" stroke="black" stroke-linecap="round" stroke-linejoin="round"/>
<path d="M59.9054 41.0474C58.5383 43.5482 57.3045 45.9824 56.1708 48.2832C47.201 66.7897 45.4337 79.0273 45.4653 88.1638C45.4986 92.6654 45.9321 96.4001 46.1673 99.8013V99.8346C46.8008 100.201 47.3958 100.568 48.1346 101.002C49.4684 98.8957 50.5688 99.3011 53.8366 100.902C58.3382 103.102 58.7717 103.302 59.1016 106.47C59.135 106.87 59.1683 107.237 59.235 107.604C62.3694 105.837 65.9373 104.069 70.0054 101.461C77.7081 96.4931 86.978 88.3569 97.5484 70.7174C98.8822 68.4833 100.249 66.1544 101.616 63.6149L59.9054 41.0474ZM73.3768 77.5601L71.2427 87.697L66.6148 78.4271L56.3445 79.5942L63.7155 72.2916L59.4473 62.855L68.6506 67.5935L76.2866 60.6577L74.6193 70.8946L83.6225 75.9964L73.3768 77.5601Z" stroke="black" stroke-linejoin="round"/>
<path d="M46.1671 126.944C46.2338 123.909 47.6677 120.675 50.0281 116.273C49.5373 114.646 49.4128 112.931 49.6638 111.249C49.9148 109.569 50.5348 107.964 51.4795 106.551C50.8812 107.476 50.1845 108.333 49.4016 109.108C50.4019 111.142 48.768 114.243 45.867 112.776L46.2672 113.409C49.8017 115.41 47.4676 119.945 43.6996 118.148L44.4016 118.781C47.8695 120.615 45.702 125.05 41.9674 123.416C40.3335 122.683 38.9997 122.149 37.8993 121.682C35.0316 123.983 31.4637 124.517 25.5283 123.683L51.2707 137.621C47.601 133.446 46.0671 130.312 46.1671 126.944Z" stroke="black" stroke-linejoin="round"/>
<path d="M24.6932 123.228L18.4243 131.431L48.7349 147.87L52.2028 138.133L24.6932 123.228Z" stroke="black" stroke-linejoin="round"/>
</svg>
