<svg width="82" height="146" viewBox="0 0 82 146" fill="none" xmlns="http://www.w3.org/2000/svg">
<path d="M8.89149 110.547L8 108.793L7.10851 110.547L-8.65284 141.563L-8.19484 106.775L-8.16894 104.807L-9.77361 105.946L-38.1436 126.085L-21.5711 95.4947L-20.6338 93.7645L-22.584 94.0274L-57.0633 98.6753L-28.173 79.2902L-26.5389 78.1938L-28.388 77.5202L-61.0779 65.6124L-26.4881 61.8738L-24.5317 61.6624L-25.8559 60.2067L-49.2675 34.4711L-16.9024 47.2354L-15.0718 47.9573L-15.5678 46.053L-24.3379 12.3853L-1.61185 38.7284L-0.326424 40.2184L0.119324 38.3017L8 4.41474L15.8807 38.3017L16.3264 40.2184L17.6119 38.7284L40.3379 12.3853L31.5678 46.053L31.0718 47.9573L32.9024 47.2354L65.2675 34.4711L41.8559 60.2067L40.5317 61.6624L42.4881 61.8738L77.0779 65.6124L44.388 77.5202L42.5389 78.1938L44.173 79.2902L73.0634 98.6753L38.584 94.0274L36.6338 93.7645L37.5711 95.4947L54.1436 126.085L25.7736 105.946L24.1689 104.807L24.1948 106.775L24.6528 141.563L8.89149 110.547Z" stroke="black" stroke-width="2"/>
</svg>
