<svg width="93" height="117" viewBox="0 0 93 117" fill="none" xmlns="http://www.w3.org/2000/svg">
<path fill-rule="evenodd" clip-rule="evenodd" d="M67.9887 104.57C75.7526 99.5663 83.5167 94.5628 91.3364 89.6467C92.0298 89.2085 92.5734 90.3292 91.9096 90.7716L91.7611 90.8704C88.9312 92.754 86.1051 94.6351 83.2587 96.4921C73.0756 103.127 62.8933 109.763 52.7117 116.4C52.4064 116.548 52.0429 116.501 51.7855 116.281C51.5281 116.061 51.4258 115.709 51.5248 115.385C52.2738 113.766 53.0121 112.14 53.7504 110.515C54.5824 108.683 55.4144 106.851 56.2618 105.027C61.5908 93.5632 66.9191 82.0997 72.2468 70.6366C73.0451 70.2941 73.8445 69.9541 74.6452 69.6166L73.267 68.4415C72.9269 69.1732 72.5869 69.9049 72.2468 70.6366C70.3096 71.4675 68.3793 72.3129 66.4559 73.1726C56.8966 77.4513 47.525 82.0948 38.3411 87.1031C37.9166 87.3042 37.4108 87.204 37.0959 86.8564C36.781 86.5088 36.7313 85.9958 36.9737 85.5937L41.9063 76.6209C47.2702 66.9303 52.6342 57.2412 57.9982 47.5537C58.8432 47.2757 59.6895 47.0021 60.5371 46.7327L59.3839 45.0511C58.922 45.8853 58.4601 46.7195 57.9982 47.5537C56.2178 48.1394 54.4433 48.7443 52.6748 49.3685C43.5449 52.6013 34.5887 56.3058 25.8424 60.4669C25.3779 60.688 24.8236 60.5787 24.4785 60.1982C24.1334 59.8176 24.0791 59.2556 24.345 58.8155C29.1578 50.8453 33.9694 42.8743 38.7799 34.9024C39.8764 34.4981 40.9676 34.079 42.0533 33.6452L40.5449 31.9774C39.9566 32.9524 39.3682 33.9274 38.7799 34.9024C33.2087 36.9569 27.503 38.6299 21.7022 39.9092C21.2412 39.9934 20.7741 39.7992 20.5093 39.4133C20.2445 39.0274 20.2315 38.5219 20.4761 38.1223C23.6026 34.2273 26.2828 29.9971 28.4676 25.5111C29.0509 25.5408 29.6341 25.5705 30.2174 25.6003L29.158 24.0491C28.9337 24.5393 28.7036 25.0267 28.4676 25.5111C26.0235 25.3867 23.5793 25.2635 21.1351 25.1415L18.9597 25.0358C18.3453 25.0711 17.729 25.0288 17.1253 24.9099C16.4874 24.5245 15.9531 23.9898 15.5684 23.3518L14.3699 21.9207C12.7259 19.9438 11.1265 17.9305 9.57161 15.8808C7.56097 13.2242 5.62017 10.5209 3.7492 7.77112C3.79491 8.3443 3.83788 8.91726 3.88084 9.49027C3.91393 9.9315 3.94702 10.3728 3.98137 10.8142C3.99353 10.9778 4.00426 11.1419 4.01502 11.3062C4.03801 11.6575 4.06105 12.0095 4.09811 12.3596C4.21679 12.9286 4.15166 13.5156 3.91268 14.031C3.75796 14.2722 3.48806 14.408 3.20208 14.3886C2.9161 14.3693 2.65617 14.1975 2.51773 13.9365C2.24799 13.4012 2.13021 12.8033 2.17817 12.2128L2.08094 10.6686C2.06048 10.3415 2.03955 10.0144 2.01863 9.68723C1.96822 8.89941 1.91781 8.11142 1.87388 7.32295L1.72732 4.73982C1.33809 4.14445 0.952043 3.54695 0.569202 2.94733C0.397288 2.60121 0.394908 2.19501 0.56276 1.84651C0.730612 1.49801 1.04992 1.2462 1.42809 1.16408C1.50064 1.14829 1.57326 1.1331 1.64596 1.11852C1.65754 0.962227 1.67137 0.806148 1.68744 0.650317L1.69173 0.654129C1.68836 0.709001 1.69167 0.765395 1.70234 0.822294C1.71181 0.916617 1.71643 1.01084 1.71629 1.1046C1.84971 1.07857 1.98336 1.05456 2.11719 1.03256L1.69173 0.654129C1.70936 0.366873 1.91019 0.12151 2.19761 0.0656186C2.53993 -0.000947834 2.88087 0.225402 2.96693 0.576382C2.99402 0.688263 3.01997 0.800357 3.04479 0.912658C5.55562 0.675317 8.09412 1.13842 10.3716 2.26639C10.9499 2.64313 11.1179 3.41418 10.7489 3.99802C10.3615 4.56334 9.60081 4.72995 9.01321 4.37815C7.36995 3.60124 5.56745 3.25107 3.77027 3.34569C3.6263 3.12409 3.48278 2.9022 3.33971 2.68001C3.36583 2.91001 3.38726 3.14043 3.40399 3.37114C3.52603 3.36059 3.64813 3.35212 3.77027 3.34569C8.13371 10.0619 12.908 16.5027 18.066 22.6315C17.8979 22.6226 17.7299 22.6137 17.5618 22.6047L18.3659 22.987C18.2658 22.8686 18.1658 22.7501 18.066 22.6315C21.3834 22.8072 24.7019 22.9634 28.0213 23.1196C28.7998 23.1563 29.5785 23.1929 30.3571 23.2298C30.7231 23.2544 31.0574 23.4454 31.2641 23.748C31.4708 24.0506 31.5269 24.4314 31.4165 24.7811C29.4926 29.0458 27.1349 33.0987 24.3822 36.8764C23.3349 37.1323 22.2841 37.3748 21.2301 37.6038L22.4573 39.3929C23.1188 38.5686 23.7606 37.7295 24.3822 36.8764C30.0349 35.495 35.5862 33.722 40.9957 31.5695C41.4644 31.3494 42.0216 31.4607 42.3688 31.8438C42.7161 32.2269 42.7719 32.7919 42.5064 33.2362C37.7572 41.0912 33.0078 48.9471 28.2582 56.8038C27.099 57.3295 25.944 57.864 24.7937 58.4087L26.2889 60.0613C26.9453 58.9754 27.6017 57.8896 28.2582 56.8038C29.63 56.1816 31.0076 55.5716 32.3901 54.9711C41.4428 51.036 50.6892 47.5623 60.0933 44.5636C60.5264 44.489 60.963 44.6732 61.2111 45.0352C61.4593 45.3971 61.4735 45.8706 61.2477 46.2474C59.5929 49.2318 57.9373 52.2148 56.281 55.1964C51.0485 64.6558 45.7986 74.1057 40.5312 83.546C39.4793 84.1006 38.43 84.6597 37.3833 85.2233L38.7529 86.7316C39.3459 85.6699 39.9387 84.608 40.5312 83.546C42.1126 82.7122 43.6998 81.8887 45.2929 81.0753C54.6185 76.3128 64.1062 71.9115 73.7561 67.8716C74.4472 67.5798 75.5296 68.2012 75.1332 69.0445L70.3019 79.3743C64.9781 90.7034 59.654 102.032 54.3295 113.36C53.5341 113.871 52.7388 114.382 51.9434 114.893L53.1324 115.906C53.5314 115.058 53.9305 114.209 54.3295 113.36C56.4381 112.005 58.5466 110.649 60.6552 109.292C63.1008 107.72 65.5448 106.145 67.9887 104.57Z" fill="#FFD5CE"/>
</svg>
