<svg width="550" height="550" viewBox="0 0 550 550" fill="none" xmlns="http://www.w3.org/2000/svg">
<rect x="0.5" y="0.5" width="549" height="549" rx="29.5" stroke="#101010"/>
<rect x="50" y="50" width="450" height="450" rx="30" fill="white"/>
<path d="M263.84 89.744C247.061 90.212 233.829 103.019 234.297 118.346C234.81 136.188 253.166 148.442 271.566 144.428L270.583 132.858C270.369 130.941 270.535 129 271.072 127.147C271.608 125.294 272.505 123.564 273.71 122.058C274.915 120.551 276.406 119.297 278.096 118.366C279.786 117.436 281.644 116.848 283.561 116.636L294.96 115.655C294.021 100.8 280.274 89.2737 263.84 89.744Z" fill="#A6FF00"/>
<path fill-rule="evenodd" clip-rule="evenodd" d="M247.959 389.381L384.734 377.854C388.469 377.535 391.925 375.746 394.342 372.88C396.761 370.013 397.942 366.305 397.627 362.57L389.687 269.294C389.367 265.559 387.578 262.104 384.712 259.687C381.848 257.27 378.14 256.088 374.405 256.402L301.325 262.551C300.033 264.52 299.192 265.546 297.252 267.071C295.171 268.662 292.743 269.736 290.165 270.203C287.588 270.67 284.936 270.517 282.429 269.757C279.923 268.997 277.632 267.651 275.749 265.831C275.416 265.503 275.083 265.174 274.751 264.843L251.952 266.758C259.515 293.599 260.309 312.219 260.865 338.812C261.325 346.629 260.255 354.461 257.715 361.866L247.959 389.381ZM327.616 328.676L341.406 335.122L338.929 305.836L326.421 314.544C325.982 311.785 324.513 309.297 322.31 307.578C320.108 305.859 317.338 305.04 314.555 305.283L287.872 307.589C286.421 307.708 285.008 308.116 283.712 308.784C282.418 309.452 281.27 310.372 280.334 311.488C279.396 312.602 278.692 313.894 278.255 315.284C277.821 316.672 277.666 318.135 277.799 319.586L278.865 331.961C278.984 333.412 279.392 334.825 280.06 336.119C280.728 337.413 281.648 338.563 282.764 339.499C283.878 340.435 285.17 341.141 286.558 341.577C287.948 342.012 289.411 342.167 290.862 342.034L317.5 339.816C318.949 339.692 320.362 339.283 321.653 338.612C322.945 337.942 324.09 337.021 325.026 335.908C325.962 334.794 326.669 333.505 327.105 332.116C327.456 331 327.629 329.837 327.616 328.672V328.676Z" fill="#00BFBF"/>
<path d="M427.851 269.679C427.968 270.698 427.88 271.73 427.595 272.716C427.309 273.701 426.832 274.621 426.191 275.421C425.547 276.222 424.753 276.885 423.853 277.376C422.953 277.869 421.963 278.177 420.944 278.283C419.922 278.391 418.892 278.294 417.908 278.001C416.925 277.707 416.009 277.223 415.215 276.573C414.421 275.922 413.764 275.124 413.28 274.219C412.796 273.314 412.497 272.322 412.398 271.301L411.161 259.601C410.965 257.562 411.581 255.527 412.877 253.94C414.176 252.354 416.045 251.344 418.084 251.13C420.12 250.916 422.161 251.516 423.758 252.798C425.356 254.081 426.382 255.943 426.614 257.979L427.851 269.679Z" fill="#FF5C00"/>
<path d="M342.217 128.676C342.878 130.228 343.38 131.845 343.711 133.5C344.991 130.811 345.747 127.902 345.936 124.93C344.611 126.381 343.371 127.609 342.217 128.676Z" fill="#101010"/>
<path d="M226.144 187.374C226.511 189.393 227.203 191.339 228.193 193.136C231.481 193.136 235.11 192.711 236.005 191.388C236.134 191.163 236.262 190.918 236.39 190.661C235.153 193.1 230.675 190.625 226.144 187.374Z" fill="#101010"/>
<path d="M113.146 282.315C105.206 270.916 54.7046 312.539 61.9609 323.04L63.1984 324.149C73.7013 329.999 119.336 291.281 113.146 282.315Z" fill="#101010"/>
<path d="M199.548 429.251C189.171 434.185 221.263 492.075 231.048 483.852C236.903 475.356 207.745 425.325 199.548 429.251Z" fill="#101010"/>
<path d="M101.918 318.515C101.718 319.251 101.661 320.02 101.749 320.779C102.177 323.51 105.676 323.638 108.025 322.997C106.38 321.033 104.285 319.496 101.918 318.515Z" fill="#101010"/>
<path d="M124.585 296.231C126.207 298.238 127.872 300.243 129.366 302.081C129.616 301.366 129.774 300.619 129.836 299.863C129.879 299.221 129.755 298.578 129.475 298C129.195 297.419 128.77 296.924 128.241 296.557C127.712 296.191 127.097 295.97 126.456 295.912C125.815 295.855 125.171 295.966 124.585 296.231Z" fill="#101010"/>
<path d="M202.28 209.75C201.807 209.801 201.359 209.991 200.994 210.296C200.629 210.601 200.363 211.007 200.228 211.463C200.094 211.92 200.099 212.406 200.241 212.86C200.383 213.314 200.656 213.715 201.026 214.014C201.397 214.313 201.847 214.495 202.321 214.537C202.795 214.58 203.271 214.481 203.688 214.253C204.106 214.025 204.446 213.679 204.667 213.257C204.888 212.836 204.978 212.358 204.928 211.885C204.899 211.569 204.806 211.263 204.656 210.983C204.506 210.704 204.302 210.457 204.055 210.258C203.808 210.059 203.524 209.911 203.219 209.824C202.914 209.737 202.594 209.712 202.28 209.75Z" fill="#101010"/>
<path d="M185.204 229.593C184.731 229.644 184.284 229.833 183.919 230.138C183.554 230.443 183.288 230.85 183.153 231.306C183.019 231.762 183.023 232.248 183.165 232.703C183.308 233.156 183.581 233.558 183.951 233.857C184.322 234.155 184.772 234.337 185.246 234.38C185.72 234.422 186.195 234.323 186.613 234.096C187.031 233.868 187.371 233.521 187.592 233.1C187.812 232.678 187.903 232.201 187.853 231.728C187.819 231.414 187.725 231.109 187.574 230.831C187.422 230.554 187.218 230.309 186.972 230.11C186.726 229.912 186.443 229.764 186.14 229.675C185.836 229.586 185.518 229.558 185.204 229.593Z" fill="#101010"/>
<path d="M195.323 255.805C194.85 255.856 194.402 256.045 194.037 256.35C193.671 256.655 193.404 257.061 193.27 257.517C193.135 257.974 193.139 258.46 193.281 258.914C193.423 259.368 193.696 259.77 194.067 260.069C194.437 260.368 194.888 260.55 195.361 260.593C195.835 260.635 196.311 260.536 196.729 260.309C197.147 260.081 197.487 259.734 197.708 259.313C197.929 258.891 198.019 258.414 197.969 257.94C197.935 257.626 197.84 257.322 197.689 257.045C197.538 256.768 197.334 256.523 197.088 256.325C196.843 256.126 196.56 255.978 196.257 255.889C195.954 255.8 195.637 255.771 195.323 255.805Z" fill="#101010"/>
<path d="M173.124 225.068C172.651 225.118 172.204 225.308 171.838 225.613C171.473 225.917 171.206 226.324 171.072 226.78C170.937 227.237 170.941 227.723 171.083 228.177C171.225 228.631 171.498 229.033 171.868 229.332C172.239 229.63 172.689 229.813 173.163 229.855C173.637 229.898 174.113 229.799 174.531 229.571C174.948 229.343 175.289 228.997 175.51 228.575C175.73 228.154 175.821 227.676 175.77 227.203C175.737 226.889 175.642 226.585 175.491 226.308C175.34 226.03 175.136 225.786 174.89 225.587C174.644 225.389 174.362 225.241 174.059 225.152C173.756 225.063 173.438 225.034 173.124 225.068Z" fill="#101010"/>
<path d="M222.602 219.135C222.129 219.185 221.681 219.375 221.315 219.68C220.95 219.985 220.683 220.391 220.549 220.847C220.415 221.304 220.419 221.79 220.561 222.244C220.703 222.699 220.976 223.1 221.347 223.399C221.717 223.698 222.168 223.88 222.642 223.922C223.116 223.965 223.592 223.865 224.01 223.637C224.427 223.409 224.768 223.062 224.988 222.64C225.209 222.219 225.299 221.741 225.248 221.268C225.214 220.954 225.119 220.65 224.968 220.373C224.817 220.096 224.612 219.851 224.367 219.653C224.121 219.455 223.839 219.307 223.536 219.218C223.233 219.129 222.916 219.101 222.602 219.135Z" fill="#101010"/>
<path d="M208.684 238.602C208.21 238.653 207.763 238.843 207.398 239.148C207.033 239.453 206.767 239.859 206.632 240.316C206.499 240.772 206.503 241.258 206.645 241.712C206.787 242.166 207.061 242.568 207.432 242.866C207.802 243.165 208.253 243.347 208.727 243.389C209.201 243.431 209.676 243.332 210.094 243.104C210.511 242.876 210.852 242.529 211.072 242.107C211.293 241.685 211.383 241.208 211.332 240.735C211.299 240.421 211.203 240.116 211.052 239.839C210.901 239.562 210.696 239.317 210.45 239.119C210.204 238.92 209.922 238.773 209.618 238.684C209.315 238.595 208.997 238.567 208.684 238.602Z" fill="#101010"/>
<path d="M233.658 247.651C233.186 247.702 232.738 247.891 232.372 248.196C232.007 248.501 231.74 248.907 231.606 249.363C231.471 249.82 231.475 250.306 231.617 250.76C231.759 251.214 232.032 251.616 232.403 251.915C232.773 252.214 233.223 252.396 233.697 252.439C234.171 252.481 234.647 252.382 235.065 252.155C235.483 251.927 235.823 251.58 236.044 251.159C236.265 250.737 236.355 250.26 236.304 249.787C236.271 249.472 236.176 249.168 236.025 248.891C235.874 248.614 235.67 248.369 235.424 248.171C235.178 247.972 234.896 247.824 234.593 247.735C234.29 247.646 233.973 247.618 233.658 247.651Z" fill="#101010"/>
<path d="M244.031 206.242C243.558 206.293 243.11 206.482 242.745 206.787C242.379 207.092 242.113 207.498 241.978 207.954C241.843 208.411 241.847 208.897 241.989 209.351C242.131 209.805 242.404 210.207 242.775 210.506C243.145 210.805 243.595 210.987 244.069 211.03C244.543 211.072 245.019 210.973 245.437 210.746C245.855 210.518 246.195 210.171 246.416 209.75C246.637 209.328 246.727 208.851 246.677 208.378C246.647 208.062 246.555 207.755 246.405 207.476C246.256 207.197 246.051 206.95 245.805 206.751C245.558 206.552 245.274 206.405 244.969 206.317C244.664 206.23 244.345 206.204 244.031 206.242Z" fill="#101010"/>
<path d="M266.401 246.625C265.928 246.676 265.48 246.865 265.115 247.17C264.749 247.475 264.483 247.881 264.348 248.337C264.214 248.794 264.217 249.28 264.359 249.734C264.501 250.188 264.774 250.59 265.145 250.889C265.515 251.188 265.966 251.37 266.44 251.413C266.913 251.455 267.389 251.356 267.807 251.129C268.225 250.901 268.565 250.554 268.786 250.133C269.007 249.711 269.098 249.234 269.047 248.761C268.979 248.127 268.662 247.546 268.166 247.145C267.67 246.745 267.035 246.558 266.401 246.625Z" fill="#101010"/>
<path d="M266.486 224.213C266.8 224.18 267.104 224.085 267.382 223.934C267.659 223.783 267.904 223.579 268.102 223.333C268.301 223.087 268.449 222.805 268.538 222.502C268.626 222.199 268.655 221.881 268.621 221.567C268.537 220.946 268.214 220.383 267.721 219.996C267.228 219.609 266.604 219.431 265.981 219.497C265.358 219.564 264.786 219.872 264.386 220.354C263.986 220.836 263.79 221.455 263.84 222.08C263.873 222.394 263.967 222.699 264.118 222.976C264.27 223.253 264.474 223.498 264.72 223.696C264.966 223.894 265.248 224.042 265.551 224.131C265.854 224.219 266.172 224.247 266.486 224.213Z" fill="#101010"/>
<path d="M292.57 251.706C292.098 251.756 291.65 251.946 291.283 252.25C290.919 252.555 290.651 252.961 290.518 253.418C290.383 253.874 290.388 254.36 290.529 254.814C290.671 255.269 290.943 255.67 291.315 255.969C291.684 256.268 292.136 256.45 292.608 256.493C293.083 256.536 293.558 256.437 293.976 256.209C294.395 255.981 294.735 255.635 294.955 255.213C295.176 254.792 295.266 254.314 295.216 253.841C295.182 253.527 295.088 253.223 294.937 252.945C294.786 252.668 294.582 252.423 294.336 252.225C294.089 252.027 293.808 251.879 293.504 251.79C293.202 251.701 292.883 251.672 292.57 251.706Z" fill="#101010"/>
<path d="M295.558 226.265C295.086 226.315 294.638 226.505 294.271 226.81C293.907 227.115 293.639 227.521 293.506 227.978C293.371 228.434 293.376 228.92 293.518 229.375C293.659 229.829 293.934 230.231 294.303 230.529C294.674 230.828 295.124 231.01 295.599 231.053C296.074 231.095 296.548 230.996 296.967 230.768C297.383 230.539 297.725 230.192 297.946 229.771C298.166 229.349 298.256 228.871 298.204 228.398C298.171 228.084 298.076 227.78 297.925 227.503C297.775 227.226 297.57 226.981 297.325 226.783C297.077 226.585 296.796 226.437 296.492 226.348C296.191 226.259 295.871 226.231 295.558 226.265Z" fill="#101010"/>
<path d="M316.902 217.726C316.853 217.253 316.661 216.806 316.358 216.44C316.052 216.075 315.647 215.808 315.19 215.674C314.733 215.539 314.247 215.543 313.793 215.685C313.338 215.827 312.938 216.1 312.638 216.47C312.339 216.84 312.157 217.291 312.114 217.765C312.071 218.239 312.17 218.715 312.398 219.132C312.627 219.55 312.974 219.891 313.394 220.112C313.815 220.332 314.294 220.423 314.767 220.372C315.082 220.339 315.386 220.244 315.662 220.093C315.939 219.942 316.184 219.738 316.382 219.492C316.58 219.246 316.729 218.964 316.819 218.661C316.907 218.358 316.936 218.04 316.902 217.726Z" fill="#101010"/>
<path d="M388.151 84.1505C387.89 80.8405 386.459 77.7317 384.112 75.3832C381.763 73.0346 378.656 71.6002 375.346 71.3378C372.036 71.0753 368.742 72.0021 366.053 73.9515C363.365 75.9007 361.461 78.7449 360.683 81.9725C356.826 80.1777 352.571 79.4062 348.33 79.7324C344.089 80.0587 340.005 81.4717 336.468 83.8353C332.931 86.1989 330.062 89.4333 328.139 93.2272C326.215 97.0212 325.301 101.246 325.484 105.496C330.625 104.103 335.91 103.3 341.234 103.105C341.522 104.853 341.92 106.582 342.428 108.28C342.899 109.346 343.623 109.432 344.903 107.467C347.765 103.327 353.57 109.731 346.782 114.683C349.712 119.754 353.433 124.323 357.807 128.217C363.169 126.49 367.786 122.995 370.904 118.303C374.021 113.612 375.454 108.001 374.97 102.389C374.882 101.359 374.732 100.336 374.52 99.3245C374.828 99.3261 375.134 99.3088 375.44 99.2728C377.267 99.1144 379.047 98.5978 380.674 97.752C382.303 96.9064 383.747 95.7484 384.926 94.3441C386.108 92.9399 387.001 91.317 387.552 89.5678C388.106 87.8189 388.308 85.978 388.151 84.1505Z" fill="#101010"/>
<path d="M207.232 309.081L207.703 326.406L213.8 320.9C211.141 317.239 208.936 313.273 207.232 309.081Z" fill="#101010"/>
<path d="M246.423 229.978L252.484 238.602L252.826 249.658L246.423 229.978Z" fill="#101010"/>
<path d="M235.962 171.536C236.705 171.4 237.375 171.004 237.852 170.419C238.33 169.834 238.584 169.099 238.568 168.344C238.553 167.589 238.269 166.864 237.768 166.299C237.267 165.735 236.582 165.366 235.834 165.261C236.412 164.838 236.832 164.233 237.024 163.543C237.217 162.853 237.171 162.119 236.895 161.458C236.619 160.797 236.129 160.248 235.503 159.9C234.877 159.552 234.152 159.425 233.445 159.539C233.807 158.938 233.961 158.233 233.882 157.536C233.803 156.838 233.497 156.186 233.01 155.68C232.523 155.174 231.882 154.843 231.188 154.738C230.494 154.633 229.784 154.76 229.17 155.1C229.317 154.384 229.214 153.639 228.878 152.989C228.543 152.34 227.994 151.825 227.325 151.531C226.656 151.236 225.906 151.18 225.201 151.371C224.495 151.563 223.876 151.99 223.448 152.582C223.379 151.813 223.044 151.091 222.5 150.542C221.956 149.994 221.238 149.652 220.469 149.576C219.7 149.5 218.929 149.695 218.288 150.126C217.647 150.558 217.177 151.2 216.959 151.941C216.657 151.276 216.136 150.735 215.484 150.407C214.831 150.079 214.087 149.984 213.373 150.139C212.659 150.294 212.02 150.688 211.562 151.257C211.104 151.825 210.854 152.534 210.855 153.264C210.322 152.806 209.653 152.535 208.952 152.495C208.251 152.454 207.555 152.645 206.973 153.038C206.391 153.431 205.954 154.004 205.729 154.67C205.505 155.336 205.506 156.057 205.731 156.722C205.067 156.475 204.34 156.456 203.664 156.669C202.989 156.882 202.403 157.315 202.002 157.898C201.599 158.482 201.404 159.183 201.445 159.89C201.487 160.597 201.763 161.27 202.23 161.803C201.477 161.761 200.733 161.987 200.13 162.441C199.528 162.895 199.105 163.547 198.936 164.283C198.768 165.018 198.865 165.789 199.21 166.46C199.555 167.131 200.126 167.659 200.822 167.95C200.082 168.093 199.417 168.494 198.945 169.082C198.474 169.67 198.226 170.406 198.246 171.16C198.267 171.913 198.554 172.635 199.057 173.196C199.56 173.757 200.246 174.122 200.993 174.225C200.427 174.654 200.021 175.261 199.839 175.948C199.657 176.635 199.711 177.363 199.991 178.016C200.271 178.669 200.761 179.209 201.384 179.551C202.007 179.894 202.726 180.018 203.427 179.904C203.073 180.508 202.928 181.212 203.014 181.907C203.1 182.602 203.412 183.25 203.903 183.75C204.393 184.25 205.034 184.575 205.727 184.674C206.421 184.774 207.127 184.642 207.738 184.3C207.597 185.015 207.705 185.756 208.043 186.401C208.382 187.046 208.932 187.555 209.6 187.844C210.268 188.134 211.016 188.186 211.718 187.991C212.419 187.796 213.034 187.367 213.458 186.775C213.495 187.308 213.664 187.824 213.949 188.276C214.234 188.727 214.627 189.101 215.093 189.364C215.558 189.626 216.081 189.769 216.616 189.779C217.15 189.79 217.678 189.668 218.154 189.424C218.538 188.953 223.779 182.507 225.626 180.158C221.101 175.037 224.856 171.707 227.291 175.08C228.571 176.916 230.441 176.403 229.338 170.938C230.753 170.322 232.108 169.58 233.388 168.719C234.288 172.175 234.963 175.123 235.521 177.598C236.17 177.428 236.748 177.06 237.177 176.544C237.605 176.029 237.862 175.393 237.91 174.724C237.959 174.056 237.797 173.39 237.448 172.818C237.099 172.246 236.579 171.798 235.962 171.536Z" fill="#101010"/>
<path d="M235.535 177.598C234.982 175.123 234.298 172.177 233.402 168.719C232.122 169.58 230.767 170.322 229.352 170.938C230.464 176.403 228.598 176.905 227.305 175.08C224.897 171.687 221.115 175.037 225.64 180.158C223.804 182.507 218.552 188.953 218.167 189.424C217.692 189.668 217.164 189.79 216.629 189.779C216.095 189.769 215.572 189.626 215.106 189.364C214.641 189.101 214.248 188.727 213.963 188.276C213.677 187.824 213.509 187.308 213.472 186.775C213.047 187.367 212.433 187.796 211.731 187.991C211.029 188.185 210.282 188.134 209.614 187.844C208.945 187.555 208.396 187.046 208.057 186.401C207.718 185.756 207.611 185.015 207.752 184.3C207.141 184.642 206.434 184.773 205.741 184.674C205.048 184.575 204.407 184.25 203.916 183.75C203.426 183.25 203.114 182.602 203.028 181.907C202.942 181.212 203.087 180.508 203.441 179.904C202.74 180.018 202.02 179.894 201.398 179.551C200.775 179.209 200.285 178.669 200.005 178.016C199.725 177.363 199.671 176.635 199.853 175.948C200.034 175.261 200.44 174.654 201.007 174.225C200.26 174.122 199.574 173.757 199.071 173.196C198.568 172.635 198.281 171.913 198.26 171.16C198.239 170.406 198.487 169.67 198.959 169.082C199.43 168.494 200.096 168.093 200.836 167.95C200.139 167.659 199.568 167.131 199.223 166.46C198.878 165.789 198.782 165.018 198.95 164.283C199.119 163.547 199.542 162.895 200.144 162.441C200.747 161.987 201.491 161.761 202.244 161.803C201.777 161.27 201.5 160.597 201.459 159.89C201.417 159.182 201.613 158.482 202.015 157.898C202.417 157.315 203.002 156.882 203.678 156.669C204.354 156.456 205.081 156.475 205.745 156.722C205.526 156.058 205.529 155.342 205.756 154.68C205.982 154.019 206.418 153.45 206.997 153.06C207.577 152.669 208.268 152.479 208.965 152.518C209.663 152.557 210.329 152.823 210.862 153.275C210.861 152.545 211.111 151.836 211.569 151.268C212.027 150.699 212.666 150.305 213.38 150.15C214.093 149.996 214.838 150.09 215.491 150.418C216.143 150.746 216.664 151.287 216.966 151.952C217.184 151.211 217.654 150.569 218.295 150.137C218.935 149.706 219.707 149.511 220.476 149.587C221.245 149.663 221.963 150.005 222.507 150.554C223.05 151.102 223.386 151.824 223.455 152.593C223.883 152.001 224.502 151.574 225.208 151.382C225.913 151.191 226.663 151.247 227.332 151.542C228.001 151.836 228.549 152.351 228.885 153.001C229.221 153.65 229.323 154.395 229.177 155.111C229.791 154.772 230.501 154.645 231.195 154.749C231.889 154.854 232.529 155.185 233.017 155.691C233.504 156.197 233.81 156.849 233.889 157.547C233.967 158.245 233.814 158.949 233.452 159.55C234.159 159.436 234.884 159.563 235.51 159.911C236.136 160.259 236.626 160.808 236.902 161.469C237.178 162.13 237.224 162.865 237.031 163.555C236.839 164.244 236.419 164.849 235.841 165.272C236.589 165.378 237.274 165.746 237.775 166.311C238.276 166.876 238.56 167.6 238.575 168.355C238.591 169.11 238.337 169.846 237.859 170.431C237.382 171.015 236.712 171.411 235.969 171.547C236.582 171.811 237.097 172.259 237.444 172.828C237.791 173.398 237.951 174.062 237.904 174.727C237.856 175.392 237.602 176.026 237.178 176.54C236.753 177.055 236.179 177.424 235.535 177.598Z" stroke="#101010" stroke-linecap="round" stroke-linejoin="round"/>
<path d="M236.049 160.095L247.49 159.156C248.856 159.037 250.232 159.189 251.539 159.604C252.846 160.018 254.058 160.687 255.105 161.572C256.153 162.457 257.015 163.54 257.642 164.759C258.27 165.978 258.649 167.31 258.76 168.676L261.877 206.114" stroke="#101010" stroke-linecap="round" stroke-linejoin="round"/>
<path d="M253.252 249.06L255.002 248.931C256.531 248.914 258.024 248.471 259.313 247.651" stroke="#101010" stroke-linecap="round" stroke-linejoin="round"/>
<path d="M174.021 255.711L151.055 257.675C148.299 257.906 145.564 257.033 143.451 255.248C141.339 253.463 140.021 250.913 139.787 248.158L133.937 179.17C133.705 176.413 134.578 173.677 136.363 171.564C138.148 169.45 140.7 168.132 143.457 167.9L199.611 163.169" stroke="#101010" stroke-linecap="round" stroke-linejoin="round"/>
<path d="M247.96 389.381L384.735 377.854C388.47 377.535 391.926 375.746 394.343 372.879C396.762 370.013 397.943 366.305 397.628 362.57L389.688 269.294C389.368 265.559 387.579 262.104 384.713 259.687C381.849 257.27 378.141 256.088 374.406 256.402L301.326 262.551" stroke="#101010" stroke-linecap="round" stroke-linejoin="round"/>
<path d="M252.015 266.734L274.726 264.812" stroke="#101010" stroke-linecap="round" stroke-linejoin="round"/>
<path d="M325.698 113L283.519 116.629C279.656 117.06 276.121 119.005 273.688 122.037C271.256 125.069 270.124 128.942 270.541 132.807L278.994 230.097" stroke="#101010" stroke-linecap="round" stroke-linejoin="round"/>
<path d="M309.475 244.364L437.414 233.307C440.254 233.051 442.951 231.944 445.152 230.131C447.352 228.319 448.954 225.885 449.751 223.146" stroke="#101010" stroke-linecap="round" stroke-linejoin="round"/>
<path d="M445.654 162.187L441.853 118.004C441.599 114.122 439.817 110.5 436.897 107.931C433.974 105.362 430.153 104.056 426.272 104.299L374.747 108.741" stroke="#101010" stroke-linecap="round" stroke-linejoin="round"/>
<path d="M398.823 175.037C394.426 181.951 385.163 202.145 379.783 215.249C390.111 219.286 398.814 226.626 404.533 236.124" stroke="#101010" stroke-linecap="round" stroke-linejoin="round"/>
<path d="M330.051 197.15C331.612 205.19 333.651 213.13 336.155 220.928C333.806 229.764 332.868 237.619 331.759 242.443" stroke="#101010" stroke-linecap="round" stroke-linejoin="round"/>
<path d="M334.149 164.28C330.924 169.25 329.043 174.971 328.686 180.885" stroke="#101010" stroke-linecap="round" stroke-linejoin="round"/>
<path d="M379.74 215.292C367.703 223.959 344.948 228.567 336.155 220.928" stroke="#101010" stroke-linecap="round" stroke-linejoin="round"/>
<path d="M374.277 218.579C380.699 223.601 385.845 230.065 389.301 237.448" stroke="#101010" stroke-linecap="round" stroke-linejoin="round"/>
<path d="M343.74 133.45C345 130.773 345.745 127.882 345.936 124.93C344.613 126.381 343.371 127.609 342.217 128.676" stroke="#101010" stroke-linecap="round" stroke-linejoin="round"/>
<path d="M392.718 186.478L408.002 212.304C419.826 233.735 444.452 240.476 459.912 208.463C467.209 193.35 470.669 183.191 477.073 172.688C466.601 169.703 457.066 164.09 449.375 156.382C442.268 167.08 435.947 178.279 430.462 189.892C399.513 124.108 395.713 135.707 375.094 134.566C368.803 134.393 362.744 132.158 357.848 128.206" stroke="#101010" stroke-linecap="round" stroke-linejoin="round"/>
<path d="M312.762 186.989C318.866 166.242 332.541 156.652 338.545 150.107C341.368 147.398 343.251 143.854 343.911 139.996C344.572 136.139 343.978 132.171 342.216 128.676C331.459 138.153 325.526 130.597 325.526 105.501" stroke="#101010" stroke-linecap="round" stroke-linejoin="round"/>
<path d="M377.692 134.652C369.135 141.528 361.413 149.382 354.681 158.052C353.626 159.365 352.249 160.383 350.683 161.004C349.117 161.626 347.416 161.831 345.747 161.599C344.079 161.367 342.498 160.706 341.161 159.681C339.825 158.656 338.776 157.301 338.119 155.75C337.57 154.467 337.093 153.275 336.668 152.121" stroke="#101010" stroke-linecap="round" stroke-linejoin="round"/>
<path d="M430.455 189.891L425.377 201.333" stroke="#101010" stroke-linecap="round" stroke-linejoin="round"/>
<path d="M218.161 189.423C212.194 197.073 207.97 196.572 196.732 201.589C173.849 211.793 181.704 252.689 181.704 252.689" stroke="#101010" stroke-linecap="round" stroke-linejoin="round"/>
<path d="M235.535 177.598C237.4 186.244 237.232 189.554 236.005 191.343C235.105 192.668 231.481 193.093 228.193 193.093" stroke="#101010" stroke-linecap="round" stroke-linejoin="round"/>
<path d="M236.397 190.625C235.202 193.1 230.671 190.625 226.144 187.338C226.999 191.266 227.595 195.973 230.797 196.174C259.178 197.953 262.175 201.169 286.806 243.424" stroke="#101010" stroke-linecap="round" stroke-linejoin="round"/>
<path d="M283.775 238.174C284.842 235.186 291.459 221.567 295.302 209.273C303.717 208.367 312.175 210.569 319.08 215.463C316.432 228.013 308.75 247.055 302.131 261.05C301.006 263.415 299.334 265.479 297.253 267.071C295.172 268.662 292.744 269.736 290.165 270.203C287.589 270.67 284.936 270.517 282.43 269.757C279.923 268.997 277.633 267.651 275.75 265.831C264.697 254.964 254.877 242.912 246.466 229.892" stroke="#101010" stroke-linecap="round" stroke-linejoin="round"/>
<path d="M246.509 229.892L252.827 249.658" stroke="#101010" stroke-linecap="round" stroke-linejoin="round"/>
<path d="M199.851 265.795C212.529 269.845 234.215 268.313 251.164 263.703C253.725 258.665 252.658 238.773 252.658 238.773" stroke="#101010" stroke-linecap="round" stroke-linejoin="round"/>
<path d="M199.72 264.812C194.257 272.667 183.52 272.957 178.588 264.769C172.374 254.419 169.71 239.668 168.387 223.275C168.387 223.275 178.062 220.179 182.112 221.392" stroke="#101010" stroke-linecap="round" stroke-linejoin="round"/>
<path d="M213.8 320.9L168.721 360.815C165.739 363.439 161.908 364.892 157.937 364.908C153.966 364.921 150.123 363.497 147.121 360.898L102.771 322.529" stroke="#101010" stroke-linecap="round" stroke-linejoin="round"/>
<path d="M162.368 328.633L128.813 297" stroke="#101010" stroke-linecap="round" stroke-linejoin="round"/>
<path d="M192.846 222.978C192.846 222.978 200.271 252.903 199.806 266.563C190.773 271.697 183.794 279.797 180.051 289.488C174.599 304.219 155.717 322.144 155.717 322.144" stroke="#101010" stroke-linecap="round" stroke-linejoin="round"/>
<path d="M251.161 263.703C259.527 292.177 260.359 311.178 260.935 338.749C261.395 346.566 260.325 354.396 257.785 361.803L238.235 416.786C226.278 415.531 214.784 411.481 204.681 404.962L224.233 348.953C224.61 339.386 221.4 330.024 215.233 322.7C209.128 315.264 205.304 306.219 204.22 296.659" stroke="#101010" stroke-linecap="round" stroke-linejoin="round"/>
<path d="M208.344 197.022C208.344 197.022 215.173 204.535 231.395 196.21" stroke="#101010" stroke-linecap="round" stroke-linejoin="round"/>
<path d="M171.759 222.294C171.626 215.78 170.897 209.293 169.581 202.912C168.322 198.001 166.518 193.247 164.201 188.737C160.804 182.113 161.906 180.32 167.363 186.348C172.751 193.111 177.188 200.58 180.552 208.546" stroke="#101010" stroke-linecap="round" stroke-linejoin="round"/>
<path d="M178.657 204.327C181.368 207.401 182.991 198.027 184.01 195.953C185.418 193.093 187.16 189.979 187.041 198.772C187.007 201.204 187.297 205.09 187.682 208.931" stroke="#101010" stroke-linecap="round" stroke-linejoin="round"/>
<path d="M167.021 195.015C165.783 193.649 162.971 190.92 162.154 190.148C158.424 186.58 157.681 187.837 158.104 188.573C159.724 191.413 162.762 195.787 164.179 198.473C166.447 202.825 171.051 211.109 171.307 215.377" stroke="#101010" stroke-linecap="round" stroke-linejoin="round"/>
<path d="M164.033 198.217C163.306 197.706 162.705 197.285 162.368 197.065C158.043 194.245 157.586 195.528 158.093 196.165C160.142 198.725 163.864 202.519 165.693 204.958C167.841 207.962 169.699 211.164 171.242 214.52" stroke="#101010" stroke-linecap="round" stroke-linejoin="round"/>
<path d="M317.075 214.054C319.365 207.226 322.25 200.613 325.699 194.29C328.617 189.518 332.069 185.093 335.986 181.098C341.737 175.248 341.161 172.944 333.426 177.512C325.535 182.901 318.411 189.334 312.251 196.637" stroke="#101010" stroke-linecap="round" stroke-linejoin="round"/>
<path d="M315.84 192.587C311.533 195.798 313.122 184.831 312.719 182.25C312.177 178.79 311.396 174.909 308.62 184.257C307.852 186.816 304.734 194.745 298.854 209.057" stroke="#101010" stroke-linecap="round" stroke-linejoin="round"/>
<path d="M330.947 186.775C332.697 185.709 336.54 183.787 337.649 183.234C342.773 180.671 343.108 182.289 342.473 182.892C339.848 185.387 335.219 189.001 332.868 191.386C329.075 195.235 321.512 202.485 319.805 206.926" stroke="#101010" stroke-linecap="round" stroke-linejoin="round"/>
<path d="M333.082 191.174C334.02 190.875 334.789 190.621 335.217 190.499C340.689 188.823 340.763 190.452 339.998 190.969C336.997 192.994 331.849 195.8 329.11 197.798C325.87 200.274 322.871 203.047 320.146 206.08" stroke="#101010" stroke-linecap="round" stroke-linejoin="round"/>
<path d="M113.147 282.315C105.548 271.4 58.9711 309.054 61.3381 321.519C61.7049 323.449 63.3744 325.177 67.2691 324.649C82.2384 322.621 118.76 290.392 113.147 282.315Z" stroke="#101010" stroke-linecap="round" stroke-linejoin="round"/>
<path d="M113.146 282.315C115.493 285.303 123.562 294.951 129.326 302.115" stroke="#101010" stroke-linecap="round" stroke-linejoin="round"/>
<path d="M233.531 416.19C231.731 422.976 221.628 437.871 229.388 456.958C233.364 466.732 235.664 480.985 230.288 484.572" stroke="#101010" stroke-linecap="round" stroke-linejoin="round"/>
<path d="M198.184 430.534C199.462 427.654 204.108 417.146 208.259 407.359" stroke="#101010" stroke-linecap="round" stroke-linejoin="round"/>
<path d="M199.548 429.251C190.004 433.789 215.483 480.45 227.169 484.707C230.398 485.883 231.942 483.582 231.813 480.155C231.282 465.899 206.926 425.75 199.548 429.251Z" stroke="#101010" stroke-linecap="round" stroke-linejoin="round"/>
<path d="M124.545 296.231C125.13 295.966 125.774 295.855 126.415 295.912C127.055 295.968 127.67 296.191 128.199 296.557C128.728 296.922 129.153 297.419 129.433 297.997C129.712 298.578 129.837 299.219 129.794 299.86C129.088 308.86 112.368 324.277 104.851 323.368C102.601 323.094 101.174 321.503 101.926 318.475" stroke="#101010" stroke-linecap="round" stroke-linejoin="round"/>
<path d="M235.573 400.892L248.675 359.454C250.949 352.978 251.906 346.114 251.492 339.262C249.676 309.596 247.48 286.669 242.143 265.795" stroke="#101010" stroke-linecap="round" stroke-linejoin="round"/>
<path d="M210.007 389.678C219.698 397.051 231.434 401.243 243.604 401.675" stroke="#101010" stroke-linecap="round" stroke-linejoin="round"/>
<path d="M115.408 333.457C128.343 329.315 135.602 319.957 139.956 307.758" stroke="#101010" stroke-linecap="round" stroke-linejoin="round"/>
<path d="M207.232 309.081L170.904 341.269C167.916 343.931 164.058 345.409 160.056 345.425C156.054 345.441 152.184 343.994 149.176 341.355L130.008 324.534" stroke="#101010" stroke-linecap="round" stroke-linejoin="round"/>
<path d="M213.38 277.149C212.826 277.234 212.014 287.994 213.465 292.347C216.241 296.184 219.79 299.399 223.883 301.782C226.224 297.882 229.034 294.282 232.25 291.067C231.823 285.645 231.31 282.785 230.714 277.063C224.967 277.884 219.134 277.914 213.38 277.149Z" stroke="#101010" stroke-linecap="round" stroke-linejoin="round"/>
<path d="M189.177 274.973C191.368 275.005 193.52 275.56 195.452 276.595C191.523 278.515 187.554 288.295 187.554 288.295L178.802 292.48" stroke="#101010" stroke-linecap="round" stroke-linejoin="round"/>
<path d="M466.912 135.5C473.662 137.633 477.415 141.091 481.762 146.642" stroke="#101010" stroke-linecap="round" stroke-linejoin="round"/>
<path d="M465.249 138.666C467.605 141.057 469.436 143.912 470.627 147.05C471.817 150.188 472.339 153.539 472.163 156.891" stroke="#101010" stroke-linecap="round" stroke-linejoin="round"/>
<path d="M478.225 142.421C480.844 138.97 483.035 135.215 484.75 131.236C487.9 123.852 489.83 125.902 488.08 132.901C487.61 134.78 487.142 136.402 486.714 137.768C485.481 141.697 484.266 145.663 483.128 149.637C481.919 153.858 473.903 171.707 473.903 171.707C466.39 169.7 458.578 164.237 452.474 159.199C452.602 158.943 455.849 152.969 455.972 152.753C456.634 151.559 456.915 150.192 456.778 148.834C456.641 147.476 456.092 146.192 455.205 145.155C452.118 141.451 447.985 135.93 449.355 134.438C451.481 132.127 458.191 139.942 461.777 140.416C463.058 140.585 464.084 136.702 464.295 135.293C464.682 132.733 466.03 124.021 466.131 123.17C467.06 115.255 469.889 116.596 469.846 123.595C469.803 130.255 469.803 134.566 469.803 134.566" stroke="#101010" stroke-linecap="round" stroke-linejoin="round"/>
<path d="M469.261 136.274C469.261 136.274 473.916 121.676 474.211 120.693C476.526 113.054 478.954 114.802 477.797 121.674C476.69 128.25 475.491 136.274 475.491 136.274" stroke="#101010" stroke-linecap="round" stroke-linejoin="round"/>
<path d="M474.351 138.623C476.578 134.158 478.545 129.568 480.241 124.876C483.009 117.361 485.043 119.28 483.742 126.115C483.029 130.365 482.016 134.559 480.711 138.666" stroke="#101010" stroke-linecap="round" stroke-linejoin="round"/>
<path d="M427.852 269.679C427.969 270.698 427.881 271.73 427.596 272.716C427.31 273.701 426.833 274.621 426.192 275.421C425.548 276.222 424.754 276.886 423.854 277.376C422.954 277.869 421.964 278.177 420.945 278.283C419.923 278.391 418.893 278.294 417.909 278.002C416.926 277.707 416.01 277.223 415.216 276.573C414.422 275.923 413.765 275.124 413.281 274.219C412.797 273.314 412.498 272.322 412.399 271.301L411.162 259.601C410.966 257.562 411.582 255.527 412.878 253.94C414.177 252.354 416.046 251.344 418.085 251.13C420.121 250.916 422.162 251.516 423.759 252.798C425.357 254.081 426.383 255.943 426.615 257.979L427.852 269.679Z" stroke="#101010" stroke-linecap="round" stroke-linejoin="round"/>
<path d="M406.081 266.605L406.677 272.368C406.862 274.139 407.395 275.857 408.243 277.423C409.092 278.989 410.241 280.373 411.625 281.494C413.007 282.616 414.6 283.453 416.305 283.962C418.013 284.468 419.804 284.635 421.575 284.45C423.348 284.263 425.064 283.732 426.63 282.884C428.196 282.034 429.58 280.886 430.703 279.502C431.823 278.119 432.663 276.528 433.169 274.82C433.675 273.113 433.842 271.322 433.657 269.551L433.061 263.788" stroke="#101010" stroke-linecap="round" stroke-linejoin="round"/>
<path d="M421.577 284.45L422.729 295.207" stroke="#101010" stroke-linecap="round" stroke-linejoin="round"/>
<path d="M416.967 295.806L428.451 294.609" stroke="#101010" stroke-linecap="round" stroke-linejoin="round"/>
<path d="M327.617 328.676L341.407 335.122L338.93 305.836L326.422 314.544" stroke="#101010" stroke-linecap="round" stroke-linejoin="round"/>
<path d="M314.556 305.283C317.339 305.04 320.109 305.859 322.312 307.578C324.514 309.297 325.984 311.785 326.422 314.544L327.574 327.819C327.703 329.268 327.543 330.728 327.106 332.116C326.67 333.504 325.963 334.794 325.027 335.907C324.091 337.021 322.946 337.941 321.655 338.612C320.363 339.283 318.95 339.692 317.501 339.816L290.863 342.034C289.412 342.167 287.95 342.012 286.559 341.577C285.171 341.141 283.879 340.434 282.766 339.498C281.65 338.562 280.729 337.413 280.061 336.119C279.393 334.825 278.986 333.412 278.866 331.961L277.8 319.586C277.667 318.135 277.822 316.672 278.257 315.284C278.693 313.893 279.397 312.602 280.336 311.488C281.272 310.372 282.419 309.452 283.713 308.784C285.009 308.115 286.422 307.708 287.873 307.589L314.556 305.283Z" stroke="#101010" stroke-linecap="round" stroke-linejoin="round"/>
<path d="M388.151 84.1505C387.886 80.8488 386.455 77.7495 384.112 75.407C381.77 73.0643 378.672 71.6314 375.369 71.3646C372.068 71.0978 368.779 72.0144 366.092 73.9506C363.403 75.8867 361.493 78.7158 360.701 81.932C364.207 83.5491 367.285 85.9615 369.694 88.9779C372.104 91.994 373.776 95.5308 374.577 99.3065C376.483 99.2624 378.359 98.8279 380.092 98.0298C381.824 97.232 383.372 96.0874 384.646 94.6672C385.917 93.247 386.884 91.5809 387.487 89.7721C388.09 87.9633 388.315 86.0499 388.151 84.1505Z" stroke="#101010" stroke-linecap="round" stroke-linejoin="round"/>
<path d="M374.961 102.38C374.424 95.9128 371.373 89.9143 366.461 85.6722C361.551 81.43 355.173 79.2824 348.695 79.6903C342.219 80.0982 336.16 83.0291 331.82 87.854C327.482 92.6789 325.205 99.0129 325.484 105.496C330.625 104.103 335.91 103.3 341.234 103.104C341.522 104.853 341.92 106.582 342.429 108.279C342.899 109.346 343.623 109.431 344.904 107.467C347.766 103.327 353.571 109.731 346.782 114.683C349.712 119.754 353.433 124.323 357.807 128.217C363.169 126.488 367.786 122.991 370.902 118.297C374.016 113.604 375.45 107.992 374.961 102.38Z" stroke="#101010" stroke-linecap="round" stroke-linejoin="round"/>
<path d="M89.1123 246.457L98.0336 245.559" stroke="#101010" stroke-linecap="round" stroke-linejoin="round"/>
<path d="M113.828 243.937L122.752 243.041" stroke="#101010" stroke-linecap="round" stroke-linejoin="round"/>
<path d="M104.224 227.928L105.121 236.851" stroke="#101010" stroke-linecap="round" stroke-linejoin="round"/>
<path d="M106.743 252.646L107.639 261.567" stroke="#101010" stroke-linecap="round" stroke-linejoin="round"/>
<path d="M92.8271 234.077L99.7841 239.711" stroke="#101010" stroke-linecap="round" stroke-linejoin="round"/>
<path d="M112.078 249.744L119.037 255.421" stroke="#101010" stroke-linecap="round" stroke-linejoin="round"/>
<path d="M116.605 231.643L110.969 238.602" stroke="#101010" stroke-linecap="round" stroke-linejoin="round"/>
<path d="M100.936 250.896L95.2588 257.855" stroke="#101010" stroke-linecap="round" stroke-linejoin="round"/>
<path d="M295.816 144.257L290.641 131.621C293.804 126.918 295.334 121.305 294.994 115.646C294.056 100.796 280.266 89.2648 263.832 89.735C247.054 90.203 233.821 103.01 234.289 118.337C234.755 134.517 249.891 146.1 266.426 145.126C272.349 144.752 278.061 142.782 282.955 139.424L295.816 144.257Z" stroke="#101010" stroke-linecap="round" stroke-linejoin="round"/>
<path d="M197.458 137.811C196.669 138.567 195.673 139.072 194.597 139.262C193.521 139.452 192.412 139.319 191.411 138.879C190.411 138.439 189.563 137.712 188.976 136.791C188.388 135.869 188.087 134.794 188.111 133.701C188.134 132.608 188.481 131.547 189.108 130.652C189.735 129.756 190.613 129.067 191.632 128.67C192.65 128.274 193.764 128.189 194.831 128.425C195.898 128.662 196.871 129.209 197.627 129.999C198.637 131.059 199.186 132.476 199.155 133.94C199.123 135.403 198.513 136.795 197.458 137.811Z" stroke="#101010" stroke-linecap="round" stroke-linejoin="round"/>
<path d="M425.76 64.9828L427.681 88.2928" stroke="#101010" stroke-linecap="round" stroke-linejoin="round"/>
<path d="M438.396 75.6545L415.088 77.6187" stroke="#101010" stroke-linecap="round" stroke-linejoin="round"/>
<path d="M108.023 322.997C106.399 321.006 104.302 319.451 101.924 318.474C97.7836 316.978 93.7223 318.301 88.8983 319.669C79.1783 322.369 68.7585 328.233 63.291 324.185" stroke="#101010" stroke-linecap="round" stroke-linejoin="round"/>
<path d="M207.703 326.413L207.232 309.081" stroke="#101010" stroke-linecap="round" stroke-linejoin="round"/>
</svg>
