<svg width="652" height="648" viewBox="0 0 652 648" fill="none" xmlns="http://www.w3.org/2000/svg">
<rect x="102.5" y="0.5" width="549" height="549" rx="29.5" stroke="#101010"/>
<rect x="152" y="50" width="450" height="450" rx="30" fill="white"/>
<path d="M365.84 89.744C349.061 90.212 335.829 103.019 336.297 118.346C336.81 136.188 355.166 148.442 373.566 144.428L372.583 132.858C372.369 130.941 372.535 129 373.072 127.147C373.608 125.294 374.505 123.564 375.71 122.058C376.915 120.551 378.406 119.297 380.096 118.366C381.786 117.436 383.644 116.848 385.561 116.636L396.96 115.655C396.021 100.8 382.274 89.2737 365.84 89.744Z" fill="#A6FF00"/>
<path fill-rule="evenodd" clip-rule="evenodd" d="M349.959 389.381L486.734 377.854C490.469 377.535 493.925 375.746 496.342 372.88C498.761 370.013 499.942 366.305 499.627 362.57L491.687 269.294C491.367 265.559 489.578 262.104 486.712 259.687C483.848 257.27 480.14 256.088 476.405 256.402L403.325 262.551C402.033 264.52 401.192 265.546 399.252 267.071C397.171 268.662 394.743 269.736 392.165 270.203C389.588 270.67 386.936 270.517 384.429 269.757C381.923 268.997 379.632 267.651 377.749 265.831C377.416 265.503 377.083 265.174 376.751 264.843L353.952 266.758C361.515 293.599 362.309 312.219 362.865 338.812C363.325 346.629 362.255 354.461 359.715 361.866L349.959 389.381ZM429.616 328.676L443.406 335.122L440.929 305.836L428.421 314.544C427.982 311.785 426.513 309.297 424.31 307.578C422.108 305.859 419.338 305.04 416.555 305.283L389.872 307.589C388.421 307.708 387.008 308.116 385.712 308.784C384.418 309.452 383.27 310.372 382.334 311.488C381.396 312.602 380.692 313.894 380.255 315.284C379.821 316.672 379.666 318.135 379.799 319.586L380.865 331.961C380.984 333.412 381.392 334.825 382.06 336.119C382.728 337.413 383.648 338.563 384.764 339.499C385.878 340.435 387.17 341.141 388.558 341.578C389.948 342.012 391.411 342.167 392.862 342.034L419.5 339.816C420.949 339.692 422.362 339.283 423.653 338.612C424.945 337.942 426.09 337.021 427.026 335.908C427.962 334.794 428.669 333.505 429.105 332.116C429.456 331 429.629 329.837 429.616 328.672V328.676Z" fill="#00BFBF"/>
<path d="M529.851 269.679C529.968 270.698 529.88 271.73 529.595 272.716C529.309 273.701 528.832 274.621 528.191 275.421C527.547 276.222 526.753 276.885 525.853 277.376C524.953 277.869 523.963 278.177 522.944 278.283C521.922 278.391 520.892 278.294 519.908 278.001C518.925 277.707 518.009 277.223 517.215 276.573C516.421 275.922 515.764 275.124 515.28 274.219C514.796 273.314 514.497 272.322 514.398 271.301L513.161 259.601C512.965 257.562 513.581 255.527 514.877 253.94C516.176 252.354 518.045 251.344 520.084 251.13C522.12 250.916 524.161 251.516 525.758 252.798C527.356 254.081 528.382 255.943 528.614 257.979L529.851 269.679Z" fill="#FF5C00"/>
<path d="M444.217 128.676C444.878 130.228 445.38 131.845 445.711 133.5C446.991 130.811 447.747 127.902 447.936 124.929C446.611 126.381 445.371 127.609 444.217 128.676Z" fill="#101010"/>
<path d="M328.144 187.374C328.511 189.393 329.203 191.339 330.193 193.136C333.481 193.136 337.11 192.711 338.005 191.388C338.134 191.163 338.262 190.917 338.39 190.661C337.153 193.1 332.675 190.625 328.144 187.374Z" fill="#101010"/>
<path d="M215.146 282.315C207.206 270.916 156.705 312.539 163.961 323.04L165.198 324.149C175.701 329.999 221.336 291.281 215.146 282.315Z" fill="#101010"/>
<path d="M301.548 429.251C291.171 434.185 323.263 492.075 333.048 483.852C338.903 475.356 309.745 425.325 301.548 429.251Z" fill="#101010"/>
<path d="M203.918 318.515C203.718 319.251 203.661 320.02 203.749 320.778C204.177 323.51 207.676 323.638 210.025 322.997C208.38 321.033 206.285 319.496 203.918 318.515Z" fill="#101010"/>
<path d="M226.585 296.231C228.207 298.238 229.872 300.243 231.366 302.081C231.616 301.365 231.774 300.618 231.836 299.862C231.879 299.221 231.755 298.578 231.475 297.999C231.195 297.419 230.77 296.924 230.241 296.557C229.712 296.19 229.097 295.97 228.456 295.911C227.815 295.855 227.171 295.965 226.585 296.231Z" fill="#101010"/>
<path d="M304.28 209.75C303.807 209.801 303.359 209.99 302.994 210.296C302.629 210.6 302.363 211.007 302.228 211.463C302.094 211.92 302.099 212.406 302.241 212.86C302.383 213.314 302.656 213.715 303.026 214.014C303.397 214.313 303.847 214.495 304.321 214.537C304.795 214.58 305.271 214.481 305.688 214.253C306.106 214.025 306.446 213.678 306.667 213.257C306.888 212.836 306.978 212.358 306.928 211.885C306.899 211.569 306.806 211.263 306.656 210.983C306.506 210.704 306.302 210.457 306.055 210.258C305.808 210.059 305.524 209.911 305.219 209.824C304.914 209.737 304.594 209.711 304.28 209.75Z" fill="#101010"/>
<path d="M287.204 229.593C286.731 229.644 286.284 229.833 285.919 230.138C285.554 230.443 285.288 230.85 285.153 231.306C285.019 231.762 285.023 232.248 285.165 232.702C285.308 233.156 285.581 233.558 285.951 233.857C286.322 234.155 286.772 234.337 287.246 234.38C287.72 234.422 288.195 234.323 288.613 234.096C289.031 233.868 289.371 233.521 289.592 233.1C289.812 232.678 289.903 232.201 289.853 231.728C289.819 231.414 289.725 231.109 289.574 230.831C289.422 230.554 289.218 230.309 288.972 230.11C288.726 229.912 288.443 229.764 288.14 229.675C287.836 229.586 287.518 229.558 287.204 229.593Z" fill="#101010"/>
<path d="M297.323 255.805C296.85 255.856 296.402 256.045 296.037 256.35C295.671 256.655 295.404 257.061 295.27 257.517C295.135 257.974 295.139 258.46 295.281 258.914C295.423 259.368 295.696 259.77 296.067 260.069C296.437 260.368 296.888 260.55 297.361 260.593C297.835 260.635 298.311 260.536 298.729 260.309C299.147 260.081 299.487 259.734 299.708 259.312C299.929 258.891 300.019 258.414 299.969 257.94C299.935 257.626 299.84 257.322 299.689 257.045C299.538 256.768 299.334 256.523 299.088 256.324C298.843 256.126 298.56 255.978 298.257 255.889C297.954 255.8 297.637 255.771 297.323 255.805Z" fill="#101010"/>
<path d="M275.124 225.068C274.651 225.118 274.204 225.308 273.838 225.613C273.473 225.917 273.206 226.324 273.072 226.78C272.937 227.236 272.941 227.722 273.083 228.177C273.225 228.631 273.498 229.033 273.868 229.331C274.239 229.63 274.689 229.813 275.163 229.855C275.637 229.898 276.113 229.799 276.531 229.571C276.948 229.343 277.289 228.997 277.51 228.575C277.73 228.154 277.821 227.676 277.77 227.203C277.737 226.889 277.642 226.585 277.491 226.308C277.34 226.03 277.136 225.785 276.89 225.587C276.644 225.389 276.362 225.241 276.059 225.152C275.756 225.063 275.438 225.034 275.124 225.068Z" fill="#101010"/>
<path d="M324.602 219.135C324.129 219.185 323.681 219.375 323.315 219.68C322.95 219.985 322.683 220.391 322.549 220.847C322.415 221.304 322.419 221.79 322.561 222.244C322.703 222.698 322.976 223.1 323.347 223.399C323.717 223.698 324.168 223.88 324.642 223.922C325.116 223.965 325.592 223.865 326.01 223.637C326.427 223.409 326.768 223.062 326.988 222.64C327.209 222.219 327.299 221.741 327.248 221.268C327.214 220.954 327.119 220.65 326.968 220.373C326.817 220.096 326.612 219.851 326.367 219.653C326.121 219.455 325.839 219.307 325.536 219.218C325.233 219.129 324.916 219.101 324.602 219.135Z" fill="#101010"/>
<path d="M310.684 238.602C310.21 238.653 309.763 238.842 309.398 239.148C309.033 239.453 308.767 239.859 308.632 240.316C308.499 240.772 308.503 241.258 308.645 241.712C308.787 242.166 309.061 242.568 309.432 242.866C309.802 243.165 310.253 243.347 310.727 243.389C311.201 243.431 311.676 243.332 312.094 243.104C312.511 242.876 312.852 242.529 313.072 242.107C313.293 241.685 313.383 241.208 313.332 240.735C313.299 240.421 313.203 240.116 313.052 239.839C312.901 239.562 312.696 239.317 312.45 239.119C312.204 238.92 311.922 238.773 311.618 238.684C311.315 238.595 310.997 238.567 310.684 238.602Z" fill="#101010"/>
<path d="M335.658 247.651C335.186 247.702 334.738 247.891 334.372 248.196C334.007 248.501 333.74 248.907 333.606 249.363C333.471 249.82 333.475 250.306 333.617 250.76C333.759 251.214 334.032 251.616 334.403 251.915C334.773 252.214 335.223 252.396 335.697 252.439C336.171 252.481 336.647 252.382 337.065 252.155C337.483 251.927 337.823 251.58 338.044 251.158C338.265 250.737 338.355 250.26 338.304 249.786C338.271 249.472 338.176 249.168 338.025 248.891C337.874 248.614 337.67 248.369 337.424 248.17C337.178 247.972 336.896 247.824 336.593 247.735C336.29 247.646 335.973 247.617 335.658 247.651Z" fill="#101010"/>
<path d="M346.031 206.242C345.558 206.293 345.11 206.482 344.745 206.787C344.379 207.092 344.113 207.498 343.978 207.954C343.843 208.411 343.847 208.897 343.989 209.351C344.131 209.805 344.404 210.207 344.775 210.506C345.145 210.805 345.595 210.987 346.069 211.03C346.543 211.072 347.019 210.973 347.437 210.746C347.855 210.518 348.195 210.171 348.416 209.75C348.637 209.328 348.727 208.851 348.677 208.377C348.647 208.062 348.555 207.755 348.405 207.476C348.256 207.197 348.051 206.95 347.805 206.751C347.558 206.552 347.274 206.404 346.969 206.317C346.664 206.23 346.345 206.204 346.031 206.242Z" fill="#101010"/>
<path d="M368.401 246.625C367.928 246.676 367.48 246.865 367.115 247.17C366.749 247.475 366.483 247.881 366.348 248.337C366.214 248.794 366.217 249.28 366.359 249.734C366.501 250.188 366.774 250.59 367.145 250.889C367.515 251.188 367.966 251.37 368.44 251.413C368.913 251.455 369.389 251.356 369.807 251.129C370.225 250.901 370.565 250.554 370.786 250.133C371.007 249.711 371.098 249.234 371.047 248.76C370.979 248.127 370.662 247.545 370.166 247.145C369.67 246.745 369.035 246.558 368.401 246.625Z" fill="#101010"/>
<path d="M368.486 224.213C368.8 224.18 369.104 224.085 369.382 223.934C369.659 223.783 369.904 223.579 370.102 223.333C370.301 223.087 370.449 222.805 370.538 222.502C370.626 222.198 370.655 221.881 370.621 221.567C370.537 220.946 370.214 220.383 369.721 219.996C369.228 219.609 368.604 219.431 367.981 219.497C367.358 219.564 366.786 219.872 366.386 220.354C365.986 220.836 365.79 221.455 365.84 222.08C365.873 222.394 365.967 222.698 366.118 222.976C366.27 223.253 366.474 223.498 366.72 223.696C366.966 223.894 367.248 224.042 367.551 224.131C367.854 224.219 368.172 224.247 368.486 224.213Z" fill="#101010"/>
<path d="M394.57 251.706C394.098 251.756 393.65 251.946 393.283 252.25C392.919 252.555 392.651 252.961 392.518 253.418C392.383 253.874 392.388 254.36 392.529 254.814C392.671 255.269 392.943 255.67 393.315 255.969C393.684 256.268 394.136 256.45 394.608 256.493C395.083 256.536 395.558 256.437 395.976 256.209C396.395 255.981 396.735 255.635 396.955 255.213C397.176 254.792 397.266 254.314 397.216 253.841C397.182 253.527 397.088 253.223 396.937 252.945C396.786 252.668 396.582 252.423 396.336 252.225C396.089 252.027 395.808 251.879 395.504 251.79C395.202 251.701 394.883 251.672 394.57 251.706Z" fill="#101010"/>
<path d="M397.558 226.265C397.086 226.315 396.638 226.505 396.271 226.81C395.907 227.115 395.639 227.521 395.506 227.978C395.371 228.434 395.376 228.92 395.518 229.375C395.659 229.829 395.934 230.231 396.303 230.529C396.674 230.828 397.124 231.01 397.599 231.053C398.074 231.095 398.548 230.996 398.967 230.767C399.383 230.539 399.725 230.192 399.946 229.771C400.166 229.349 400.256 228.871 400.204 228.398C400.171 228.084 400.076 227.78 399.925 227.503C399.775 227.225 399.57 226.981 399.325 226.783C399.077 226.584 398.796 226.437 398.492 226.348C398.191 226.259 397.871 226.231 397.558 226.265Z" fill="#101010"/>
<path d="M418.902 217.726C418.853 217.253 418.661 216.805 418.358 216.44C418.052 216.075 417.647 215.808 417.19 215.674C416.733 215.539 416.247 215.543 415.793 215.685C415.338 215.827 414.938 216.1 414.638 216.47C414.339 216.84 414.157 217.291 414.114 217.765C414.071 218.239 414.17 218.715 414.398 219.132C414.627 219.55 414.974 219.891 415.394 220.112C415.815 220.332 416.294 220.423 416.767 220.372C417.082 220.339 417.386 220.244 417.662 220.093C417.939 219.942 418.184 219.737 418.382 219.492C418.58 219.246 418.729 218.964 418.819 218.661C418.907 218.358 418.936 218.04 418.902 217.726Z" fill="#101010"/>
<path d="M490.151 84.1505C489.89 80.8405 488.459 77.7317 486.112 75.3831C483.763 73.0346 480.656 71.6002 477.346 71.3377C474.036 71.0753 470.742 72.002 468.053 73.9514C465.365 75.9006 463.461 78.7448 462.683 81.9725C458.826 80.1776 454.571 79.4061 450.33 79.7324C446.089 80.0586 442.005 81.4716 438.468 83.8352C434.931 86.1989 432.062 89.4332 430.139 93.2272C428.215 97.0211 427.301 101.246 427.484 105.496C432.625 104.103 437.91 103.3 443.234 103.104C443.522 104.853 443.92 106.582 444.428 108.279C444.899 109.346 445.623 109.431 446.903 107.467C449.765 103.327 455.57 109.731 448.782 114.683C451.712 119.754 455.433 124.323 459.807 128.217C465.169 126.49 469.786 122.995 472.904 118.303C476.021 113.612 477.454 108.001 476.97 102.389C476.882 101.359 476.732 100.336 476.52 99.3245C476.828 99.326 477.134 99.3087 477.44 99.2727C479.267 99.1143 481.047 98.5977 482.674 97.7519C484.303 96.9064 485.747 95.7483 486.926 94.3441C488.108 92.9399 489.001 91.3169 489.552 89.5678C490.106 87.8189 490.308 85.9779 490.151 84.1505Z" fill="#101010"/>
<path d="M309.232 309.081L309.703 326.406L315.8 320.9C313.141 317.239 310.936 313.272 309.232 309.081Z" fill="#101010"/>
<path d="M348.423 229.977L354.484 238.602L354.826 249.658L348.423 229.977Z" fill="#101010"/>
<path d="M337.962 171.536C338.705 171.4 339.375 171.004 339.852 170.419C340.33 169.834 340.584 169.099 340.568 168.344C340.553 167.589 340.269 166.864 339.768 166.299C339.267 165.735 338.582 165.366 337.834 165.261C338.412 164.838 338.832 164.233 339.024 163.543C339.217 162.853 339.171 162.119 338.895 161.458C338.619 160.797 338.129 160.248 337.503 159.9C336.877 159.552 336.152 159.425 335.445 159.539C335.807 158.938 335.961 158.233 335.882 157.536C335.803 156.838 335.497 156.186 335.01 155.68C334.523 155.174 333.882 154.843 333.188 154.738C332.494 154.633 331.784 154.76 331.17 155.1C331.317 154.384 331.214 153.639 330.878 152.989C330.543 152.34 329.994 151.825 329.325 151.531C328.656 151.236 327.906 151.18 327.201 151.371C326.495 151.562 325.876 151.99 325.448 152.582C325.379 151.812 325.044 151.091 324.5 150.542C323.956 149.994 323.238 149.652 322.469 149.576C321.7 149.5 320.929 149.695 320.288 150.126C319.647 150.558 319.177 151.2 318.959 151.941C318.657 151.276 318.136 150.734 317.484 150.407C316.831 150.079 316.087 149.984 315.373 150.139C314.659 150.294 314.02 150.688 313.562 151.257C313.104 151.825 312.854 152.534 312.855 153.264C312.322 152.806 311.653 152.535 310.952 152.495C310.251 152.454 309.555 152.644 308.973 153.038C308.391 153.431 307.954 154.004 307.729 154.67C307.505 155.336 307.506 156.057 307.731 156.722C307.067 156.475 306.34 156.456 305.664 156.669C304.989 156.882 304.403 157.315 304.002 157.898C303.599 158.482 303.404 159.183 303.445 159.89C303.487 160.597 303.763 161.27 304.23 161.802C303.477 161.761 302.733 161.987 302.13 162.441C301.528 162.895 301.105 163.547 300.936 164.283C300.768 165.018 300.865 165.789 301.21 166.46C301.555 167.131 302.126 167.659 302.822 167.949C302.082 168.093 301.417 168.494 300.945 169.082C300.474 169.67 300.226 170.406 300.246 171.16C300.267 171.913 300.554 172.635 301.057 173.196C301.56 173.757 302.246 174.122 302.993 174.225C302.427 174.654 302.021 175.261 301.839 175.948C301.657 176.635 301.711 177.363 301.991 178.015C302.271 178.669 302.761 179.209 303.384 179.551C304.007 179.894 304.726 180.018 305.427 179.904C305.073 180.508 304.928 181.212 305.014 181.907C305.1 182.602 305.412 183.25 305.903 183.75C306.393 184.25 307.034 184.574 307.727 184.674C308.421 184.774 309.127 184.642 309.738 184.3C309.597 185.015 309.705 185.756 310.043 186.401C310.382 187.046 310.932 187.555 311.6 187.844C312.268 188.134 313.016 188.185 313.718 187.991C314.419 187.796 315.034 187.367 315.458 186.775C315.495 187.308 315.664 187.824 315.949 188.275C316.234 188.727 316.627 189.101 317.093 189.364C317.558 189.626 318.081 189.769 318.616 189.779C319.15 189.79 319.678 189.668 320.154 189.423C320.538 188.953 325.779 182.507 327.626 180.158C323.101 175.037 326.856 171.707 329.291 175.08C330.571 176.916 332.441 176.403 331.338 170.937C332.753 170.322 334.108 169.58 335.388 168.719C336.288 172.175 336.963 175.122 337.521 177.597C338.17 177.428 338.748 177.059 339.177 176.544C339.605 176.029 339.862 175.393 339.91 174.724C339.959 174.056 339.797 173.389 339.448 172.818C339.099 172.246 338.579 171.798 337.962 171.536Z" fill="#101010"/>
<path d="M337.535 177.597C336.982 175.122 336.298 172.177 335.402 168.719C334.122 169.58 332.767 170.322 331.352 170.937C332.464 176.403 330.598 176.904 329.305 175.08C326.897 171.687 323.115 175.037 327.64 180.158C325.804 182.507 320.552 188.953 320.167 189.423C319.692 189.668 319.164 189.79 318.629 189.779C318.095 189.769 317.572 189.626 317.106 189.364C316.641 189.101 316.248 188.727 315.963 188.276C315.677 187.824 315.509 187.308 315.472 186.775C315.047 187.367 314.433 187.796 313.731 187.991C313.029 188.185 312.282 188.134 311.614 187.844C310.945 187.555 310.396 187.046 310.057 186.401C309.718 185.756 309.611 185.015 309.752 184.3C309.141 184.642 308.434 184.773 307.741 184.674C307.048 184.574 306.407 184.25 305.916 183.75C305.426 183.249 305.114 182.602 305.028 181.907C304.942 181.212 305.087 180.508 305.441 179.904C304.74 180.018 304.02 179.894 303.398 179.551C302.775 179.209 302.285 178.668 302.005 178.016C301.725 177.363 301.671 176.634 301.853 175.948C302.034 175.261 302.44 174.654 303.007 174.225C302.26 174.122 301.574 173.757 301.071 173.196C300.568 172.635 300.281 171.913 300.26 171.16C300.239 170.406 300.487 169.67 300.959 169.082C301.43 168.494 302.096 168.093 302.836 167.949C302.139 167.659 301.568 167.131 301.223 166.46C300.878 165.789 300.782 165.018 300.95 164.283C301.119 163.547 301.542 162.895 302.144 162.441C302.747 161.987 303.491 161.761 304.244 161.802C303.777 161.27 303.5 160.597 303.459 159.89C303.417 159.182 303.613 158.481 304.015 157.898C304.417 157.315 305.002 156.882 305.678 156.669C306.354 156.456 307.081 156.475 307.745 156.722C307.526 156.058 307.529 155.342 307.756 154.68C307.982 154.019 308.418 153.45 308.997 153.06C309.577 152.669 310.268 152.479 310.965 152.518C311.663 152.557 312.329 152.823 312.862 153.275C312.861 152.545 313.111 151.836 313.569 151.268C314.027 150.699 314.666 150.305 315.38 150.15C316.093 149.996 316.838 150.09 317.491 150.418C318.143 150.746 318.664 151.287 318.966 151.952C319.184 151.211 319.654 150.569 320.295 150.137C320.935 149.706 321.707 149.511 322.476 149.587C323.245 149.663 323.963 150.005 324.507 150.554C325.05 151.102 325.386 151.824 325.455 152.593C325.883 152.001 326.502 151.574 327.208 151.382C327.913 151.191 328.663 151.247 329.332 151.542C330.001 151.836 330.549 152.351 330.885 153C331.221 153.65 331.323 154.395 331.177 155.111C331.791 154.772 332.501 154.645 333.195 154.749C333.889 154.854 334.529 155.185 335.017 155.691C335.504 156.197 335.81 156.849 335.889 157.547C335.967 158.245 335.814 158.949 335.452 159.55C336.159 159.436 336.884 159.563 337.51 159.911C338.136 160.259 338.626 160.808 338.902 161.469C339.178 162.13 339.224 162.864 339.031 163.555C338.839 164.244 338.419 164.849 337.841 165.272C338.589 165.377 339.274 165.746 339.775 166.311C340.276 166.876 340.56 167.6 340.575 168.355C340.591 169.11 340.337 169.846 339.859 170.431C339.382 171.015 338.712 171.411 337.969 171.547C338.582 171.811 339.097 172.258 339.444 172.828C339.791 173.398 339.951 174.062 339.904 174.727C339.856 175.392 339.602 176.026 339.178 176.54C338.753 177.055 338.179 177.424 337.535 177.597Z" stroke="#101010" stroke-linecap="round" stroke-linejoin="round"/>
<path d="M338.049 160.095L349.49 159.156C350.856 159.037 352.232 159.189 353.539 159.604C354.846 160.018 356.058 160.687 357.105 161.572C358.153 162.457 359.015 163.54 359.642 164.759C360.27 165.978 360.649 167.31 360.76 168.676L363.877 206.114" stroke="#101010" stroke-linecap="round" stroke-linejoin="round"/>
<path d="M355.252 249.06L357.002 248.931C358.531 248.914 360.024 248.471 361.313 247.651" stroke="#101010" stroke-linecap="round" stroke-linejoin="round"/>
<path d="M276.021 255.711L253.055 257.675C250.299 257.906 247.564 257.033 245.451 255.248C243.339 253.463 242.021 250.913 241.787 248.157L235.937 179.17C235.705 176.413 236.578 173.677 238.363 171.564C240.148 169.45 242.7 168.132 245.457 167.9L301.611 163.169" stroke="#101010" stroke-linecap="round" stroke-linejoin="round"/>
<path d="M349.96 389.381L486.735 377.854C490.47 377.535 493.926 375.746 496.343 372.879C498.762 370.013 499.943 366.305 499.628 362.57L491.688 269.294C491.368 265.559 489.579 262.104 486.713 259.687C483.849 257.27 480.141 256.088 476.406 256.401L403.326 262.551" stroke="#101010" stroke-linecap="round" stroke-linejoin="round"/>
<path d="M354.015 266.733L376.726 264.812" stroke="#101010" stroke-linecap="round" stroke-linejoin="round"/>
<path d="M427.698 113L385.519 116.629C381.656 117.06 378.121 119.005 375.688 122.037C373.256 125.069 372.124 128.942 372.541 132.807L380.994 230.097" stroke="#101010" stroke-linecap="round" stroke-linejoin="round"/>
<path d="M411.475 244.364L539.414 233.307C542.254 233.051 544.951 231.944 547.152 230.131C549.352 228.319 550.954 225.885 551.751 223.146" stroke="#101010" stroke-linecap="round" stroke-linejoin="round"/>
<path d="M547.654 162.187L543.853 118.004C543.599 114.122 541.817 110.5 538.897 107.931C535.974 105.362 532.153 104.056 528.272 104.299L476.747 108.741" stroke="#101010" stroke-linecap="round" stroke-linejoin="round"/>
<path d="M500.823 175.037C496.426 181.951 487.163 202.145 481.783 215.249C492.111 219.286 500.814 226.626 506.533 236.124" stroke="#101010" stroke-linecap="round" stroke-linejoin="round"/>
<path d="M432.051 197.15C433.612 205.19 435.651 213.13 438.155 220.928C435.806 229.764 434.868 237.618 433.759 242.442" stroke="#101010" stroke-linecap="round" stroke-linejoin="round"/>
<path d="M436.149 164.28C432.924 169.25 431.043 174.971 430.686 180.885" stroke="#101010" stroke-linecap="round" stroke-linejoin="round"/>
<path d="M481.74 215.292C469.703 223.959 446.948 228.567 438.155 220.928" stroke="#101010" stroke-linecap="round" stroke-linejoin="round"/>
<path d="M476.277 218.579C482.699 223.601 487.845 230.065 491.301 237.447" stroke="#101010" stroke-linecap="round" stroke-linejoin="round"/>
<path d="M445.74 133.45C447 130.772 447.745 127.882 447.936 124.929C446.613 126.381 445.371 127.609 444.217 128.676" stroke="#101010" stroke-linecap="round" stroke-linejoin="round"/>
<path d="M494.718 186.478L510.002 212.304C521.826 233.735 546.452 240.476 561.912 208.463C569.209 193.35 572.669 183.191 579.073 172.688C568.601 169.703 559.066 164.09 551.375 156.382C544.268 167.08 537.947 178.279 532.462 189.891C501.513 124.108 497.713 135.707 477.094 134.566C470.803 134.393 464.744 132.158 459.848 128.205" stroke="#101010" stroke-linecap="round" stroke-linejoin="round"/>
<path d="M414.762 186.989C420.866 166.242 434.541 156.652 440.545 150.107C443.368 147.398 445.251 143.854 445.911 139.996C446.572 136.139 445.978 132.171 444.216 128.676C433.459 138.153 427.526 130.597 427.526 105.501" stroke="#101010" stroke-linecap="round" stroke-linejoin="round"/>
<path d="M479.692 134.652C471.135 141.528 463.413 149.382 456.681 158.052C455.626 159.365 454.249 160.383 452.683 161.004C451.117 161.626 449.416 161.831 447.747 161.599C446.079 161.367 444.498 160.706 443.161 159.681C441.825 158.656 440.776 157.301 440.119 155.75C439.57 154.467 439.093 153.275 438.668 152.121" stroke="#101010" stroke-linecap="round" stroke-linejoin="round"/>
<path d="M532.455 189.891L527.377 201.333" stroke="#101010" stroke-linecap="round" stroke-linejoin="round"/>
<path d="M320.161 189.423C314.194 197.073 309.97 196.572 298.732 201.589C275.849 211.793 283.704 252.689 283.704 252.689" stroke="#101010" stroke-linecap="round" stroke-linejoin="round"/>
<path d="M337.535 177.597C339.4 186.244 339.232 189.554 338.005 191.343C337.105 192.668 333.481 193.093 330.193 193.093" stroke="#101010" stroke-linecap="round" stroke-linejoin="round"/>
<path d="M338.397 190.625C337.202 193.1 332.671 190.625 328.144 187.338C328.999 191.266 329.595 195.973 332.797 196.173C361.178 197.953 364.175 201.168 388.806 243.423" stroke="#101010" stroke-linecap="round" stroke-linejoin="round"/>
<path d="M385.775 238.174C386.842 235.186 393.459 221.567 397.302 209.273C405.717 208.367 414.175 210.569 421.08 215.463C418.432 228.013 410.75 247.055 404.131 261.05C403.006 263.415 401.334 265.479 399.253 267.071C397.172 268.662 394.744 269.736 392.165 270.203C389.589 270.67 386.936 270.517 384.43 269.757C381.923 268.997 379.633 267.651 377.75 265.831C366.697 254.964 356.877 242.912 348.466 229.892" stroke="#101010" stroke-linecap="round" stroke-linejoin="round"/>
<path d="M348.509 229.892L354.827 249.658" stroke="#101010" stroke-linecap="round" stroke-linejoin="round"/>
<path d="M301.851 265.795C314.529 269.845 336.215 268.313 353.164 263.703C355.725 258.665 354.658 238.773 354.658 238.773" stroke="#101010" stroke-linecap="round" stroke-linejoin="round"/>
<path d="M301.72 264.812C296.257 272.667 285.52 272.957 280.588 264.769C274.374 254.419 271.71 239.668 270.387 223.275C270.387 223.275 280.062 220.179 284.112 221.391" stroke="#101010" stroke-linecap="round" stroke-linejoin="round"/>
<path d="M315.8 320.9L270.721 360.815C267.739 363.438 263.908 364.892 259.937 364.908C255.966 364.921 252.123 363.497 249.121 360.898L204.771 322.529" stroke="#101010" stroke-linecap="round" stroke-linejoin="round"/>
<path d="M264.368 328.633L230.813 297" stroke="#101010" stroke-linecap="round" stroke-linejoin="round"/>
<path d="M294.846 222.978C294.846 222.978 302.271 252.903 301.806 266.562C292.773 271.697 285.794 279.797 282.051 289.488C276.599 304.218 257.717 322.144 257.717 322.144" stroke="#101010" stroke-linecap="round" stroke-linejoin="round"/>
<path d="M353.161 263.703C361.527 292.176 362.359 311.178 362.935 338.749C363.395 346.566 362.325 354.396 359.785 361.803L340.235 416.786C328.278 415.53 316.784 411.48 306.681 404.962L326.233 348.953C326.61 339.386 323.4 330.024 317.233 322.7C311.128 315.264 307.304 306.219 306.22 296.658" stroke="#101010" stroke-linecap="round" stroke-linejoin="round"/>
<path d="M310.344 197.022C310.344 197.022 317.173 204.534 333.395 196.209" stroke="#101010" stroke-linecap="round" stroke-linejoin="round"/>
<path d="M273.759 222.294C273.626 215.78 272.897 209.293 271.581 202.912C270.322 198.001 268.518 193.247 266.201 188.737C262.804 182.113 263.906 180.32 269.363 186.348C274.751 193.111 279.188 200.58 282.552 208.546" stroke="#101010" stroke-linecap="round" stroke-linejoin="round"/>
<path d="M280.657 204.327C283.368 207.401 284.991 198.027 286.01 195.953C287.418 193.093 289.16 189.979 289.041 198.772C289.007 201.204 289.297 205.09 289.682 208.931" stroke="#101010" stroke-linecap="round" stroke-linejoin="round"/>
<path d="M269.021 195.015C267.783 193.649 264.971 190.92 264.154 190.148C260.424 186.579 259.681 187.837 260.104 188.573C261.724 191.412 264.762 195.786 266.179 198.473C268.447 202.824 273.051 211.109 273.307 215.377" stroke="#101010" stroke-linecap="round" stroke-linejoin="round"/>
<path d="M266.033 198.216C265.306 197.706 264.705 197.285 264.368 197.064C260.043 194.245 259.586 195.528 260.093 196.164C262.142 198.725 265.864 202.518 267.693 204.957C269.841 207.962 271.699 211.164 273.242 214.52" stroke="#101010" stroke-linecap="round" stroke-linejoin="round"/>
<path d="M419.075 214.054C421.365 207.226 424.25 200.613 427.699 194.29C430.617 189.518 434.069 185.093 437.986 181.098C443.737 175.248 443.161 172.944 435.426 177.512C427.535 182.901 420.411 189.334 414.251 196.637" stroke="#101010" stroke-linecap="round" stroke-linejoin="round"/>
<path d="M417.84 192.587C413.533 195.798 415.122 184.831 414.719 182.25C414.177 178.79 413.396 174.909 410.62 184.257C409.852 186.816 406.734 194.745 400.854 209.057" stroke="#101010" stroke-linecap="round" stroke-linejoin="round"/>
<path d="M432.947 186.775C434.697 185.709 438.54 183.787 439.649 183.234C444.773 180.671 445.108 182.289 444.473 182.892C441.848 185.387 437.219 189 434.868 191.385C431.075 195.235 423.512 202.485 421.805 206.926" stroke="#101010" stroke-linecap="round" stroke-linejoin="round"/>
<path d="M435.082 191.174C436.02 190.875 436.789 190.621 437.217 190.499C442.689 188.823 442.763 190.452 441.998 190.969C438.997 192.994 433.849 195.8 431.11 197.798C427.87 200.274 424.871 203.047 422.146 206.08" stroke="#101010" stroke-linecap="round" stroke-linejoin="round"/>
<path d="M215.147 282.315C207.548 271.4 160.971 309.054 163.338 321.519C163.705 323.449 165.374 325.177 169.269 324.648C184.238 322.621 220.76 290.392 215.147 282.315Z" stroke="#101010" stroke-linecap="round" stroke-linejoin="round"/>
<path d="M215.146 282.315C217.493 285.303 225.562 294.951 231.326 302.115" stroke="#101010" stroke-linecap="round" stroke-linejoin="round"/>
<path d="M335.531 416.19C333.731 422.976 323.628 437.871 331.388 456.957C335.364 466.731 337.664 480.985 332.288 484.572" stroke="#101010" stroke-linecap="round" stroke-linejoin="round"/>
<path d="M300.184 430.534C301.462 427.654 306.108 417.146 310.259 407.359" stroke="#101010" stroke-linecap="round" stroke-linejoin="round"/>
<path d="M301.548 429.251C292.004 433.789 317.483 480.45 329.169 484.707C332.398 485.883 333.942 483.582 333.813 480.155C333.282 465.899 308.926 425.75 301.548 429.251Z" stroke="#101010" stroke-linecap="round" stroke-linejoin="round"/>
<path d="M226.545 296.231C227.13 295.965 227.774 295.855 228.415 295.911C229.055 295.968 229.67 296.19 230.199 296.557C230.728 296.922 231.153 297.419 231.433 297.997C231.712 298.578 231.837 299.219 231.794 299.86C231.088 308.86 214.368 324.277 206.851 323.368C204.601 323.094 203.174 321.503 203.926 318.474" stroke="#101010" stroke-linecap="round" stroke-linejoin="round"/>
<path d="M337.573 400.892L350.675 359.454C352.949 352.978 353.906 346.113 353.492 339.262C351.676 309.596 349.48 286.668 344.143 265.795" stroke="#101010" stroke-linecap="round" stroke-linejoin="round"/>
<path d="M312.007 389.678C321.698 397.051 333.434 401.243 345.604 401.675" stroke="#101010" stroke-linecap="round" stroke-linejoin="round"/>
<path d="M217.408 333.457C230.343 329.315 237.602 319.957 241.956 307.758" stroke="#101010" stroke-linecap="round" stroke-linejoin="round"/>
<path d="M309.232 309.081L272.904 341.269C269.916 343.931 266.058 345.409 262.056 345.425C258.054 345.441 254.184 343.994 251.176 341.355L232.008 324.534" stroke="#101010" stroke-linecap="round" stroke-linejoin="round"/>
<path d="M315.38 277.149C314.826 277.234 314.014 287.994 315.465 292.347C318.241 296.184 321.79 299.399 325.883 301.782C328.224 297.882 331.034 294.282 334.25 291.067C333.823 285.645 333.31 282.785 332.714 277.063C326.967 277.884 321.134 277.914 315.38 277.149Z" stroke="#101010" stroke-linecap="round" stroke-linejoin="round"/>
<path d="M291.177 274.973C293.368 275.004 295.52 275.56 297.452 276.595C293.523 278.514 289.554 288.295 289.554 288.295L280.802 292.48" stroke="#101010" stroke-linecap="round" stroke-linejoin="round"/>
<path d="M568.912 135.5C575.662 137.633 579.415 141.091 583.762 146.642" stroke="#101010" stroke-linecap="round" stroke-linejoin="round"/>
<path d="M567.249 138.666C569.605 141.057 571.436 143.912 572.627 147.05C573.817 150.188 574.339 153.539 574.163 156.891" stroke="#101010" stroke-linecap="round" stroke-linejoin="round"/>
<path d="M580.225 142.421C582.844 138.97 585.035 135.215 586.75 131.236C589.9 123.852 591.83 125.902 590.08 132.901C589.61 134.78 589.142 136.402 588.714 137.768C587.481 141.697 586.266 145.663 585.128 149.637C583.919 153.858 575.903 171.707 575.903 171.707C568.39 169.7 560.578 164.237 554.474 159.199C554.602 158.943 557.849 152.969 557.972 152.753C558.634 151.559 558.915 150.192 558.778 148.834C558.641 147.476 558.092 146.192 557.205 145.155C554.118 141.451 549.985 135.93 551.355 134.438C553.481 132.127 560.191 139.942 563.777 140.416C565.058 140.585 566.084 136.702 566.295 135.293C566.682 132.733 568.03 124.021 568.131 123.17C569.06 115.255 571.889 116.596 571.846 123.595C571.803 130.255 571.803 134.566 571.803 134.566" stroke="#101010" stroke-linecap="round" stroke-linejoin="round"/>
<path d="M571.261 136.274C571.261 136.274 575.916 121.676 576.211 120.693C578.526 113.054 580.954 114.802 579.797 121.674C578.69 128.25 577.491 136.274 577.491 136.274" stroke="#101010" stroke-linecap="round" stroke-linejoin="round"/>
<path d="M576.351 138.623C578.578 134.158 580.545 129.568 582.241 124.875C585.009 117.36 587.043 119.28 585.742 126.115C585.029 130.365 584.016 134.559 582.711 138.666" stroke="#101010" stroke-linecap="round" stroke-linejoin="round"/>
<path d="M529.852 269.679C529.969 270.698 529.881 271.73 529.596 272.716C529.31 273.701 528.833 274.621 528.192 275.421C527.548 276.222 526.754 276.885 525.854 277.376C524.954 277.869 523.964 278.177 522.945 278.283C521.923 278.391 520.893 278.294 519.909 278.001C518.926 277.707 518.01 277.223 517.216 276.573C516.422 275.922 515.765 275.124 515.281 274.219C514.797 273.314 514.498 272.322 514.399 271.301L513.162 259.601C512.966 257.562 513.582 255.527 514.878 253.94C516.177 252.354 518.046 251.344 520.085 251.13C522.121 250.916 524.162 251.516 525.759 252.798C527.357 254.081 528.383 255.943 528.615 257.979L529.852 269.679Z" stroke="#101010" stroke-linecap="round" stroke-linejoin="round"/>
<path d="M508.081 266.605L508.677 272.367C508.862 274.139 509.395 275.857 510.243 277.423C511.092 278.989 512.241 280.373 513.625 281.493C515.007 282.616 516.6 283.453 518.305 283.962C520.013 284.468 521.804 284.634 523.575 284.45C525.348 284.263 527.064 283.732 528.63 282.884C530.196 282.033 531.58 280.886 532.703 279.502C533.823 278.118 534.663 276.528 535.169 274.82C535.675 273.113 535.842 271.322 535.657 269.55L535.061 263.788" stroke="#101010" stroke-linecap="round" stroke-linejoin="round"/>
<path d="M523.577 284.45L524.729 295.207" stroke="#101010" stroke-linecap="round" stroke-linejoin="round"/>
<path d="M518.967 295.806L530.451 294.609" stroke="#101010" stroke-linecap="round" stroke-linejoin="round"/>
<path d="M429.617 328.676L443.407 335.122L440.93 305.836L428.422 314.544" stroke="#101010" stroke-linecap="round" stroke-linejoin="round"/>
<path d="M416.556 305.283C419.339 305.04 422.109 305.859 424.312 307.578C426.514 309.297 427.984 311.785 428.422 314.544L429.574 327.819C429.703 329.268 429.543 330.728 429.106 332.116C428.67 333.504 427.963 334.794 427.027 335.907C426.091 337.021 424.946 337.941 423.655 338.612C422.363 339.283 420.95 339.692 419.501 339.816L392.863 342.034C391.412 342.167 389.95 342.012 388.559 341.577C387.171 341.141 385.879 340.434 384.766 339.498C383.65 338.562 382.729 337.413 382.061 336.119C381.393 334.825 380.986 333.412 380.866 331.961L379.8 319.586C379.667 318.135 379.822 316.672 380.257 315.284C380.693 313.893 381.397 312.602 382.336 311.488C383.272 310.372 384.419 309.452 385.713 308.784C387.009 308.115 388.422 307.708 389.873 307.589L416.556 305.283Z" stroke="#101010" stroke-linecap="round" stroke-linejoin="round"/>
<path d="M490.151 84.1505C489.886 80.8488 488.455 77.7494 486.112 75.407C483.77 73.0643 480.672 71.6314 477.369 71.3646C474.068 71.0977 470.779 72.0144 468.092 73.9505C465.403 75.8867 463.493 78.7158 462.701 81.932C466.207 83.549 469.285 85.9615 471.694 88.9778C474.104 91.994 475.776 95.5307 476.577 99.3065C478.483 99.2624 480.359 98.8279 482.092 98.0298C483.824 97.232 485.372 96.0874 486.646 94.6672C487.917 93.247 488.884 91.5809 489.487 89.7721C490.09 87.9633 490.315 86.0499 490.151 84.1505Z" stroke="#101010" stroke-linecap="round" stroke-linejoin="round"/>
<path d="M476.961 102.38C476.424 95.9128 473.373 89.9143 468.461 85.6722C463.551 81.43 457.173 79.2824 450.695 79.6903C444.219 80.0982 438.16 83.0291 433.82 87.854C429.482 92.6789 427.205 99.0129 427.484 105.496C432.625 104.103 437.91 103.3 443.234 103.104C443.522 104.853 443.92 106.582 444.429 108.279C444.899 109.346 445.623 109.431 446.904 107.467C449.766 103.327 455.571 109.731 448.782 114.683C451.712 119.754 455.433 124.323 459.807 128.217C465.169 126.488 469.786 122.991 472.902 118.297C476.016 113.604 477.45 107.992 476.961 102.38Z" stroke="#101010" stroke-linecap="round" stroke-linejoin="round"/>
<path d="M191.112 246.456L200.034 245.559" stroke="#101010" stroke-linecap="round" stroke-linejoin="round"/>
<path d="M215.828 243.936L224.752 243.041" stroke="#101010" stroke-linecap="round" stroke-linejoin="round"/>
<path d="M206.224 227.928L207.121 236.851" stroke="#101010" stroke-linecap="round" stroke-linejoin="round"/>
<path d="M208.743 252.646L209.639 261.567" stroke="#101010" stroke-linecap="round" stroke-linejoin="round"/>
<path d="M194.827 234.077L201.784 239.711" stroke="#101010" stroke-linecap="round" stroke-linejoin="round"/>
<path d="M214.078 249.744L221.037 255.42" stroke="#101010" stroke-linecap="round" stroke-linejoin="round"/>
<path d="M218.605 231.642L212.969 238.602" stroke="#101010" stroke-linecap="round" stroke-linejoin="round"/>
<path d="M202.936 250.896L197.259 257.855" stroke="#101010" stroke-linecap="round" stroke-linejoin="round"/>
<path d="M397.816 144.257L392.641 131.621C395.804 126.918 397.334 121.304 396.994 115.646C396.056 100.796 382.266 89.2647 365.832 89.735C349.054 90.203 335.821 103.01 336.289 118.337C336.755 134.517 351.891 146.1 368.426 145.125C374.349 144.752 380.061 142.782 384.955 139.424L397.816 144.257Z" stroke="#101010" stroke-linecap="round" stroke-linejoin="round"/>
<path d="M299.458 137.811C298.669 138.567 297.673 139.072 296.597 139.262C295.521 139.452 294.412 139.319 293.411 138.879C292.411 138.439 291.563 137.712 290.976 136.791C290.388 135.869 290.087 134.794 290.111 133.701C290.134 132.608 290.481 131.547 291.108 130.652C291.735 129.756 292.613 129.067 293.632 128.67C294.65 128.274 295.764 128.189 296.831 128.425C297.898 128.662 298.871 129.209 299.627 129.999C300.637 131.059 301.186 132.476 301.155 133.94C301.123 135.403 300.513 136.795 299.458 137.811Z" stroke="#101010" stroke-linecap="round" stroke-linejoin="round"/>
<path d="M527.76 64.9827L529.681 88.2927" stroke="#101010" stroke-linecap="round" stroke-linejoin="round"/>
<path d="M540.396 75.6545L517.088 77.6187" stroke="#101010" stroke-linecap="round" stroke-linejoin="round"/>
<path d="M210.023 322.997C208.399 321.006 206.302 319.451 203.924 318.474C199.784 316.978 195.722 318.301 190.898 319.669C181.178 322.369 170.759 328.233 165.291 324.185" stroke="#101010" stroke-linecap="round" stroke-linejoin="round"/>
<path d="M309.703 326.412L309.232 309.081" stroke="#101010" stroke-linecap="round" stroke-linejoin="round"/>
<g filter="url(#filter0_d_22_377)">
<rect x="48" y="508" width="216" height="68" rx="6" fill="white"/>
</g>
<circle cx="83" cy="542" r="20" fill="#FF6600"/>
<circle cx="115" cy="542" r="22" fill="#B478EC" stroke="white" stroke-width="4"/>
<circle cx="147" cy="542" r="22" fill="#A6FF00" stroke="white" stroke-width="4"/>
<rect x="179" y="528" width="62" height="14" rx="2" fill="#F5DED1"/>
<rect x="179" y="550" width="51" height="6" rx="3" fill="#F5DED1"/>
<defs>
<filter id="filter0_d_22_377" x="0" y="484" width="312" height="164" filterUnits="userSpaceOnUse" color-interpolation-filters="sRGB">
<feFlood flood-opacity="0" result="BackgroundImageFix"/>
<feColorMatrix in="SourceAlpha" type="matrix" values="0 0 0 0 0 0 0 0 0 0 0 0 0 0 0 0 0 0 127 0" result="hardAlpha"/>
<feOffset dy="24"/>
<feGaussianBlur stdDeviation="24"/>
<feColorMatrix type="matrix" values="0 0 0 0 0.334635 0 0 0 0 0.117122 0 0 0 0 0 0 0 0 0.0818897 0"/>
<feBlend mode="normal" in2="BackgroundImageFix" result="effect1_dropShadow_22_377"/>
<feBlend mode="normal" in="SourceGraphic" in2="effect1_dropShadow_22_377" result="shape"/>
</filter>
</defs>
</svg>
