<svg width="20" height="21" viewBox="0 0 20 21" fill="none" xmlns="http://www.w3.org/2000/svg">
<path d="M0.00195312 10.9347C0.00251636 13.316 0.852424 15.619 2.39892 17.4299C3.94541 19.2407 6.08707 20.4405 8.43895 20.8137V13.8247H5.90195V10.9347H8.44195V8.7347C8.38587 8.21979 8.44385 7.69884 8.61177 7.20886C8.7797 6.71888 9.05345 6.27189 9.41359 5.89963C9.77373 5.52737 10.2114 5.23897 10.6956 5.05492C11.1797 4.87087 11.6985 4.79568 12.215 4.8347C12.965 4.8467 13.715 4.9137 14.455 5.0347V7.4937H13.191C12.9761 7.46556 12.7577 7.48606 12.5519 7.55368C12.346 7.6213 12.158 7.73431 12.0017 7.88436C11.8454 8.03442 11.7249 8.21768 11.6489 8.42059C11.573 8.62351 11.5436 8.8409 11.563 9.0567V10.9347H14.334L13.891 13.8257H11.563V20.8137C13.4506 20.5154 15.2132 19.6824 16.6421 18.4135C18.071 17.1445 19.1064 15.4927 19.6257 13.6535C20.145 11.8144 20.1264 9.86494 19.5721 8.03603C19.0179 6.20712 17.9512 4.57533 16.4983 3.33384C15.0455 2.09235 13.2673 1.29317 11.3743 1.0309C9.48135 0.768637 7.55287 1.05428 5.81721 1.854C4.08154 2.65373 2.61137 3.93405 1.58076 5.54338C0.550147 7.15271 0.0022565 9.02365 0.00195312 10.9347Z" fill="black"/>
</svg>
