<svg width="450" height="450" viewBox="0 0 450 450" fill="none" xmlns="http://www.w3.org/2000/svg">
<rect width="450" height="450" rx="30" fill="white"/>
<path d="M213.84 39.744C197.061 40.212 183.829 53.019 184.297 68.346C184.81 86.1885 203.166 98.442 221.566 94.428L220.583 82.8585C220.369 80.941 220.535 79.0002 221.072 77.1469C221.608 75.2938 222.505 73.5644 223.71 72.0578C224.915 70.5512 226.406 69.2968 228.096 68.3665C229.786 67.4363 231.644 66.8482 233.561 66.636L244.96 65.655C244.021 50.8005 230.274 39.2737 213.84 39.744Z" fill="#A6FF00"/>
<path fill-rule="evenodd" clip-rule="evenodd" d="M197.959 339.381L334.734 327.854C338.469 327.535 341.925 325.746 344.342 322.88C346.761 320.013 347.942 316.305 347.627 312.57L339.687 219.294C339.367 215.559 337.578 212.104 334.712 209.687C331.848 207.27 328.14 206.088 324.405 206.402L251.325 212.551C250.033 214.52 249.192 215.546 247.252 217.071C245.171 218.662 242.743 219.736 240.165 220.203C237.588 220.67 234.936 220.517 232.429 219.757C229.923 218.997 227.632 217.651 225.749 215.831C225.416 215.503 225.083 215.174 224.751 214.843L201.952 216.758C209.515 243.599 210.309 262.219 210.865 288.812C211.325 296.629 210.255 304.461 207.715 311.866L197.959 339.381ZM277.616 278.676L291.406 285.122L288.929 255.836L276.421 264.544C275.982 261.785 274.513 259.297 272.31 257.578C270.108 255.859 267.338 255.04 264.555 255.283L237.872 257.589C236.421 257.708 235.008 258.116 233.712 258.784C232.418 259.452 231.27 260.372 230.334 261.488C229.396 262.602 228.692 263.894 228.255 265.284C227.821 266.672 227.666 268.135 227.799 269.586L228.865 281.961C228.984 283.412 229.392 284.825 230.06 286.119C230.728 287.413 231.648 288.563 232.764 289.499C233.878 290.435 235.17 291.141 236.558 291.577C237.948 292.012 239.411 292.167 240.862 292.034L267.5 289.816C268.949 289.692 270.362 289.283 271.653 288.612C272.945 287.942 274.09 287.021 275.026 285.908C275.962 284.794 276.669 283.505 277.105 282.116C277.456 281 277.629 279.837 277.616 278.672V278.676Z" fill="#00BFBF"/>
<path d="M377.851 219.679C377.968 220.698 377.88 221.73 377.595 222.716C377.309 223.701 376.832 224.621 376.191 225.421C375.547 226.222 374.753 226.885 373.853 227.376C372.953 227.869 371.963 228.177 370.944 228.283C369.922 228.391 368.892 228.294 367.908 228.001C366.925 227.707 366.009 227.223 365.215 226.573C364.421 225.922 363.764 225.124 363.28 224.219C362.796 223.314 362.497 222.322 362.398 221.301L361.161 209.601C360.965 207.562 361.581 205.527 362.877 203.94C364.176 202.354 366.045 201.344 368.084 201.13C370.12 200.916 372.161 201.516 373.758 202.798C375.356 204.081 376.382 205.943 376.614 207.979L377.851 219.679Z" fill="#FF5C00"/>
<path d="M292.217 78.6758C292.878 80.2283 293.38 81.8449 293.711 83.4998C294.991 80.8108 295.747 77.902 295.936 74.9295C294.611 76.3808 293.371 77.6093 292.217 78.6758Z" fill="#101010"/>
<path d="M176.144 137.374C176.511 139.393 177.203 141.339 178.193 143.136C181.481 143.136 185.11 142.711 186.005 141.388C186.134 141.163 186.262 140.918 186.39 140.661C185.153 143.1 180.675 140.625 176.144 137.374Z" fill="#101010"/>
<path d="M63.146 232.315C55.2058 220.916 4.70462 262.539 11.9609 273.04L13.1984 274.149C23.7013 279.999 69.3358 241.281 63.146 232.315Z" fill="#101010"/>
<path d="M149.548 379.251C139.171 384.185 171.263 442.075 181.048 433.852C186.903 425.356 157.745 375.325 149.548 379.251Z" fill="#101010"/>
<path d="M51.9182 268.515C51.7182 269.251 51.6608 270.02 51.7494 270.779C52.1769 273.51 55.6757 273.638 58.0247 272.997C56.3797 271.033 54.2847 269.496 51.9182 268.515Z" fill="#101010"/>
<path d="M74.585 246.231C76.2072 248.238 77.8722 250.243 79.3662 252.081C79.6164 251.366 79.7744 250.619 79.8365 249.863C79.8792 249.221 79.7546 248.578 79.4749 248C79.1952 247.419 78.77 246.924 78.2408 246.557C77.7118 246.191 77.0966 245.97 76.4561 245.912C75.8153 245.855 75.1706 245.966 74.585 246.231Z" fill="#101010"/>
<path d="M152.28 159.75C151.807 159.801 151.359 159.991 150.994 160.296C150.629 160.601 150.363 161.007 150.228 161.463C150.094 161.92 150.099 162.406 150.241 162.86C150.383 163.314 150.656 163.715 151.026 164.014C151.397 164.313 151.847 164.495 152.321 164.537C152.795 164.58 153.271 164.481 153.688 164.253C154.106 164.025 154.446 163.679 154.667 163.257C154.888 162.836 154.978 162.358 154.928 161.885C154.899 161.569 154.806 161.263 154.656 160.983C154.506 160.704 154.302 160.457 154.055 160.258C153.808 160.059 153.524 159.911 153.219 159.824C152.914 159.737 152.594 159.712 152.28 159.75Z" fill="#101010"/>
<path d="M135.204 179.593C134.731 179.644 134.284 179.833 133.919 180.138C133.554 180.443 133.288 180.85 133.153 181.306C133.019 181.762 133.023 182.248 133.165 182.703C133.308 183.156 133.581 183.558 133.951 183.857C134.322 184.155 134.772 184.337 135.246 184.38C135.72 184.422 136.195 184.323 136.613 184.096C137.031 183.868 137.371 183.521 137.592 183.1C137.812 182.678 137.903 182.201 137.853 181.728C137.819 181.414 137.725 181.109 137.574 180.831C137.422 180.554 137.218 180.309 136.972 180.11C136.726 179.912 136.443 179.764 136.14 179.675C135.836 179.586 135.518 179.558 135.204 179.593Z" fill="#101010"/>
<path d="M145.323 205.805C144.85 205.856 144.402 206.045 144.037 206.35C143.671 206.655 143.404 207.061 143.27 207.517C143.135 207.974 143.139 208.46 143.281 208.914C143.423 209.368 143.696 209.77 144.067 210.069C144.437 210.368 144.888 210.55 145.361 210.593C145.835 210.635 146.311 210.536 146.729 210.309C147.147 210.081 147.487 209.734 147.708 209.313C147.929 208.891 148.019 208.414 147.969 207.94C147.935 207.626 147.84 207.322 147.689 207.045C147.538 206.768 147.334 206.523 147.088 206.325C146.843 206.126 146.56 205.978 146.257 205.889C145.954 205.8 145.637 205.771 145.323 205.805Z" fill="#101010"/>
<path d="M123.124 175.068C122.651 175.118 122.204 175.308 121.838 175.613C121.473 175.917 121.206 176.324 121.072 176.78C120.937 177.237 120.941 177.723 121.083 178.177C121.225 178.631 121.498 179.033 121.868 179.332C122.239 179.63 122.689 179.813 123.163 179.855C123.637 179.898 124.113 179.799 124.531 179.571C124.948 179.343 125.289 178.997 125.51 178.575C125.73 178.154 125.821 177.676 125.77 177.203C125.737 176.889 125.642 176.585 125.491 176.308C125.34 176.03 125.136 175.786 124.89 175.587C124.644 175.389 124.362 175.241 124.059 175.152C123.756 175.063 123.438 175.034 123.124 175.068Z" fill="#101010"/>
<path d="M172.602 169.135C172.129 169.185 171.681 169.375 171.315 169.68C170.95 169.985 170.683 170.391 170.549 170.847C170.415 171.304 170.419 171.79 170.561 172.244C170.703 172.699 170.976 173.1 171.347 173.399C171.717 173.698 172.168 173.88 172.642 173.922C173.116 173.965 173.592 173.865 174.01 173.637C174.427 173.409 174.768 173.062 174.988 172.64C175.209 172.219 175.299 171.741 175.248 171.268C175.214 170.954 175.119 170.65 174.968 170.373C174.817 170.096 174.612 169.851 174.367 169.653C174.121 169.455 173.839 169.307 173.536 169.218C173.233 169.129 172.916 169.101 172.602 169.135Z" fill="#101010"/>
<path d="M158.684 188.602C158.21 188.653 157.763 188.843 157.398 189.148C157.033 189.453 156.767 189.859 156.632 190.316C156.499 190.772 156.503 191.258 156.645 191.712C156.787 192.166 157.061 192.568 157.432 192.866C157.802 193.165 158.253 193.347 158.727 193.389C159.201 193.431 159.676 193.332 160.094 193.104C160.511 192.876 160.852 192.529 161.072 192.107C161.293 191.685 161.383 191.208 161.332 190.735C161.299 190.421 161.203 190.116 161.052 189.839C160.901 189.562 160.696 189.317 160.45 189.119C160.204 188.92 159.922 188.773 159.618 188.684C159.315 188.595 158.997 188.567 158.684 188.602Z" fill="#101010"/>
<path d="M183.658 197.651C183.186 197.702 182.738 197.891 182.372 198.196C182.007 198.501 181.74 198.907 181.606 199.363C181.471 199.82 181.475 200.306 181.617 200.76C181.759 201.214 182.032 201.616 182.403 201.915C182.773 202.214 183.223 202.396 183.697 202.439C184.171 202.481 184.647 202.382 185.065 202.155C185.483 201.927 185.823 201.58 186.044 201.159C186.265 200.737 186.355 200.26 186.304 199.787C186.271 199.472 186.176 199.168 186.025 198.891C185.874 198.614 185.67 198.369 185.424 198.171C185.178 197.972 184.896 197.824 184.593 197.735C184.29 197.646 183.973 197.618 183.658 197.651Z" fill="#101010"/>
<path d="M194.031 156.242C193.558 156.293 193.11 156.482 192.745 156.787C192.379 157.092 192.113 157.498 191.978 157.954C191.843 158.411 191.847 158.897 191.989 159.351C192.131 159.805 192.404 160.207 192.775 160.506C193.145 160.805 193.595 160.987 194.069 161.03C194.543 161.072 195.019 160.973 195.437 160.746C195.855 160.518 196.195 160.171 196.416 159.75C196.637 159.328 196.727 158.851 196.677 158.378C196.647 158.062 196.555 157.755 196.405 157.476C196.256 157.197 196.051 156.95 195.805 156.751C195.558 156.552 195.274 156.405 194.969 156.317C194.664 156.23 194.345 156.204 194.031 156.242Z" fill="#101010"/>
<path d="M216.401 196.625C215.928 196.676 215.48 196.865 215.115 197.17C214.749 197.475 214.483 197.881 214.348 198.337C214.214 198.794 214.217 199.28 214.359 199.734C214.501 200.188 214.774 200.59 215.145 200.889C215.515 201.188 215.966 201.37 216.44 201.413C216.913 201.455 217.389 201.356 217.807 201.129C218.225 200.901 218.565 200.554 218.786 200.133C219.007 199.711 219.098 199.234 219.047 198.761C218.979 198.127 218.662 197.546 218.166 197.145C217.67 196.745 217.035 196.558 216.401 196.625Z" fill="#101010"/>
<path d="M216.486 174.213C216.8 174.18 217.104 174.085 217.382 173.934C217.659 173.783 217.904 173.579 218.102 173.333C218.301 173.087 218.449 172.805 218.538 172.502C218.626 172.199 218.655 171.881 218.621 171.567C218.537 170.946 218.214 170.383 217.721 169.996C217.228 169.609 216.604 169.431 215.981 169.497C215.358 169.564 214.786 169.872 214.386 170.354C213.986 170.836 213.79 171.455 213.84 172.08C213.873 172.394 213.967 172.699 214.118 172.976C214.27 173.253 214.474 173.498 214.72 173.696C214.966 173.894 215.248 174.042 215.551 174.131C215.854 174.219 216.172 174.247 216.486 174.213Z" fill="#101010"/>
<path d="M242.57 201.706C242.098 201.756 241.65 201.946 241.283 202.25C240.919 202.555 240.651 202.961 240.518 203.418C240.383 203.874 240.388 204.36 240.529 204.814C240.671 205.269 240.943 205.67 241.315 205.969C241.684 206.268 242.136 206.45 242.608 206.493C243.083 206.536 243.558 206.437 243.976 206.209C244.395 205.981 244.735 205.635 244.955 205.213C245.176 204.792 245.266 204.314 245.216 203.841C245.182 203.527 245.088 203.223 244.937 202.945C244.786 202.668 244.582 202.423 244.336 202.225C244.089 202.027 243.808 201.879 243.504 201.79C243.202 201.701 242.883 201.672 242.57 201.706Z" fill="#101010"/>
<path d="M245.558 176.265C245.086 176.315 244.638 176.505 244.271 176.81C243.907 177.115 243.639 177.521 243.506 177.978C243.371 178.434 243.376 178.92 243.518 179.375C243.659 179.829 243.934 180.231 244.303 180.529C244.674 180.828 245.124 181.01 245.599 181.053C246.074 181.095 246.548 180.996 246.967 180.768C247.383 180.539 247.725 180.192 247.946 179.771C248.166 179.349 248.256 178.871 248.204 178.398C248.171 178.084 248.076 177.78 247.925 177.503C247.775 177.226 247.57 176.981 247.325 176.783C247.077 176.585 246.796 176.437 246.492 176.348C246.191 176.259 245.871 176.231 245.558 176.265Z" fill="#101010"/>
<path d="M266.902 167.726C266.853 167.253 266.661 166.806 266.358 166.44C266.052 166.075 265.647 165.808 265.19 165.674C264.733 165.539 264.247 165.543 263.793 165.685C263.338 165.827 262.938 166.1 262.638 166.47C262.339 166.84 262.157 167.291 262.114 167.765C262.071 168.239 262.17 168.715 262.398 169.132C262.627 169.55 262.974 169.891 263.394 170.112C263.815 170.332 264.294 170.423 264.767 170.372C265.082 170.339 265.386 170.244 265.662 170.093C265.939 169.942 266.184 169.738 266.382 169.492C266.58 169.246 266.729 168.964 266.819 168.661C266.907 168.358 266.936 168.04 266.902 167.726Z" fill="#101010"/>
<path d="M338.151 34.1505C337.89 30.8405 336.459 27.7317 334.112 25.3832C331.763 23.0346 328.656 21.6002 325.346 21.3378C322.036 21.0753 318.742 22.0021 316.053 23.9515C313.365 25.9007 311.461 28.7449 310.683 31.9725C306.826 30.1777 302.571 29.4062 298.33 29.7324C294.089 30.0587 290.005 31.4717 286.468 33.8353C282.931 36.1989 280.062 39.4333 278.139 43.2272C276.215 47.0212 275.301 51.2465 275.484 55.4963C280.625 54.1026 285.91 53.3 291.234 53.1045C291.522 54.8532 291.92 56.5817 292.428 58.2795C292.899 59.346 293.623 59.4315 294.903 57.4673C297.765 53.3273 303.57 59.7308 296.782 64.683C299.712 69.7536 303.433 74.3227 307.807 78.2168C313.169 76.4897 317.786 72.9947 320.904 68.303C324.021 63.6116 325.454 58.0012 324.97 52.389C324.882 51.3592 324.732 50.3359 324.52 49.3245C324.828 49.3261 325.134 49.3088 325.44 49.2728C327.267 49.1144 329.047 48.5978 330.674 47.752C332.303 46.9064 333.747 45.7484 334.926 44.3441C336.108 42.9399 337.001 41.317 337.552 39.5678C338.106 37.8189 338.308 35.978 338.151 34.1505Z" fill="#101010"/>
<path d="M157.232 259.081L157.703 276.406L163.8 270.9C161.141 267.239 158.936 263.273 157.232 259.081Z" fill="#101010"/>
<path d="M196.423 179.978L202.484 188.602L202.826 199.658L196.423 179.978Z" fill="#101010"/>
<path d="M185.962 121.536C186.705 121.4 187.375 121.004 187.852 120.419C188.33 119.834 188.584 119.099 188.568 118.344C188.553 117.589 188.269 116.864 187.768 116.299C187.267 115.735 186.582 115.366 185.834 115.261C186.412 114.838 186.832 114.233 187.024 113.543C187.217 112.853 187.171 112.119 186.895 111.458C186.619 110.797 186.129 110.248 185.503 109.9C184.877 109.552 184.152 109.425 183.445 109.539C183.807 108.938 183.961 108.233 183.882 107.536C183.803 106.838 183.497 106.186 183.01 105.68C182.523 105.174 181.882 104.843 181.188 104.738C180.494 104.633 179.784 104.76 179.17 105.1C179.317 104.384 179.214 103.639 178.878 102.989C178.543 102.34 177.994 101.825 177.325 101.531C176.656 101.236 175.906 101.18 175.201 101.371C174.495 101.563 173.876 101.99 173.448 102.582C173.379 101.813 173.044 101.091 172.5 100.542C171.956 99.9936 171.238 99.6518 170.469 99.5758C169.7 99.5 168.929 99.6946 168.288 100.126C167.647 100.558 167.177 101.2 166.959 101.941C166.657 101.276 166.136 100.735 165.484 100.407C164.831 100.079 164.087 99.9844 163.373 100.139C162.659 100.294 162.02 100.688 161.562 101.257C161.104 101.825 160.854 102.534 160.855 103.264C160.322 102.806 159.653 102.535 158.952 102.495C158.251 102.454 157.555 102.645 156.973 103.038C156.391 103.431 155.954 104.004 155.729 104.67C155.505 105.336 155.506 106.057 155.731 106.722C155.067 106.475 154.34 106.456 153.664 106.669C152.989 106.882 152.403 107.315 152.002 107.898C151.599 108.482 151.404 109.183 151.445 109.89C151.487 110.597 151.763 111.27 152.23 111.803C151.477 111.761 150.733 111.987 150.13 112.441C149.528 112.895 149.105 113.547 148.936 114.283C148.768 115.018 148.865 115.789 149.21 116.46C149.555 117.131 150.126 117.659 150.822 117.95C150.082 118.093 149.417 118.494 148.945 119.082C148.474 119.67 148.226 120.406 148.246 121.16C148.267 121.913 148.554 122.635 149.057 123.196C149.56 123.757 150.246 124.122 150.993 124.225C150.427 124.654 150.021 125.261 149.839 125.948C149.657 126.635 149.711 127.363 149.991 128.016C150.271 128.669 150.761 129.209 151.384 129.551C152.007 129.894 152.726 130.018 153.427 129.904C153.073 130.508 152.928 131.212 153.014 131.907C153.1 132.602 153.412 133.25 153.903 133.75C154.393 134.25 155.034 134.575 155.727 134.674C156.421 134.774 157.127 134.642 157.738 134.3C157.597 135.015 157.705 135.756 158.043 136.401C158.382 137.046 158.932 137.555 159.6 137.844C160.268 138.134 161.016 138.186 161.718 137.991C162.419 137.796 163.034 137.367 163.458 136.775C163.495 137.308 163.664 137.824 163.949 138.276C164.234 138.727 164.627 139.101 165.093 139.364C165.558 139.626 166.081 139.769 166.616 139.779C167.15 139.79 167.678 139.668 168.154 139.424C168.538 138.953 173.779 132.507 175.626 130.158C171.101 125.037 174.856 121.707 177.291 125.08C178.571 126.916 180.441 126.403 179.338 120.938C180.753 120.322 182.108 119.58 183.388 118.719C184.288 122.175 184.963 125.123 185.521 127.598C186.17 127.428 186.748 127.06 187.177 126.544C187.605 126.029 187.862 125.393 187.91 124.724C187.959 124.056 187.797 123.39 187.448 122.818C187.099 122.246 186.579 121.798 185.962 121.536Z" fill="#101010"/>
<path d="M185.535 127.598C184.982 125.123 184.298 122.177 183.402 118.719C182.122 119.58 180.767 120.322 179.352 120.938C180.464 126.403 178.598 126.905 177.305 125.08C174.897 121.687 171.115 125.037 175.64 130.158C173.804 132.507 168.552 138.953 168.167 139.424C167.692 139.668 167.164 139.79 166.629 139.779C166.095 139.769 165.572 139.626 165.106 139.364C164.641 139.101 164.248 138.727 163.963 138.276C163.677 137.824 163.509 137.308 163.472 136.775C163.047 137.367 162.433 137.796 161.731 137.991C161.029 138.185 160.282 138.134 159.614 137.844C158.945 137.555 158.396 137.046 158.057 136.401C157.718 135.756 157.611 135.015 157.752 134.3C157.141 134.642 156.434 134.773 155.741 134.674C155.048 134.575 154.407 134.25 153.916 133.75C153.426 133.25 153.114 132.602 153.028 131.907C152.942 131.212 153.087 130.508 153.441 129.904C152.74 130.018 152.02 129.894 151.398 129.551C150.775 129.209 150.285 128.669 150.005 128.016C149.725 127.363 149.671 126.635 149.853 125.948C150.034 125.261 150.44 124.654 151.007 124.225C150.26 124.122 149.574 123.757 149.071 123.196C148.568 122.635 148.281 121.913 148.26 121.16C148.239 120.406 148.487 119.67 148.959 119.082C149.43 118.494 150.096 118.093 150.836 117.95C150.139 117.659 149.568 117.131 149.223 116.46C148.878 115.789 148.782 115.018 148.95 114.283C149.119 113.547 149.542 112.895 150.144 112.441C150.747 111.987 151.491 111.761 152.244 111.803C151.777 111.27 151.5 110.597 151.459 109.89C151.417 109.182 151.613 108.482 152.015 107.898C152.417 107.315 153.002 106.882 153.678 106.669C154.354 106.456 155.081 106.475 155.745 106.722C155.526 106.058 155.529 105.342 155.756 104.68C155.982 104.019 156.418 103.45 156.997 103.06C157.577 102.669 158.268 102.479 158.965 102.518C159.663 102.557 160.329 102.823 160.862 103.275C160.861 102.545 161.111 101.836 161.569 101.268C162.027 100.699 162.666 100.305 163.38 100.15C164.093 99.9956 164.838 100.09 165.491 100.418C166.143 100.746 166.664 101.287 166.966 101.952C167.184 101.211 167.654 100.569 168.295 100.137C168.935 99.7056 169.707 99.511 170.476 99.587C171.245 99.6631 171.963 100.005 172.507 100.554C173.05 101.102 173.386 101.824 173.455 102.593C173.883 102.001 174.502 101.574 175.208 101.382C175.913 101.191 176.663 101.247 177.332 101.542C178.001 101.836 178.549 102.351 178.885 103.001C179.221 103.65 179.323 104.395 179.177 105.111C179.791 104.772 180.501 104.645 181.195 104.749C181.889 104.854 182.529 105.185 183.017 105.691C183.504 106.197 183.81 106.849 183.889 107.547C183.967 108.245 183.814 108.949 183.452 109.55C184.159 109.436 184.884 109.563 185.51 109.911C186.136 110.259 186.626 110.808 186.902 111.469C187.178 112.13 187.224 112.865 187.031 113.555C186.839 114.244 186.419 114.849 185.841 115.272C186.589 115.378 187.274 115.746 187.775 116.311C188.276 116.876 188.56 117.6 188.575 118.355C188.591 119.11 188.337 119.846 187.859 120.431C187.382 121.015 186.712 121.411 185.969 121.547C186.582 121.811 187.097 122.259 187.444 122.828C187.791 123.398 187.951 124.062 187.904 124.727C187.856 125.392 187.602 126.026 187.178 126.54C186.753 127.055 186.179 127.424 185.535 127.598Z" stroke="#101010" stroke-linecap="round" stroke-linejoin="round"/>
<path d="M186.049 110.095L197.49 109.156C198.856 109.037 200.232 109.189 201.539 109.604C202.846 110.018 204.058 110.687 205.105 111.572C206.153 112.457 207.015 113.54 207.642 114.759C208.27 115.978 208.649 117.31 208.76 118.676L211.877 156.114" stroke="#101010" stroke-linecap="round" stroke-linejoin="round"/>
<path d="M203.252 199.06L205.002 198.931C206.531 198.914 208.024 198.471 209.313 197.651" stroke="#101010" stroke-linecap="round" stroke-linejoin="round"/>
<path d="M124.021 205.711L101.055 207.675C98.2991 207.906 95.5644 207.033 93.4514 205.248C91.3387 203.463 90.0209 200.913 89.7871 198.158L83.9371 129.17C83.7053 126.413 84.5781 123.677 86.3633 121.564C88.1484 119.45 90.7001 118.132 93.4568 117.9L149.611 113.169" stroke="#101010" stroke-linecap="round" stroke-linejoin="round"/>
<path d="M197.96 339.381L334.735 327.854C338.47 327.535 341.926 325.746 344.343 322.879C346.762 320.013 347.943 316.305 347.628 312.57L339.688 219.294C339.368 215.559 337.579 212.104 334.713 209.687C331.849 207.27 328.141 206.088 324.406 206.402L251.326 212.551" stroke="#101010" stroke-linecap="round" stroke-linejoin="round"/>
<path d="M202.015 216.734L224.726 214.812" stroke="#101010" stroke-linecap="round" stroke-linejoin="round"/>
<path d="M275.698 63L233.519 66.6293C229.656 67.0604 226.121 69.005 223.688 72.0371C221.256 75.0694 220.124 78.9419 220.541 82.8068L228.994 180.097" stroke="#101010" stroke-linecap="round" stroke-linejoin="round"/>
<path d="M259.475 194.364L387.414 183.307C390.254 183.051 392.951 181.944 395.152 180.131C397.352 178.319 398.954 175.885 399.751 173.146" stroke="#101010" stroke-linecap="round" stroke-linejoin="round"/>
<path d="M395.654 112.187L391.853 68.004C391.599 64.1223 389.817 60.4998 386.897 57.9308C383.974 55.3617 380.153 54.0556 376.272 54.2993L324.747 58.7408" stroke="#101010" stroke-linecap="round" stroke-linejoin="round"/>
<path d="M348.823 125.037C344.426 131.951 335.163 152.145 329.783 165.249C340.111 169.286 348.814 176.626 354.533 186.124" stroke="#101010" stroke-linecap="round" stroke-linejoin="round"/>
<path d="M280.051 147.15C281.612 155.19 283.651 163.13 286.155 170.928C283.806 179.764 282.868 187.619 281.759 192.443" stroke="#101010" stroke-linecap="round" stroke-linejoin="round"/>
<path d="M284.149 114.28C280.924 119.25 279.043 124.971 278.686 130.885" stroke="#101010" stroke-linecap="round" stroke-linejoin="round"/>
<path d="M329.74 165.292C317.703 173.959 294.948 178.567 286.155 170.928" stroke="#101010" stroke-linecap="round" stroke-linejoin="round"/>
<path d="M324.277 168.579C330.699 173.601 335.845 180.065 339.301 187.448" stroke="#101010" stroke-linecap="round" stroke-linejoin="round"/>
<path d="M293.74 83.4503C295 80.7725 295.745 77.8822 295.936 74.9295C294.613 76.3808 293.371 77.6093 292.217 78.6758" stroke="#101010" stroke-linecap="round" stroke-linejoin="round"/>
<path d="M342.718 136.478L358.002 162.304C369.826 183.735 394.452 190.476 409.912 158.463C417.209 143.35 420.669 133.191 427.073 122.688C416.601 119.703 407.066 114.09 399.375 106.382C392.268 117.08 385.947 128.279 380.462 139.892C349.513 74.1083 345.713 85.707 325.094 84.5663C318.803 84.3928 312.744 82.1579 307.848 78.2055" stroke="#101010" stroke-linecap="round" stroke-linejoin="round"/>
<path d="M262.762 136.989C268.866 116.242 282.541 106.652 288.545 100.107C291.368 97.398 293.251 93.854 293.911 89.9964C294.572 86.1385 293.978 82.1707 292.216 78.6757C281.459 88.1527 275.526 80.5972 275.526 55.5007" stroke="#101010" stroke-linecap="round" stroke-linejoin="round"/>
<path d="M327.692 84.6517C319.135 91.5282 311.413 99.3816 304.681 108.052C303.626 109.365 302.249 110.383 300.683 111.004C299.117 111.626 297.416 111.831 295.747 111.599C294.079 111.367 292.498 110.706 291.161 109.681C289.825 108.656 288.776 107.301 288.119 105.75C287.57 104.467 287.093 103.275 286.668 102.121" stroke="#101010" stroke-linecap="round" stroke-linejoin="round"/>
<path d="M380.455 139.891L375.377 151.333" stroke="#101010" stroke-linecap="round" stroke-linejoin="round"/>
<path d="M168.161 139.423C162.194 147.073 157.97 146.572 146.732 151.589C123.849 161.793 131.704 202.689 131.704 202.689" stroke="#101010" stroke-linecap="round" stroke-linejoin="round"/>
<path d="M185.535 127.598C187.4 136.244 187.232 139.554 186.005 141.343C185.105 142.668 181.481 143.093 178.193 143.093" stroke="#101010" stroke-linecap="round" stroke-linejoin="round"/>
<path d="M186.397 140.625C185.202 143.1 180.671 140.625 176.144 137.338C176.999 141.266 177.595 145.973 180.797 146.174C209.178 147.953 212.175 151.169 236.806 193.424" stroke="#101010" stroke-linecap="round" stroke-linejoin="round"/>
<path d="M233.775 188.174C234.842 185.186 241.459 171.567 245.302 159.273C253.717 158.367 262.175 160.569 269.08 165.463C266.432 178.013 258.75 197.055 252.131 211.05C251.006 213.415 249.334 215.479 247.253 217.071C245.172 218.662 242.744 219.736 240.165 220.203C237.589 220.67 234.936 220.517 232.43 219.757C229.923 218.997 227.633 217.651 225.75 215.831C214.697 204.964 204.877 192.912 196.466 179.892" stroke="#101010" stroke-linecap="round" stroke-linejoin="round"/>
<path d="M196.509 179.892L202.827 199.658" stroke="#101010" stroke-linecap="round" stroke-linejoin="round"/>
<path d="M149.851 215.795C162.529 219.845 184.215 218.313 201.164 213.703C203.725 208.665 202.658 188.773 202.658 188.773" stroke="#101010" stroke-linecap="round" stroke-linejoin="round"/>
<path d="M149.72 214.812C144.257 222.667 133.52 222.957 128.588 214.769C122.374 204.419 119.71 189.668 118.387 173.275C118.387 173.275 128.062 170.179 132.112 171.392" stroke="#101010" stroke-linecap="round" stroke-linejoin="round"/>
<path d="M163.8 270.9L118.721 310.815C115.739 313.439 111.908 314.892 107.937 314.908C103.966 314.921 100.123 313.497 97.1212 310.898L52.7715 272.529" stroke="#101010" stroke-linecap="round" stroke-linejoin="round"/>
<path d="M112.368 278.633L78.8135 247" stroke="#101010" stroke-linecap="round" stroke-linejoin="round"/>
<path d="M142.846 172.978C142.846 172.978 150.271 202.903 149.806 216.563C140.773 221.697 133.794 229.797 130.051 239.488C124.599 254.219 105.717 272.144 105.717 272.144" stroke="#101010" stroke-linecap="round" stroke-linejoin="round"/>
<path d="M201.161 213.703C209.527 242.177 210.359 261.178 210.935 288.749C211.395 296.566 210.325 304.396 207.785 311.803L188.235 366.786C176.278 365.531 164.784 361.481 154.681 354.962L174.233 298.953C174.61 289.386 171.4 280.024 165.233 272.7C159.128 265.264 155.304 256.219 154.22 246.659" stroke="#101010" stroke-linecap="round" stroke-linejoin="round"/>
<path d="M158.344 147.022C158.344 147.022 165.173 154.535 181.395 146.21" stroke="#101010" stroke-linecap="round" stroke-linejoin="round"/>
<path d="M121.759 172.294C121.626 165.78 120.897 159.293 119.581 152.912C118.322 148.001 116.518 143.247 114.201 138.737C110.804 132.113 111.906 130.32 117.363 136.348C122.751 143.111 127.188 150.58 130.552 158.546" stroke="#101010" stroke-linecap="round" stroke-linejoin="round"/>
<path d="M128.657 154.327C131.368 157.401 132.991 148.027 134.01 145.953C135.418 143.093 137.16 139.979 137.041 148.772C137.007 151.204 137.297 155.09 137.682 158.931" stroke="#101010" stroke-linecap="round" stroke-linejoin="round"/>
<path d="M117.021 145.015C115.783 143.649 112.971 140.92 112.154 140.148C108.424 136.58 107.681 137.837 108.104 138.573C109.724 141.413 112.762 145.787 114.179 148.473C116.447 152.825 121.051 161.109 121.307 165.377" stroke="#101010" stroke-linecap="round" stroke-linejoin="round"/>
<path d="M114.033 148.217C113.306 147.706 112.705 147.285 112.368 147.065C108.043 144.245 107.586 145.528 108.093 146.165C110.142 148.725 113.864 152.519 115.693 154.958C117.841 157.962 119.699 161.164 121.242 164.52" stroke="#101010" stroke-linecap="round" stroke-linejoin="round"/>
<path d="M267.075 164.054C269.365 157.226 272.25 150.613 275.699 144.29C278.617 139.518 282.069 135.093 285.986 131.098C291.737 125.248 291.161 122.944 283.426 127.512C275.535 132.901 268.411 139.334 262.251 146.637" stroke="#101010" stroke-linecap="round" stroke-linejoin="round"/>
<path d="M265.84 142.587C261.533 145.798 263.122 134.831 262.719 132.25C262.177 128.79 261.396 124.909 258.62 134.257C257.852 136.816 254.734 144.745 248.854 159.057" stroke="#101010" stroke-linecap="round" stroke-linejoin="round"/>
<path d="M280.947 136.775C282.697 135.709 286.54 133.787 287.649 133.234C292.773 130.671 293.108 132.289 292.473 132.892C289.848 135.387 285.219 139.001 282.868 141.386C279.075 145.235 271.512 152.485 269.805 156.926" stroke="#101010" stroke-linecap="round" stroke-linejoin="round"/>
<path d="M283.082 141.174C284.02 140.875 284.789 140.621 285.217 140.499C290.689 138.823 290.763 140.452 289.998 140.969C286.997 142.994 281.849 145.8 279.11 147.798C275.87 150.274 272.871 153.047 270.146 156.08" stroke="#101010" stroke-linecap="round" stroke-linejoin="round"/>
<path d="M63.1467 232.315C55.5484 221.4 8.97112 259.054 11.3381 271.519C11.7049 273.449 13.3744 275.177 17.2691 274.649C32.2384 272.621 68.7604 240.392 63.1467 232.315Z" stroke="#101010" stroke-linecap="round" stroke-linejoin="round"/>
<path d="M63.1465 232.315C65.4932 235.303 73.5617 244.951 79.3262 252.115" stroke="#101010" stroke-linecap="round" stroke-linejoin="round"/>
<path d="M183.531 366.19C181.731 372.976 171.628 387.871 179.388 406.958C183.364 416.732 185.664 430.985 180.288 434.572" stroke="#101010" stroke-linecap="round" stroke-linejoin="round"/>
<path d="M148.184 380.534C149.462 377.654 154.108 367.146 158.259 357.359" stroke="#101010" stroke-linecap="round" stroke-linejoin="round"/>
<path d="M149.548 379.251C140.004 383.789 165.483 430.45 177.169 434.707C180.398 435.883 181.942 433.582 181.813 430.155C181.282 415.899 156.926 375.75 149.548 379.251Z" stroke="#101010" stroke-linecap="round" stroke-linejoin="round"/>
<path d="M74.5449 246.231C75.1302 245.966 75.7743 245.855 76.4149 245.912C77.0555 245.968 77.6702 246.191 78.1992 246.557C78.7281 246.922 79.1532 247.419 79.4326 247.997C79.7123 248.578 79.8367 249.219 79.7942 249.86C79.0877 258.86 62.3679 274.277 54.8507 273.368C52.6007 273.094 51.1742 271.503 51.9257 268.475" stroke="#101010" stroke-linecap="round" stroke-linejoin="round"/>
<path d="M185.573 350.892L198.675 309.454C200.949 302.978 201.906 296.114 201.492 289.262C199.676 259.596 197.48 236.669 192.143 215.795" stroke="#101010" stroke-linecap="round" stroke-linejoin="round"/>
<path d="M160.007 339.678C169.698 347.051 181.434 351.243 193.604 351.675" stroke="#101010" stroke-linecap="round" stroke-linejoin="round"/>
<path d="M65.4082 283.457C78.3434 279.315 85.6019 269.957 89.9557 257.758" stroke="#101010" stroke-linecap="round" stroke-linejoin="round"/>
<path d="M157.232 259.081L120.904 291.269C117.916 293.931 114.058 295.409 110.056 295.425C106.054 295.441 102.184 293.994 99.1756 291.355L80.0078 274.534" stroke="#101010" stroke-linecap="round" stroke-linejoin="round"/>
<path d="M163.38 227.149C162.826 227.234 162.014 237.994 163.465 242.347C166.241 246.184 169.79 249.399 173.883 251.782C176.224 247.882 179.034 244.282 182.25 241.067C181.823 235.645 181.31 232.785 180.714 227.063C174.967 227.884 169.134 227.914 163.38 227.149Z" stroke="#101010" stroke-linecap="round" stroke-linejoin="round"/>
<path d="M139.177 224.973C141.368 225.005 143.52 225.56 145.452 226.595C141.523 228.515 137.554 238.295 137.554 238.295L128.802 242.48" stroke="#101010" stroke-linecap="round" stroke-linejoin="round"/>
<path d="M416.912 85.5C423.662 87.633 427.415 91.0913 431.762 96.642" stroke="#101010" stroke-linecap="round" stroke-linejoin="round"/>
<path d="M415.249 88.6658C417.605 91.0566 419.436 93.9121 420.627 97.0499C421.817 100.188 422.339 103.539 422.163 106.891" stroke="#101010" stroke-linecap="round" stroke-linejoin="round"/>
<path d="M428.225 92.421C430.844 88.9704 433.035 85.2147 434.75 81.2363C437.9 73.8518 439.83 75.9015 438.08 82.9013C437.61 84.78 437.142 86.4023 436.714 87.768C435.481 91.6965 434.266 95.6633 433.128 99.6368C431.919 103.858 423.903 121.707 423.903 121.707C416.39 119.7 408.578 114.237 402.474 109.199C402.602 108.943 405.849 102.969 405.972 102.753C406.634 101.559 406.915 100.192 406.778 98.8337C406.641 97.4761 406.092 96.1925 405.205 95.1548C402.118 91.4513 397.985 85.9298 399.355 84.438C401.481 82.1273 408.191 89.9415 411.777 90.4163C413.058 90.585 414.084 86.7015 414.295 85.293C414.682 82.7325 416.03 74.0205 416.131 73.17C417.06 65.2545 419.889 66.5955 419.846 73.5953C419.803 80.2553 419.803 84.5663 419.803 84.5663" stroke="#101010" stroke-linecap="round" stroke-linejoin="round"/>
<path d="M419.261 86.274C419.261 86.274 423.916 71.676 424.211 70.6928C426.526 63.054 428.954 64.8022 427.797 71.6737C426.69 78.2505 425.491 86.274 425.491 86.274" stroke="#101010" stroke-linecap="round" stroke-linejoin="round"/>
<path d="M424.351 88.623C426.578 84.1583 428.545 79.5681 430.241 74.8755C433.009 67.3605 435.043 69.2798 433.742 76.1153C433.029 80.3648 432.016 84.5588 430.711 88.6658" stroke="#101010" stroke-linecap="round" stroke-linejoin="round"/>
<path d="M377.852 219.679C377.969 220.698 377.881 221.73 377.596 222.716C377.31 223.701 376.833 224.621 376.192 225.421C375.548 226.222 374.754 226.886 373.854 227.376C372.954 227.869 371.964 228.177 370.945 228.283C369.923 228.391 368.893 228.294 367.909 228.002C366.926 227.707 366.01 227.223 365.216 226.573C364.422 225.923 363.765 225.124 363.281 224.219C362.797 223.314 362.498 222.322 362.399 221.301L361.162 209.601C360.966 207.562 361.582 205.527 362.878 203.94C364.177 202.354 366.046 201.344 368.085 201.13C370.121 200.916 372.162 201.516 373.759 202.798C375.357 204.081 376.383 205.943 376.615 207.979L377.852 219.679Z" stroke="#101010" stroke-linecap="round" stroke-linejoin="round"/>
<path d="M356.081 216.605L356.677 222.368C356.862 224.139 357.395 225.857 358.243 227.423C359.092 228.989 360.241 230.373 361.625 231.494C363.007 232.616 364.6 233.453 366.305 233.962C368.013 234.468 369.804 234.635 371.575 234.45C373.348 234.263 375.064 233.732 376.63 232.884C378.196 232.034 379.58 230.886 380.703 229.502C381.823 228.119 382.663 226.528 383.169 224.82C383.675 223.113 383.842 221.322 383.657 219.551L383.061 213.788" stroke="#101010" stroke-linecap="round" stroke-linejoin="round"/>
<path d="M371.577 234.45L372.729 245.207" stroke="#101010" stroke-linecap="round" stroke-linejoin="round"/>
<path d="M366.967 245.806L378.451 244.609" stroke="#101010" stroke-linecap="round" stroke-linejoin="round"/>
<path d="M277.617 278.676L291.407 285.122L288.93 255.836L276.422 264.544" stroke="#101010" stroke-linecap="round" stroke-linejoin="round"/>
<path d="M264.556 255.283C267.339 255.04 270.109 255.859 272.312 257.578C274.514 259.297 275.984 261.785 276.422 264.544L277.574 277.819C277.703 279.268 277.543 280.728 277.106 282.116C276.67 283.504 275.963 284.794 275.027 285.907C274.091 287.021 272.946 287.941 271.655 288.612C270.363 289.283 268.95 289.692 267.501 289.816L240.863 292.034C239.412 292.167 237.95 292.012 236.559 291.577C235.171 291.141 233.879 290.434 232.766 289.498C231.65 288.562 230.729 287.413 230.061 286.119C229.393 284.825 228.986 283.412 228.866 281.961L227.8 269.586C227.667 268.135 227.822 266.672 228.257 265.284C228.693 263.893 229.397 262.602 230.336 261.488C231.272 260.372 232.419 259.452 233.713 258.784C235.009 258.115 236.422 257.708 237.873 257.589L264.556 255.283Z" stroke="#101010" stroke-linecap="round" stroke-linejoin="round"/>
<path d="M338.151 34.1505C337.886 30.8488 336.455 27.7495 334.112 25.407C331.77 23.0643 328.672 21.6314 325.369 21.3646C322.068 21.0978 318.779 22.0144 316.092 23.9506C313.403 25.8867 311.493 28.7158 310.701 31.932C314.207 33.5491 317.285 35.9615 319.694 38.9779C322.104 41.994 323.776 45.5308 324.577 49.3065C326.483 49.2624 328.359 48.8279 330.092 48.0298C331.824 47.232 333.372 46.0874 334.646 44.6672C335.917 43.247 336.884 41.5809 337.487 39.7721C338.09 37.9633 338.315 36.0499 338.151 34.1505Z" stroke="#101010" stroke-linecap="round" stroke-linejoin="round"/>
<path d="M324.961 52.38C324.424 45.9128 321.373 39.9143 316.461 35.6722C311.551 31.43 305.173 29.2824 298.695 29.6903C292.219 30.0982 286.16 33.0291 281.82 37.854C277.482 42.6789 275.205 49.0129 275.484 55.4962C280.625 54.1026 285.91 53.3 291.234 53.1045C291.522 54.8532 291.92 56.5816 292.429 58.2795C292.899 59.346 293.623 59.4315 294.904 57.4672C297.766 53.3272 303.571 59.7307 296.782 64.683C299.712 69.7536 303.433 74.3227 307.807 78.2167C313.169 76.4876 317.786 72.9907 320.902 68.2974C324.016 63.6041 325.45 57.9924 324.961 52.38Z" stroke="#101010" stroke-linecap="round" stroke-linejoin="round"/>
<path d="M39.1123 196.457L48.0336 195.559" stroke="#101010" stroke-linecap="round" stroke-linejoin="round"/>
<path d="M63.8281 193.937L72.7516 193.041" stroke="#101010" stroke-linecap="round" stroke-linejoin="round"/>
<path d="M54.2236 177.928L55.1214 186.851" stroke="#101010" stroke-linecap="round" stroke-linejoin="round"/>
<path d="M56.7432 202.646L57.6387 211.567" stroke="#101010" stroke-linecap="round" stroke-linejoin="round"/>
<path d="M42.8271 184.077L49.7841 189.711" stroke="#101010" stroke-linecap="round" stroke-linejoin="round"/>
<path d="M62.0781 199.744L69.0374 205.421" stroke="#101010" stroke-linecap="round" stroke-linejoin="round"/>
<path d="M66.605 181.643L60.9688 188.602" stroke="#101010" stroke-linecap="round" stroke-linejoin="round"/>
<path d="M50.9355 200.896L45.2588 207.855" stroke="#101010" stroke-linecap="round" stroke-linejoin="round"/>
<path d="M245.816 94.257L240.641 81.621C243.804 76.9178 245.334 71.3045 244.994 65.646C244.056 50.796 230.266 39.2648 213.832 39.735C197.054 40.203 183.821 53.01 184.289 68.337C184.755 84.5168 199.891 96.0998 216.426 95.1255C222.349 94.752 228.061 92.7819 232.955 89.424L245.816 94.257Z" stroke="#101010" stroke-linecap="round" stroke-linejoin="round"/>
<path d="M147.458 87.8107C146.669 88.5667 145.673 89.0719 144.597 89.262C143.521 89.4521 142.412 89.3189 141.411 88.879C140.411 88.4392 139.563 87.7124 138.976 86.7906C138.388 85.869 138.087 84.7937 138.111 83.7009C138.134 82.6083 138.481 81.547 139.108 80.6517C139.735 79.7562 140.613 79.0666 141.632 78.6703C142.65 78.2741 143.764 78.1888 144.831 78.4251C145.898 78.6616 146.871 79.2092 147.627 79.9987C148.637 81.0587 149.186 82.4758 149.155 83.9396C149.123 85.4035 148.513 86.7953 147.458 87.8107Z" stroke="#101010" stroke-linecap="round" stroke-linejoin="round"/>
<path d="M375.76 14.9828L377.681 38.2928" stroke="#101010" stroke-linecap="round" stroke-linejoin="round"/>
<path d="M388.396 25.6545L365.088 27.6187" stroke="#101010" stroke-linecap="round" stroke-linejoin="round"/>
<path d="M58.0233 272.997C56.3986 271.006 54.3018 269.451 51.9236 268.474C47.7836 266.978 43.7223 268.301 38.8983 269.669C29.1783 272.369 18.7585 278.233 13.291 274.185" stroke="#101010" stroke-linecap="round" stroke-linejoin="round"/>
<path d="M157.703 276.413L157.232 259.081" stroke="#101010" stroke-linecap="round" stroke-linejoin="round"/>
</svg>
