<svg width="130" height="97" viewBox="0 0 130 97" fill="none" xmlns="http://www.w3.org/2000/svg">
<path d="M114.831 95.7809C115.262 96.4882 116.185 96.712 116.892 96.2807L128.418 89.2522C129.126 88.8209 129.349 87.8979 128.918 87.1906C128.487 86.4833 127.564 86.2596 126.857 86.6908L116.611 92.9384L110.364 82.693C109.932 81.9857 109.009 81.7619 108.302 82.1932C107.595 82.6245 107.371 83.5476 107.802 84.2549L114.831 95.7809ZM1.60315 25.2131C10.8225 21.1643 20.3295 16.6959 29.5399 12.8334C38.7372 8.97644 47.4727 5.79732 55.0215 4.34529C62.6219 2.88335 68.6788 3.24048 72.8067 6.02215C76.848 8.74552 79.4894 14.1175 79.4894 23.84H82.4894C82.4894 13.6534 79.7134 7.05884 74.4832 3.53431C69.3394 0.0680773 62.2707 -0.104077 54.4549 1.3993C46.5875 2.91259 37.6163 6.19338 28.3797 10.0669C19.1562 13.9349 9.50216 18.4676 0.396848 22.4664L1.60315 25.2131ZM79.4894 23.84C79.4894 37.1568 78.164 44.9414 76.332 48.9579C75.4195 50.9585 74.4889 51.7882 73.7678 52.0748C73.1074 52.3372 72.292 52.271 71.2311 51.6272C69.0023 50.2746 66.5238 46.8372 64.5798 42.4603C62.6621 38.1425 61.4163 33.2503 61.4163 29.3009H58.4163C58.4163 33.7859 59.8046 39.0994 61.8381 43.678C63.8454 48.1975 66.6351 52.3472 69.6746 54.1918C71.2479 55.1467 73.0666 55.5816 74.8757 54.8627C76.6241 54.1679 77.9984 52.5338 79.0615 50.2029C81.1808 45.5564 82.4894 37.2076 82.4894 23.84H79.4894ZM61.4163 29.3009C61.4163 21.0199 65.8867 15.5448 72.3054 13.1637C78.8057 10.7524 87.4253 11.4909 95.5028 16.0949C111.518 25.2234 125.532 49.7676 114.654 94.6466L117.569 95.3534C128.642 49.6742 114.558 23.503 96.9883 13.4886C88.2731 8.52111 78.7281 7.58135 71.262 10.351C63.7142 13.1509 58.4163 19.7161 58.4163 29.3009H61.4163Z" fill="#FF6600"/>
</svg>
