<svg width="86" height="86" viewBox="0 0 86 86" fill="none" xmlns="http://www.w3.org/2000/svg">
<path d="M1.61128 77.5941C1.21216 77.4858 0.976382 77.0745 1.08467 76.6753C1.19297 76.2762 1.60431 76.0404 2.00345 76.1487L1.61128 77.5941ZM40.7769 67.8062L40.1816 67.3519L40.1817 67.3518L40.7769 67.8062ZM24.5139 44.7398L23.8351 44.4236L23.8354 44.423L24.5139 44.7398ZM62.5122 23.3315L63.0932 22.859L63.0933 22.8592L62.5122 23.3315ZM77.0755 20.7613L77.5319 21.3549L77.497 21.3817L77.4591 21.4043L77.0755 20.7613ZM80.6074 1.69939C80.275 1.45342 80.2048 0.984504 80.4508 0.65204C80.6968 0.319577 81.1657 0.249459 81.4982 0.495429L80.6074 1.69939ZM10.2423 70.6337C10.5744 70.8803 10.6437 71.3493 10.3971 71.6814C10.1506 72.0134 9.68153 72.0827 9.34949 71.8361L10.2423 70.6337ZM0.742405 76.8051L0.188056 77.3085C0.0428356 77.1486 -0.0262529 76.9337 -0.00147106 76.7192C0.0233135 76.5046 0.139552 76.3111 0.317403 76.1885L0.742405 76.8051ZM8.58123 84.3231C8.85926 84.6293 8.83646 85.1028 8.5303 85.3809C8.22414 85.6589 7.75056 85.6361 7.47254 85.3299L8.58123 84.3231ZM1.80736 76.8714C2.00345 76.1487 2.0033 76.1487 2.00326 76.1487C2.00338 76.1487 2.00344 76.1487 2.00368 76.1488C2.00416 76.1489 2.00505 76.1492 2.00633 76.1495C2.0089 76.1502 2.01305 76.1513 2.01879 76.1528C2.03027 76.1559 2.04805 76.1606 2.07199 76.1668C2.11987 76.1792 2.19235 76.1977 2.2882 76.2214C2.47991 76.2688 2.76502 76.3367 3.13362 76.4179C3.87096 76.5803 4.94165 76.7952 6.26649 77.0032C8.91818 77.4194 12.5777 77.8061 16.6149 77.6915C24.7146 77.4614 34.1759 75.2218 40.1816 67.3519L41.3722 68.2605C34.962 76.6604 24.9385 78.9533 16.6574 79.1885C12.5042 79.3064 8.74937 78.9089 6.03426 78.4827C4.6757 78.2694 3.57487 78.0486 2.81156 77.8805C2.42984 77.7965 2.13234 77.7256 1.92901 77.6753C1.82735 77.6502 1.74921 77.6303 1.69584 77.6164C1.66916 77.6095 1.64867 77.6041 1.63452 77.6003C1.62745 77.5985 1.62196 77.597 1.61808 77.5959C1.61614 77.5954 1.61461 77.595 1.61347 77.5947C1.61291 77.5946 1.61236 77.5944 1.61207 77.5943C1.61163 77.5942 1.61128 77.5941 1.80736 76.8714ZM40.1817 67.3518C43.1716 63.4357 43.798 59.8294 43.1142 56.7069C42.4236 53.553 40.3717 50.7838 37.8084 48.6335C35.2457 46.4836 32.234 45.006 29.737 44.4077C28.4849 44.1076 27.4111 44.0404 26.6088 44.1834C25.8109 44.3256 25.3822 44.6501 25.1924 45.0567L23.8354 44.423C24.3033 43.4211 25.2642 42.9017 26.3461 42.709C27.4236 42.517 28.7198 42.6239 30.086 42.9513C32.8257 43.6078 36.0443 45.1987 38.771 47.4861C41.4972 49.7732 43.794 52.8101 44.5772 56.3866C45.3672 59.9944 44.5925 64.0426 41.372 68.2606L40.1817 67.3518ZM25.1926 45.0561C24.6907 46.1332 24.91 47.9007 26.088 50.0245C27.242 52.105 29.231 54.3578 31.9147 56.2806C37.2705 60.1178 45.3218 62.5915 54.826 59.8033L55.2476 61.2404C45.2531 64.1724 36.7299 61.5729 31.0424 57.498C28.2045 55.4647 26.0546 53.0517 24.7784 50.751C23.5262 48.4935 23.024 46.1643 23.8351 44.4236L25.1926 45.0561ZM54.826 59.8033C59.5664 58.4127 62.8314 56.078 64.9679 53.2435C67.1081 50.4042 68.1526 47.0145 68.3658 43.4608C68.7938 36.3263 65.8615 28.6396 61.9311 23.8038L63.0933 22.8592C67.2341 27.954 70.3135 36.0025 69.8607 43.5505C69.6335 47.338 68.5145 51.0264 66.1639 54.1449C63.8097 57.2682 60.2566 59.771 55.2476 61.2404L54.826 59.8033ZM61.9313 23.804C57.9514 18.9106 50.8516 12.7596 44.118 9.56565C40.7444 7.96541 37.5606 7.15482 34.9481 7.51997C32.4115 7.87452 30.3192 9.34838 29.0559 12.5914L27.6604 12.0478C29.1053 8.33849 31.6272 6.47195 34.7408 6.03675C37.7786 5.61216 41.2812 6.56246 44.7599 8.21252C51.7311 11.5192 59.0001 17.8264 63.0932 22.859L61.9313 23.804ZM29.0559 12.5914C28.4401 14.1725 28.461 15.5588 28.9456 16.7855C29.4371 18.0297 30.4352 19.1824 31.8983 20.2173C34.8375 22.2962 39.4802 23.7764 44.8729 24.5441C50.2469 25.3091 56.2835 25.3549 61.9482 24.627C67.6219 23.898 72.8668 22.4002 76.6918 20.1182L77.4591 21.4043C73.393 23.8301 67.9257 25.369 62.139 26.1125C56.3433 26.8571 50.1715 26.8111 44.6619 26.0268C39.171 25.2452 34.2551 23.7186 31.0335 21.44C29.4163 20.2961 28.1834 18.9323 27.5527 17.3357C26.915 15.7216 26.9223 13.9428 27.6604 12.0478L29.0559 12.5914ZM76.619 20.1676C80.3002 17.3369 82.3256 14.7586 83.3353 12.5203C84.3388 10.2956 84.3558 8.37119 83.9567 6.79228C83.5539 5.19842 82.7169 3.92061 81.9665 3.03317C81.5929 2.59136 81.2459 2.25231 80.9948 2.02572C80.8694 1.91259 80.7685 1.82798 80.7009 1.7731C80.6671 1.74567 80.6416 1.72571 80.6257 1.71336C80.6177 1.70719 80.6121 1.70293 80.609 1.70059C80.6075 1.69942 80.6066 1.69874 80.6063 1.69853C80.6061 1.69843 80.6062 1.69845 80.6064 1.6986C80.6065 1.69867 80.6067 1.69886 80.6068 1.6989C80.6071 1.69913 80.6074 1.69939 81.0528 1.09741C81.4982 0.495429 81.4986 0.495749 81.4991 0.496101C81.4993 0.49626 81.4998 0.496645 81.5002 0.496963C81.5011 0.497601 81.5021 0.498366 81.5033 0.499257C81.5057 0.501038 81.5087 0.503325 81.5124 0.506114C81.5198 0.511692 81.5297 0.519283 81.5421 0.52887C81.5669 0.54804 81.6015 0.575206 81.6446 0.610227C81.7309 0.680242 81.8518 0.781822 81.9981 0.913839C82.2903 1.17754 82.686 1.56462 83.1101 2.06618C83.9551 3.06548 84.9331 4.54336 85.4087 6.42528C85.8882 8.32215 85.8473 10.5937 84.7004 13.1361C83.5597 15.6648 81.3422 18.4248 77.5319 21.3549L76.619 20.1676ZM9.34949 71.8361C9.5373 71.9756 9.72168 71.9698 9.75352 71.9687C9.80553 71.967 9.83105 71.9579 9.81454 71.9625C9.78477 71.9706 9.71199 71.9964 9.58513 72.0548C9.33863 72.1681 8.98948 72.3563 8.55981 72.606C7.70606 73.102 6.60191 73.8007 5.50213 74.517C4.40467 75.2318 3.3208 75.9581 2.51068 76.506C2.10579 76.7799 1.76966 77.009 1.53487 77.1696C1.41749 77.2498 1.32545 77.313 1.26285 77.356C1.23154 77.3775 1.2076 77.3939 1.19152 77.405C1.18348 77.4105 1.17741 77.4147 1.17337 77.4175C1.17135 77.4189 1.16984 77.4199 1.16884 77.4206C1.16834 77.4209 1.16797 77.4212 1.16773 77.4214C1.16762 77.4214 1.16753 77.4215 1.16747 77.4215C1.16742 77.4216 1.16741 77.4216 0.742405 76.8051C0.317403 76.1885 0.317452 76.1885 0.317535 76.1885C0.317602 76.1884 0.317717 76.1883 0.317859 76.1882C0.31814 76.188 0.318554 76.1878 0.319095 76.1874C0.320177 76.1866 0.321776 76.1855 0.323887 76.1841C0.3281 76.1812 0.334351 76.1769 0.342571 76.1712C0.359009 76.1599 0.383327 76.1432 0.415017 76.1214C0.478395 76.0779 0.571264 76.0142 0.689535 75.9333C0.926067 75.7716 1.2643 75.5411 1.67157 75.2656C2.48577 74.7148 3.57743 73.9833 4.68477 73.2621C5.7898 72.5424 6.91974 71.8268 7.80745 71.311C8.24851 71.0548 8.64693 70.8378 8.9596 70.694C9.11232 70.6238 9.27203 70.5582 9.4195 70.5179C9.4916 70.4981 9.59193 70.4756 9.7039 70.4719C9.79571 70.4689 10.0252 70.4725 10.2423 70.6337L9.34949 71.8361ZM1.29675 76.3017L8.58123 84.3231L7.47254 85.3299L0.188056 77.3085L1.29675 76.3017Z" fill="#212121"/>
</svg>
