<svg width="46" height="53" viewBox="0 0 46 53" fill="none" xmlns="http://www.w3.org/2000/svg">
<path d="M24.6779 52.8496C24.0532 40.3307 23.455 33.9342 20.4884 32.3446C17.5218 30.7551 12.2355 33.9985 2.23411 40.8237C12.2355 33.9985 17.2448 30.2531 17.0638 26.7805C16.8828 23.3079 11.548 20.0958 0.921855 14.402C11.9371 20.3043 17.5447 22.9553 20.2235 20.6615C22.7301 18.5326 22.6693 12.1026 22.0778 0.0194429C22.7026 12.5383 23.3008 18.9349 26.2674 20.5245C29.2339 22.114 34.5202 18.8705 44.546 12.0584C33.9065 19.3132 28.9457 23.0848 29.7967 26.7555C30.5533 29.99 35.8886 33.138 45.8582 38.48C34.6241 32.4605 29.0041 29.835 26.3844 32.3855C24.0232 34.6566 24.0964 41.0611 24.6779 52.8496Z" fill="#B478EC"/>
</svg>
