<svg width="550" height="550" viewBox="0 0 550 550" fill="none" xmlns="http://www.w3.org/2000/svg">
<rect x="0.5" y="0.5" width="549" height="549" rx="29.5" stroke="#101010"/>
<rect x="50" y="50" width="450" height="450" rx="30" fill="white"/>
<path d="M263.84 89.7439C247.061 90.2119 233.829 103.019 234.297 118.346C234.81 136.188 253.166 148.442 271.566 144.428L270.583 132.858C270.369 130.941 270.535 129 271.072 127.147C271.608 125.294 272.505 123.564 273.71 122.058C274.915 120.551 276.406 119.297 278.096 118.366C279.786 117.436 281.644 116.848 283.561 116.636L294.96 115.655C294.021 100.8 280.274 89.2736 263.84 89.7439Z" fill="#A6FF00"/>
<path fill-rule="evenodd" clip-rule="evenodd" d="M247.959 389.381L384.734 377.854C388.469 377.535 391.925 375.746 394.342 372.879C396.761 370.013 397.942 366.305 397.627 362.57L389.687 269.294C389.367 265.559 387.578 262.104 384.712 259.687C381.848 257.269 378.14 256.088 374.405 256.401L301.325 262.551C300.033 264.52 299.192 265.546 297.252 267.071C295.171 268.662 292.743 269.736 290.165 270.203C287.588 270.67 284.936 270.517 282.429 269.757C279.923 268.997 277.632 267.651 275.749 265.831C275.416 265.503 275.083 265.173 274.751 264.843L251.952 266.758C259.515 293.598 260.309 312.219 260.865 338.812C261.325 346.629 260.255 354.461 257.715 361.866L247.959 389.381ZM327.616 328.676L341.406 335.122L338.929 305.836L326.421 314.544C325.982 311.785 324.513 309.297 322.31 307.578C320.108 305.859 317.338 305.04 314.555 305.283L287.872 307.589C286.421 307.708 285.008 308.115 283.712 308.784C282.418 309.452 281.27 310.372 280.334 311.488C279.396 312.602 278.692 313.893 278.255 315.284C277.821 316.672 277.666 318.135 277.799 319.586L278.865 331.961C278.984 333.412 279.392 334.825 280.06 336.119C280.728 337.413 281.648 338.562 282.764 339.498C283.878 340.434 285.17 341.141 286.558 341.577C287.948 342.012 289.411 342.167 290.862 342.034L317.5 339.816C318.949 339.692 320.362 339.282 321.653 338.612C322.945 337.941 324.09 337.021 325.026 335.907C325.962 334.794 326.669 333.504 327.105 332.116C327.456 331 327.629 329.837 327.616 328.671V328.676Z" fill="#00BFBF"/>
<path d="M427.852 269.679C427.969 270.698 427.881 271.73 427.595 272.716C427.309 273.701 426.832 274.621 426.191 275.421C425.548 276.222 424.753 276.885 423.853 277.376C422.953 277.869 421.963 278.177 420.944 278.283C419.923 278.391 418.892 278.294 417.909 278.001C416.926 277.707 416.01 277.223 415.216 276.573C414.421 275.922 413.764 275.124 413.281 274.219C412.797 273.314 412.498 272.322 412.399 271.301L411.161 259.601C410.965 257.562 411.582 255.527 412.878 253.94C414.176 252.354 416.046 251.344 418.084 251.13C420.121 250.916 422.161 251.516 423.759 252.798C425.356 254.081 426.382 255.943 426.614 257.979L427.852 269.679Z" fill="#FF5C00"/>
<path d="M342.216 128.676C342.878 130.228 343.38 131.845 343.71 133.5C344.991 130.811 345.747 127.902 345.936 124.929C344.61 126.381 343.371 127.609 342.216 128.676Z" fill="#101010"/>
<path d="M226.143 187.374C226.51 189.392 227.203 191.338 228.193 193.136C231.48 193.136 235.109 192.711 236.005 191.388C236.133 191.163 236.261 190.917 236.39 190.661C235.152 193.1 230.675 190.625 226.143 187.374Z" fill="#101010"/>
<path d="M113.146 282.315C105.206 270.916 54.7046 312.539 61.9609 323.04L63.1984 324.149C73.7013 329.999 119.336 291.281 113.146 282.315Z" fill="#101010"/>
<path d="M199.549 429.251C189.172 434.185 221.263 492.075 231.049 483.852C236.903 475.356 207.745 425.325 199.549 429.251Z" fill="#101010"/>
<path d="M101.919 318.515C101.719 319.251 101.661 320.02 101.75 320.778C102.177 323.51 105.676 323.638 108.025 322.997C106.38 321.033 104.285 319.496 101.919 318.515Z" fill="#101010"/>
<path d="M124.585 296.231C126.207 298.238 127.872 300.243 129.366 302.081C129.616 301.365 129.774 300.618 129.836 299.862C129.879 299.221 129.755 298.578 129.475 297.999C129.195 297.419 128.77 296.924 128.241 296.557C127.712 296.19 127.097 295.97 126.456 295.911C125.815 295.855 125.171 295.965 124.585 296.231Z" fill="#101010"/>
<path d="M202.28 209.75C201.807 209.801 201.36 209.99 200.995 210.296C200.63 210.6 200.363 211.007 200.229 211.463C200.095 211.92 200.099 212.406 200.241 212.86C200.383 213.313 200.657 213.715 201.027 214.014C201.397 214.312 201.848 214.494 202.322 214.537C202.795 214.58 203.271 214.481 203.689 214.253C204.106 214.025 204.447 213.678 204.667 213.257C204.888 212.836 204.979 212.358 204.928 211.885C204.899 211.569 204.807 211.263 204.657 210.983C204.507 210.703 204.302 210.457 204.055 210.258C203.808 210.059 203.524 209.911 203.219 209.824C202.914 209.737 202.595 209.711 202.28 209.75Z" fill="#101010"/>
<path d="M185.205 229.593C184.732 229.643 184.285 229.833 183.919 230.138C183.554 230.443 183.288 230.849 183.154 231.306C183.02 231.762 183.024 232.248 183.166 232.702C183.308 233.156 183.581 233.558 183.952 233.857C184.322 234.155 184.773 234.337 185.246 234.38C185.72 234.422 186.196 234.323 186.613 234.096C187.031 233.868 187.372 233.521 187.592 233.1C187.813 232.678 187.904 232.201 187.853 231.728C187.82 231.414 187.725 231.109 187.574 230.831C187.423 230.554 187.218 230.309 186.972 230.11C186.726 229.912 186.443 229.764 186.14 229.675C185.837 229.586 185.519 229.558 185.205 229.593Z" fill="#101010"/>
<path d="M195.323 255.805C194.85 255.855 194.402 256.045 194.037 256.349C193.672 256.654 193.405 257.061 193.271 257.517C193.136 257.973 193.14 258.46 193.282 258.914C193.424 259.368 193.697 259.77 194.067 260.069C194.437 260.367 194.888 260.55 195.362 260.592C195.836 260.635 196.312 260.536 196.729 260.308C197.147 260.08 197.488 259.734 197.708 259.312C197.929 258.891 198.02 258.413 197.969 257.94C197.936 257.626 197.841 257.322 197.69 257.045C197.539 256.767 197.334 256.523 197.089 256.324C196.843 256.126 196.56 255.978 196.258 255.889C195.955 255.8 195.637 255.771 195.323 255.805Z" fill="#101010"/>
<path d="M173.124 225.068C172.651 225.118 172.204 225.308 171.838 225.613C171.473 225.917 171.206 226.324 171.072 226.78C170.937 227.236 170.941 227.722 171.083 228.177C171.225 228.631 171.498 229.033 171.868 229.331C172.239 229.63 172.689 229.813 173.163 229.855C173.637 229.898 174.113 229.799 174.531 229.571C174.948 229.343 175.289 228.997 175.51 228.575C175.73 228.154 175.821 227.676 175.77 227.203C175.737 226.889 175.642 226.585 175.491 226.308C175.34 226.03 175.136 225.785 174.89 225.587C174.644 225.389 174.362 225.241 174.059 225.152C173.756 225.063 173.438 225.034 173.124 225.068Z" fill="#101010"/>
<path d="M222.602 219.135C222.129 219.185 221.681 219.375 221.315 219.68C220.95 219.984 220.683 220.391 220.549 220.847C220.415 221.304 220.419 221.79 220.561 222.244C220.703 222.698 220.976 223.1 221.347 223.399C221.717 223.698 222.168 223.88 222.642 223.922C223.116 223.964 223.592 223.865 224.01 223.637C224.427 223.409 224.768 223.062 224.988 222.64C225.209 222.218 225.299 221.741 225.248 221.268C225.214 220.954 225.119 220.65 224.968 220.373C224.817 220.096 224.612 219.851 224.367 219.653C224.121 219.455 223.839 219.307 223.536 219.218C223.233 219.129 222.916 219.101 222.602 219.135Z" fill="#101010"/>
<path d="M208.684 238.602C208.21 238.653 207.763 238.842 207.398 239.148C207.033 239.453 206.767 239.859 206.632 240.316C206.499 240.772 206.503 241.258 206.645 241.712C206.787 242.166 207.061 242.568 207.432 242.866C207.802 243.165 208.253 243.347 208.727 243.389C209.201 243.431 209.676 243.332 210.094 243.104C210.511 242.876 210.852 242.529 211.072 242.107C211.293 241.685 211.383 241.208 211.332 240.735C211.299 240.421 211.203 240.116 211.052 239.839C210.901 239.562 210.696 239.317 210.45 239.118C210.204 238.92 209.922 238.773 209.618 238.684C209.315 238.595 208.997 238.567 208.684 238.602Z" fill="#101010"/>
<path d="M233.658 247.651C233.186 247.701 232.738 247.891 232.372 248.195C232.007 248.5 231.74 248.907 231.606 249.363C231.471 249.82 231.475 250.306 231.617 250.76C231.759 251.214 232.032 251.616 232.403 251.914C232.773 252.213 233.223 252.396 233.697 252.438C234.171 252.481 234.647 252.382 235.065 252.154C235.483 251.926 235.823 251.58 236.044 251.158C236.265 250.737 236.355 250.259 236.304 249.786C236.271 249.472 236.176 249.168 236.025 248.89C235.874 248.613 235.67 248.368 235.424 248.17C235.178 247.972 234.896 247.824 234.593 247.735C234.29 247.646 233.973 247.617 233.658 247.651Z" fill="#101010"/>
<path d="M244.031 206.242C243.558 206.292 243.11 206.482 242.745 206.786C242.379 207.091 242.113 207.498 241.978 207.954C241.843 208.411 241.847 208.897 241.989 209.351C242.131 209.805 242.404 210.207 242.775 210.505C243.145 210.804 243.595 210.987 244.069 211.029C244.543 211.072 245.019 210.973 245.437 210.745C245.855 210.517 246.195 210.171 246.416 209.749C246.637 209.328 246.727 208.85 246.677 208.377C246.647 208.062 246.555 207.755 246.405 207.476C246.256 207.196 246.051 206.95 245.805 206.751C245.558 206.552 245.274 206.404 244.969 206.317C244.664 206.229 244.345 206.204 244.031 206.242Z" fill="#101010"/>
<path d="M266.4 246.625C265.927 246.675 265.479 246.865 265.114 247.17C264.749 247.474 264.482 247.881 264.347 248.337C264.213 248.794 264.217 249.28 264.359 249.734C264.501 250.188 264.774 250.59 265.144 250.889C265.515 251.187 265.965 251.37 266.439 251.412C266.913 251.455 267.389 251.356 267.806 251.128C268.224 250.901 268.565 250.554 268.786 250.132C269.006 249.711 269.097 249.234 269.046 248.76C268.978 248.127 268.661 247.545 268.165 247.145C267.669 246.745 267.034 246.558 266.4 246.625Z" fill="#101010"/>
<path d="M266.486 224.213C266.8 224.18 267.105 224.085 267.382 223.934C267.659 223.783 267.905 223.579 268.103 223.333C268.301 223.087 268.449 222.805 268.538 222.502C268.627 222.198 268.655 221.881 268.621 221.567C268.537 220.946 268.215 220.383 267.722 219.996C267.229 219.609 266.604 219.431 265.981 219.497C265.358 219.564 264.786 219.872 264.386 220.354C263.986 220.836 263.79 221.455 263.84 222.08C263.873 222.394 263.968 222.698 264.119 222.976C264.27 223.253 264.474 223.498 264.72 223.696C264.966 223.894 265.248 224.042 265.551 224.131C265.855 224.219 266.172 224.247 266.486 224.213Z" fill="#101010"/>
<path d="M292.57 251.706C292.098 251.756 291.65 251.945 291.283 252.25C290.919 252.555 290.651 252.961 290.518 253.418C290.383 253.874 290.388 254.36 290.529 254.814C290.671 255.269 290.943 255.67 291.315 255.969C291.684 256.268 292.136 256.45 292.608 256.493C293.083 256.536 293.558 256.437 293.976 256.209C294.395 255.981 294.735 255.635 294.955 255.213C295.176 254.792 295.266 254.314 295.216 253.841C295.182 253.527 295.088 253.223 294.937 252.945C294.786 252.668 294.582 252.423 294.336 252.225C294.089 252.026 293.808 251.879 293.504 251.79C293.202 251.7 292.883 251.672 292.57 251.706Z" fill="#101010"/>
<path d="M295.558 226.265C295.086 226.315 294.638 226.505 294.271 226.81C293.907 227.115 293.639 227.521 293.506 227.978C293.371 228.434 293.376 228.92 293.518 229.375C293.659 229.829 293.934 230.231 294.303 230.529C294.674 230.828 295.124 231.01 295.599 231.053C296.074 231.095 296.548 230.996 296.967 230.767C297.383 230.539 297.725 230.192 297.946 229.771C298.166 229.349 298.256 228.871 298.204 228.398C298.171 228.084 298.076 227.78 297.925 227.503C297.775 227.225 297.57 226.981 297.325 226.783C297.077 226.584 296.796 226.437 296.492 226.348C296.191 226.259 295.871 226.231 295.558 226.265Z" fill="#101010"/>
<path d="M316.902 217.726C316.852 217.253 316.661 216.805 316.357 216.44C316.051 216.075 315.646 215.808 315.189 215.674C314.733 215.539 314.247 215.543 313.792 215.685C313.338 215.827 312.937 216.1 312.638 216.47C312.339 216.84 312.156 217.291 312.114 217.765C312.071 218.239 312.17 218.715 312.397 219.132C312.627 219.55 312.973 219.891 313.394 220.112C313.815 220.332 314.294 220.423 314.766 220.372C315.081 220.339 315.385 220.244 315.662 220.093C315.939 219.942 316.184 219.737 316.382 219.492C316.58 219.246 316.728 218.964 316.818 218.661C316.906 218.358 316.935 218.04 316.902 217.726Z" fill="#101010"/>
<path d="M388.15 84.1503C387.889 80.8404 386.458 77.7315 384.112 75.383C381.763 73.0344 378.655 71.6001 375.346 71.3376C372.036 71.0752 368.742 72.0019 366.053 73.9513C363.364 75.9005 361.461 78.7447 360.682 81.9723C356.826 80.1775 352.571 79.406 348.33 79.7322C344.089 80.0585 340.005 81.4715 336.468 83.8351C332.931 86.1987 330.062 89.4331 328.138 93.2271C326.214 97.021 325.301 101.246 325.483 105.496C330.624 104.102 335.91 103.3 341.233 103.104C341.521 104.853 341.919 106.581 342.428 108.279C342.898 109.346 343.623 109.431 344.903 107.467C347.765 103.327 353.57 109.731 346.782 114.683C349.711 119.753 353.433 124.323 357.807 128.217C363.168 126.489 367.785 122.995 370.904 118.303C374.02 113.611 375.453 108.001 374.97 102.389C374.882 101.359 374.731 100.336 374.52 99.3243C374.828 99.3259 375.134 99.3086 375.44 99.2726C377.267 99.1142 379.047 98.5976 380.674 97.7518C382.303 96.9063 383.747 95.7482 384.926 94.344C386.107 92.9397 387 91.3168 387.552 89.5677C388.105 87.8187 388.308 85.9778 388.15 84.1503Z" fill="#101010"/>
<path d="M207.232 309.081L207.703 326.406L213.8 320.9C211.141 317.239 208.936 313.272 207.232 309.081Z" fill="#101010"/>
<path d="M246.423 229.977L252.484 238.602L252.826 249.658L246.423 229.977Z" fill="#101010"/>
<path d="M235.962 171.536C236.705 171.4 237.375 171.004 237.852 170.419C238.33 169.834 238.584 169.099 238.568 168.344C238.553 167.589 238.269 166.864 237.768 166.299C237.267 165.734 236.582 165.366 235.834 165.261C236.412 164.838 236.832 164.233 237.024 163.543C237.217 162.853 237.171 162.119 236.895 161.458C236.619 160.797 236.129 160.248 235.503 159.9C234.877 159.552 234.152 159.425 233.445 159.539C233.807 158.937 233.961 158.233 233.882 157.535C233.803 156.838 233.497 156.185 233.01 155.68C232.523 155.174 231.882 154.843 231.188 154.738C230.494 154.633 229.784 154.76 229.17 155.1C229.317 154.383 229.214 153.639 228.878 152.989C228.543 152.34 227.994 151.825 227.325 151.53C226.656 151.236 225.906 151.18 225.201 151.371C224.495 151.562 223.876 151.99 223.448 152.582C223.379 151.812 223.044 151.091 222.5 150.542C221.956 149.993 221.238 149.652 220.469 149.576C219.7 149.5 218.929 149.694 218.288 150.126C217.647 150.558 217.177 151.199 216.959 151.941C216.657 151.276 216.136 150.734 215.484 150.407C214.831 150.079 214.087 149.984 213.373 150.139C212.659 150.294 212.02 150.688 211.562 151.257C211.104 151.825 210.854 152.533 210.855 153.264C210.322 152.805 209.653 152.535 208.952 152.495C208.251 152.454 207.555 152.644 206.973 153.037C206.391 153.431 205.954 154.004 205.729 154.67C205.505 155.336 205.506 156.057 205.731 156.722C205.067 156.475 204.34 156.456 203.664 156.669C202.989 156.882 202.403 157.315 202.002 157.898C201.599 158.482 201.404 159.182 201.445 159.89C201.487 160.597 201.763 161.27 202.23 161.802C201.477 161.761 200.733 161.987 200.13 162.441C199.528 162.895 199.105 163.547 198.936 164.283C198.768 165.018 198.865 165.789 199.21 166.46C199.555 167.131 200.126 167.659 200.822 167.949C200.082 168.093 199.417 168.494 198.945 169.082C198.474 169.67 198.226 170.406 198.246 171.159C198.267 171.913 198.554 172.635 199.057 173.196C199.56 173.757 200.246 174.122 200.993 174.225C200.427 174.654 200.021 175.26 199.839 175.947C199.657 176.635 199.711 177.362 199.991 178.015C200.271 178.669 200.761 179.209 201.384 179.551C202.007 179.893 202.726 180.017 203.427 179.904C203.073 180.508 202.928 181.212 203.014 181.907C203.1 182.602 203.412 183.25 203.903 183.75C204.393 184.249 205.034 184.574 205.727 184.674C206.421 184.773 207.127 184.642 207.738 184.3C207.597 185.015 207.705 185.756 208.043 186.401C208.382 187.046 208.932 187.555 209.6 187.844C210.268 188.134 211.016 188.185 211.718 187.991C212.419 187.796 213.034 187.367 213.458 186.775C213.495 187.308 213.664 187.824 213.949 188.275C214.234 188.727 214.627 189.101 215.093 189.363C215.558 189.626 216.081 189.769 216.616 189.779C217.15 189.79 217.678 189.667 218.154 189.423C218.538 188.953 223.779 182.507 225.626 180.158C221.101 175.037 224.856 171.707 227.291 175.08C228.571 176.916 230.441 176.403 229.338 170.937C230.753 170.322 232.108 169.58 233.388 168.719C234.288 172.175 234.963 175.122 235.521 177.597C236.17 177.428 236.748 177.059 237.177 176.544C237.605 176.029 237.862 175.393 237.91 174.724C237.959 174.056 237.797 173.389 237.448 172.818C237.099 172.246 236.579 171.798 235.962 171.536Z" fill="#101010"/>
<path d="M235.535 177.597C234.982 175.122 234.298 172.177 233.402 168.719C232.122 169.58 230.767 170.322 229.352 170.937C230.464 176.403 228.598 176.904 227.305 175.08C224.897 171.687 221.115 175.037 225.64 180.158C223.804 182.507 218.552 188.953 218.167 189.423C217.692 189.668 217.164 189.79 216.629 189.779C216.095 189.769 215.572 189.626 215.106 189.364C214.641 189.101 214.248 188.727 213.963 188.275C213.677 187.824 213.509 187.308 213.472 186.775C213.047 187.367 212.433 187.796 211.731 187.991C211.029 188.185 210.282 188.134 209.614 187.844C208.945 187.555 208.396 187.046 208.057 186.401C207.718 185.756 207.611 185.015 207.752 184.3C207.141 184.642 206.434 184.773 205.741 184.674C205.048 184.574 204.407 184.25 203.916 183.75C203.426 183.249 203.114 182.602 203.028 181.907C202.942 181.212 203.087 180.508 203.441 179.904C202.74 180.018 202.02 179.894 201.398 179.551C200.775 179.209 200.285 178.668 200.005 178.015C199.725 177.363 199.671 176.634 199.853 175.947C200.034 175.261 200.44 174.654 201.007 174.225C200.26 174.122 199.574 173.757 199.071 173.196C198.568 172.635 198.281 171.913 198.26 171.159C198.239 170.406 198.487 169.67 198.959 169.082C199.43 168.494 200.096 168.093 200.836 167.949C200.139 167.659 199.568 167.131 199.223 166.46C198.878 165.789 198.782 165.018 198.95 164.283C199.119 163.547 199.542 162.895 200.144 162.441C200.747 161.987 201.491 161.761 202.244 161.802C201.777 161.27 201.5 160.597 201.459 159.89C201.417 159.182 201.613 158.481 202.015 157.898C202.417 157.315 203.002 156.882 203.678 156.669C204.354 156.456 205.081 156.475 205.745 156.722C205.526 156.058 205.529 155.342 205.756 154.68C205.982 154.019 206.418 153.45 206.997 153.06C207.577 152.669 208.268 152.479 208.965 152.518C209.663 152.557 210.329 152.823 210.862 153.275C210.861 152.545 211.111 151.836 211.569 151.268C212.027 150.699 212.666 150.305 213.38 150.15C214.093 149.996 214.838 150.09 215.491 150.418C216.143 150.745 216.664 151.287 216.966 151.952C217.184 151.211 217.654 150.569 218.295 150.137C218.935 149.706 219.707 149.511 220.476 149.587C221.245 149.663 221.963 150.005 222.507 150.554C223.05 151.102 223.386 151.824 223.455 152.593C223.883 152.001 224.502 151.574 225.208 151.382C225.913 151.191 226.663 151.247 227.332 151.542C228.001 151.836 228.549 152.351 228.885 153C229.221 153.65 229.323 154.395 229.177 155.111C229.791 154.772 230.501 154.644 231.195 154.749C231.889 154.854 232.529 155.185 233.017 155.691C233.504 156.197 233.81 156.849 233.889 157.547C233.967 158.244 233.814 158.949 233.452 159.55C234.159 159.436 234.884 159.563 235.51 159.911C236.136 160.259 236.626 160.808 236.902 161.469C237.178 162.13 237.224 162.864 237.031 163.554C236.839 164.244 236.419 164.849 235.841 165.272C236.589 165.377 237.274 165.746 237.775 166.31C238.276 166.875 238.56 167.6 238.575 168.355C238.591 169.11 238.337 169.845 237.859 170.43C237.382 171.015 236.712 171.411 235.969 171.547C236.582 171.811 237.097 172.258 237.444 172.828C237.791 173.398 237.951 174.062 237.904 174.727C237.856 175.392 237.602 176.026 237.178 176.54C236.753 177.055 236.179 177.424 235.535 177.597Z" stroke="#101010" stroke-linecap="round" stroke-linejoin="round"/>
<path d="M236.048 160.095L247.489 159.156C248.855 159.037 250.231 159.189 251.538 159.604C252.845 160.018 254.057 160.687 255.104 161.572C256.152 162.457 257.014 163.54 257.641 164.759C258.269 165.978 258.648 167.309 258.759 168.676L261.876 206.114" stroke="#101010" stroke-linecap="round" stroke-linejoin="round"/>
<path d="M253.251 249.06L255.002 248.931C256.53 248.914 258.023 248.471 259.313 247.651" stroke="#101010" stroke-linecap="round" stroke-linejoin="round"/>
<path d="M174.02 255.711L151.054 257.675C148.298 257.906 145.563 257.033 143.45 255.248C141.338 253.463 140.02 250.913 139.786 248.158L133.936 179.17C133.704 176.413 134.577 173.677 136.362 171.564C138.147 169.45 140.699 168.132 143.456 167.9L199.61 163.169" stroke="#101010" stroke-linecap="round" stroke-linejoin="round"/>
<path d="M247.959 389.381L384.734 377.854C388.469 377.535 391.925 375.746 394.342 372.879C396.761 370.013 397.942 366.305 397.627 362.57L389.687 269.294C389.367 265.559 387.578 262.104 384.712 259.687C381.848 257.269 378.14 256.088 374.405 256.401L301.325 262.551" stroke="#101010" stroke-linecap="round" stroke-linejoin="round"/>
<path d="M252.014 266.734L274.725 264.812" stroke="#101010" stroke-linecap="round" stroke-linejoin="round"/>
<path d="M325.697 113L283.519 116.629C279.655 117.06 276.121 119.005 273.688 122.037C271.255 125.069 270.123 128.942 270.54 132.807L278.994 230.097" stroke="#101010" stroke-linecap="round" stroke-linejoin="round"/>
<path d="M309.475 244.364L437.414 233.307C440.254 233.051 442.951 231.944 445.152 230.131C447.352 228.319 448.954 225.885 449.751 223.146" stroke="#101010" stroke-linecap="round" stroke-linejoin="round"/>
<path d="M445.654 162.187L441.853 118.004C441.599 114.122 439.817 110.5 436.897 107.931C433.974 105.362 430.153 104.055 426.272 104.299L374.747 108.741" stroke="#101010" stroke-linecap="round" stroke-linejoin="round"/>
<path d="M398.822 175.037C394.425 181.951 385.162 202.145 379.782 215.249C390.11 219.286 398.813 226.626 404.532 236.124" stroke="#101010" stroke-linecap="round" stroke-linejoin="round"/>
<path d="M330.051 197.15C331.612 205.19 333.651 213.13 336.155 220.928C333.806 229.764 332.868 237.618 331.759 242.442" stroke="#101010" stroke-linecap="round" stroke-linejoin="round"/>
<path d="M334.148 164.28C330.924 169.25 329.043 174.971 328.685 180.885" stroke="#101010" stroke-linecap="round" stroke-linejoin="round"/>
<path d="M379.74 215.292C367.702 223.959 344.948 228.567 336.155 220.928" stroke="#101010" stroke-linecap="round" stroke-linejoin="round"/>
<path d="M374.277 218.579C380.698 223.601 385.844 230.065 389.3 237.447" stroke="#101010" stroke-linecap="round" stroke-linejoin="round"/>
<path d="M343.74 133.45C345 130.772 345.744 127.882 345.936 124.929C344.613 126.381 343.371 127.609 342.216 128.676" stroke="#101010" stroke-linecap="round" stroke-linejoin="round"/>
<path d="M392.718 186.478L408.002 212.304C419.826 233.735 444.452 240.476 459.912 208.463C467.208 193.35 470.669 183.191 477.072 172.688C466.601 169.703 457.065 164.089 449.375 156.382C442.267 167.079 435.947 178.279 430.461 189.891C399.513 124.108 395.712 135.707 375.093 134.566C368.802 134.393 362.743 132.158 357.847 128.205" stroke="#101010" stroke-linecap="round" stroke-linejoin="round"/>
<path d="M312.762 186.989C318.866 166.242 332.541 156.652 338.545 150.107C341.368 147.398 343.251 143.854 343.911 139.996C344.572 136.139 343.978 132.171 342.216 128.676C331.459 138.153 325.526 130.597 325.526 105.501" stroke="#101010" stroke-linecap="round" stroke-linejoin="round"/>
<path d="M377.692 134.652C369.135 141.528 361.413 149.381 354.681 158.052C353.626 159.365 352.249 160.382 350.683 161.004C349.117 161.626 347.416 161.831 345.747 161.599C344.079 161.367 342.498 160.706 341.161 159.681C339.825 158.656 338.776 157.301 338.119 155.75C337.57 154.467 337.093 153.275 336.668 152.121" stroke="#101010" stroke-linecap="round" stroke-linejoin="round"/>
<path d="M430.455 189.891L425.376 201.333" stroke="#101010" stroke-linecap="round" stroke-linejoin="round"/>
<path d="M218.161 189.423C212.194 197.073 207.97 196.572 196.732 201.589C173.849 211.793 181.704 252.689 181.704 252.689" stroke="#101010" stroke-linecap="round" stroke-linejoin="round"/>
<path d="M235.535 177.597C237.4 186.244 237.232 189.554 236.005 191.343C235.105 192.668 231.481 193.093 228.193 193.093" stroke="#101010" stroke-linecap="round" stroke-linejoin="round"/>
<path d="M236.397 190.625C235.202 193.1 230.671 190.625 226.144 187.338C226.999 191.266 227.595 195.973 230.797 196.173C259.178 197.953 262.175 201.168 286.806 243.423" stroke="#101010" stroke-linecap="round" stroke-linejoin="round"/>
<path d="M283.775 238.174C284.841 235.186 291.459 221.567 295.302 209.273C303.717 208.367 312.174 210.568 319.08 215.463C316.431 228.013 308.75 247.055 302.13 261.05C301.005 263.415 299.334 265.479 297.252 267.071C295.171 268.662 292.743 269.736 290.165 270.203C287.589 270.67 284.936 270.517 282.429 269.757C279.923 268.997 277.632 267.651 275.749 265.831C264.697 254.964 254.876 242.911 246.465 229.892" stroke="#101010" stroke-linecap="round" stroke-linejoin="round"/>
<path d="M246.508 229.892L252.826 249.658" stroke="#101010" stroke-linecap="round" stroke-linejoin="round"/>
<path d="M199.85 265.795C212.529 269.845 234.214 268.313 251.164 263.703C253.724 258.665 252.658 238.773 252.658 238.773" stroke="#101010" stroke-linecap="round" stroke-linejoin="round"/>
<path d="M199.719 264.812C194.256 272.667 183.519 272.957 178.587 264.769C172.373 254.419 169.709 239.668 168.386 223.275C168.386 223.275 178.061 220.179 182.111 221.392" stroke="#101010" stroke-linecap="round" stroke-linejoin="round"/>
<path d="M213.8 320.9L168.721 360.815C165.739 363.438 161.908 364.892 157.937 364.908C153.966 364.921 150.123 363.497 147.121 360.898L102.771 322.529" stroke="#101010" stroke-linecap="round" stroke-linejoin="round"/>
<path d="M162.367 328.633L128.813 297" stroke="#101010" stroke-linecap="round" stroke-linejoin="round"/>
<path d="M192.846 222.978C192.846 222.978 200.271 252.903 199.805 266.562C190.773 271.696 183.793 279.797 180.05 289.488C174.598 304.218 155.716 322.144 155.716 322.144" stroke="#101010" stroke-linecap="round" stroke-linejoin="round"/>
<path d="M251.161 263.703C259.526 292.176 260.359 311.178 260.935 338.749C261.395 346.566 260.325 354.396 257.785 361.803L238.235 416.786C226.278 415.53 214.784 411.48 204.68 404.962L224.233 348.953C224.61 339.386 221.4 330.024 215.233 322.7C209.128 315.264 205.303 306.219 204.219 296.658" stroke="#101010" stroke-linecap="round" stroke-linejoin="round"/>
<path d="M208.344 197.022C208.344 197.022 215.173 204.534 231.395 196.209" stroke="#101010" stroke-linecap="round" stroke-linejoin="round"/>
<path d="M171.759 222.294C171.625 215.78 170.896 209.293 169.581 202.912C168.321 198.001 166.517 193.247 164.201 188.737C160.803 182.113 161.906 180.32 167.362 186.348C172.75 193.111 177.188 200.58 180.552 208.546" stroke="#101010" stroke-linecap="round" stroke-linejoin="round"/>
<path d="M178.657 204.327C181.368 207.401 182.991 198.027 184.01 195.953C185.418 193.093 187.16 189.979 187.041 198.772C187.007 201.204 187.297 205.09 187.682 208.931" stroke="#101010" stroke-linecap="round" stroke-linejoin="round"/>
<path d="M167.02 195.015C165.782 193.649 162.97 190.92 162.153 190.148C158.423 186.579 157.68 187.837 158.103 188.573C159.723 191.412 162.761 195.786 164.178 198.473C166.446 202.824 171.05 211.109 171.306 215.377" stroke="#101010" stroke-linecap="round" stroke-linejoin="round"/>
<path d="M164.032 198.216C163.305 197.706 162.705 197.285 162.367 197.064C158.043 194.245 157.586 195.528 158.092 196.164C160.142 198.725 163.863 202.518 165.693 204.957C167.84 207.962 169.698 211.164 171.241 214.52" stroke="#101010" stroke-linecap="round" stroke-linejoin="round"/>
<path d="M317.075 214.054C319.365 207.226 322.25 200.613 325.699 194.29C328.617 189.518 332.069 185.093 335.986 181.098C341.737 175.248 341.161 172.944 333.426 177.512C325.535 182.901 318.411 189.334 312.251 196.637" stroke="#101010" stroke-linecap="round" stroke-linejoin="round"/>
<path d="M315.84 192.587C311.533 195.798 313.122 184.831 312.719 182.25C312.177 178.79 311.396 174.909 308.62 184.257C307.852 186.816 304.734 194.745 298.854 209.057" stroke="#101010" stroke-linecap="round" stroke-linejoin="round"/>
<path d="M330.946 186.775C332.697 185.709 336.54 183.787 337.649 183.234C342.772 180.671 343.107 182.289 342.473 182.892C339.847 185.387 335.219 189 332.868 191.385C329.074 195.235 321.512 202.485 319.804 206.926" stroke="#101010" stroke-linecap="round" stroke-linejoin="round"/>
<path d="M333.081 191.174C334.019 190.875 334.789 190.62 335.216 190.499C340.688 188.823 340.763 190.452 339.998 190.969C336.996 192.994 331.848 195.8 329.11 197.798C325.87 200.274 322.871 203.047 320.146 206.08" stroke="#101010" stroke-linecap="round" stroke-linejoin="round"/>
<path d="M113.146 282.315C105.548 271.4 58.9706 309.054 61.3376 321.519C61.7044 323.449 63.3739 325.177 67.2686 324.648C82.2379 322.621 118.76 290.392 113.146 282.315Z" stroke="#101010" stroke-linecap="round" stroke-linejoin="round"/>
<path d="M113.146 282.315C115.493 285.303 123.561 294.951 129.326 302.115" stroke="#101010" stroke-linecap="round" stroke-linejoin="round"/>
<path d="M233.53 416.189C231.73 422.975 221.628 437.87 229.388 456.957C233.364 466.731 235.663 480.985 230.288 484.571" stroke="#101010" stroke-linecap="round" stroke-linejoin="round"/>
<path d="M198.183 430.533C199.461 427.653 204.107 417.146 208.258 407.358" stroke="#101010" stroke-linecap="round" stroke-linejoin="round"/>
<path d="M199.548 429.251C190.004 433.789 215.483 480.45 227.169 484.707C230.398 485.883 231.942 483.582 231.813 480.155C231.282 465.899 206.926 425.75 199.548 429.251Z" stroke="#101010" stroke-linecap="round" stroke-linejoin="round"/>
<path d="M124.544 296.231C125.13 295.966 125.774 295.855 126.414 295.912C127.055 295.968 127.67 296.191 128.199 296.557C128.728 296.922 129.153 297.419 129.432 297.997C129.712 298.578 129.836 299.219 129.794 299.86C129.087 308.86 112.367 324.277 104.85 323.368C102.6 323.094 101.174 321.503 101.925 318.475" stroke="#101010" stroke-linecap="round" stroke-linejoin="round"/>
<path d="M235.573 400.892L248.674 359.454C250.948 352.978 251.906 346.113 251.492 339.262C249.676 309.596 247.48 286.668 242.143 265.795" stroke="#101010" stroke-linecap="round" stroke-linejoin="round"/>
<path d="M210.006 389.678C219.697 397.051 231.434 401.243 243.603 401.675" stroke="#101010" stroke-linecap="round" stroke-linejoin="round"/>
<path d="M115.407 333.457C128.342 329.315 135.601 319.957 139.955 307.758" stroke="#101010" stroke-linecap="round" stroke-linejoin="round"/>
<path d="M207.232 309.081L170.904 341.269C167.916 343.931 164.058 345.409 160.056 345.425C156.054 345.441 152.184 343.994 149.176 341.355L130.008 324.534" stroke="#101010" stroke-linecap="round" stroke-linejoin="round"/>
<path d="M213.379 277.149C212.826 277.234 212.013 287.994 213.465 292.347C216.241 296.184 219.789 299.399 223.882 301.782C226.223 297.882 229.033 294.282 232.25 291.067C231.822 285.645 231.309 282.785 230.713 277.063C224.966 277.884 219.134 277.914 213.379 277.149Z" stroke="#101010" stroke-linecap="round" stroke-linejoin="round"/>
<path d="M189.176 274.973C191.368 275.004 193.519 275.56 195.451 276.595C191.523 278.514 187.554 288.295 187.554 288.295L178.801 292.48" stroke="#101010" stroke-linecap="round" stroke-linejoin="round"/>
<path d="M466.912 135.5C473.662 137.633 477.415 141.091 481.762 146.642" stroke="#101010" stroke-linecap="round" stroke-linejoin="round"/>
<path d="M465.249 138.666C467.604 141.057 469.436 143.912 470.626 147.05C471.816 150.188 472.338 153.539 472.163 156.891" stroke="#101010" stroke-linecap="round" stroke-linejoin="round"/>
<path d="M478.224 142.421C480.843 138.97 483.035 135.215 484.749 131.236C487.899 123.852 489.83 125.901 488.079 132.901C487.609 134.78 487.141 136.402 486.714 137.768C485.481 141.696 484.266 145.663 483.127 149.637C481.919 153.858 473.902 171.707 473.902 171.707C466.389 169.7 458.577 164.237 452.473 159.199C452.601 158.943 455.848 152.969 455.972 152.753C456.633 151.559 456.915 150.191 456.777 148.834C456.64 147.476 456.091 146.192 455.205 145.155C452.118 141.451 447.984 135.93 449.355 134.438C451.481 132.127 458.19 139.941 461.777 140.416C463.057 140.585 464.083 136.701 464.295 135.293C464.682 132.732 466.029 124.02 466.131 123.17C467.06 115.254 469.888 116.595 469.845 123.595C469.803 130.255 469.803 134.566 469.803 134.566" stroke="#101010" stroke-linecap="round" stroke-linejoin="round"/>
<path d="M469.26 136.274C469.26 136.274 473.916 121.676 474.21 120.693C476.526 113.054 478.953 114.802 477.797 121.674C476.69 128.25 475.491 136.274 475.491 136.274" stroke="#101010" stroke-linecap="round" stroke-linejoin="round"/>
<path d="M474.35 138.623C476.578 134.158 478.544 129.568 480.241 124.875C483.008 117.36 485.042 119.28 483.742 126.115C483.028 130.365 482.016 134.559 480.711 138.666" stroke="#101010" stroke-linecap="round" stroke-linejoin="round"/>
<path d="M427.852 269.679C427.969 270.698 427.881 271.73 427.595 272.716C427.309 273.701 426.832 274.621 426.191 275.421C425.548 276.222 424.753 276.885 423.853 277.376C422.953 277.869 421.963 278.177 420.944 278.283C419.923 278.391 418.892 278.294 417.909 278.001C416.926 277.707 416.01 277.223 415.216 276.573C414.421 275.922 413.764 275.124 413.281 274.219C412.797 273.314 412.498 272.322 412.399 271.301L411.161 259.601C410.965 257.562 411.582 255.527 412.878 253.94C414.176 252.354 416.046 251.344 418.084 251.13C420.121 250.916 422.161 251.516 423.759 252.798C425.356 254.081 426.382 255.943 426.614 257.979L427.852 269.679Z" stroke="#101010" stroke-linecap="round" stroke-linejoin="round"/>
<path d="M406.081 266.605L406.677 272.367C406.861 274.139 407.395 275.857 408.243 277.423C409.091 278.989 410.241 280.373 411.625 281.493C413.006 282.616 414.599 283.453 416.305 283.962C418.012 284.468 419.803 284.634 421.574 284.45C423.347 284.263 425.064 283.732 426.63 282.884C428.196 282.033 429.58 280.886 430.702 279.502C431.823 278.118 432.662 276.528 433.168 274.82C433.675 273.113 433.841 271.322 433.657 269.55L433.06 263.788" stroke="#101010" stroke-linecap="round" stroke-linejoin="round"/>
<path d="M421.576 284.45L422.728 295.207" stroke="#101010" stroke-linecap="round" stroke-linejoin="round"/>
<path d="M416.966 295.806L428.45 294.609" stroke="#101010" stroke-linecap="round" stroke-linejoin="round"/>
<path d="M327.616 328.676L341.406 335.122L338.929 305.836L326.421 314.544" stroke="#101010" stroke-linecap="round" stroke-linejoin="round"/>
<path d="M314.555 305.283C317.338 305.04 320.108 305.859 322.311 307.578C324.513 309.297 325.983 311.785 326.421 314.544L327.573 327.819C327.702 329.268 327.542 330.728 327.105 332.116C326.669 333.504 325.962 334.794 325.026 335.907C324.09 337.021 322.945 337.941 321.654 338.612C320.362 339.282 318.949 339.692 317.5 339.816L290.862 342.034C289.411 342.167 287.949 342.012 286.558 341.577C285.17 341.141 283.878 340.434 282.765 339.498C281.649 338.562 280.728 337.413 280.06 336.119C279.392 334.825 278.985 333.412 278.865 331.961L277.799 319.586C277.666 318.135 277.821 316.672 278.256 315.284C278.692 313.893 279.396 312.602 280.335 311.488C281.271 310.372 282.418 309.452 283.712 308.784C285.008 308.115 286.421 307.708 287.872 307.589L314.555 305.283Z" stroke="#101010" stroke-linecap="round" stroke-linejoin="round"/>
<path d="M388.15 84.1503C387.885 80.8487 386.454 77.7493 384.111 75.4068C381.769 73.0641 378.671 71.6313 375.368 71.3644C372.067 71.0976 368.778 72.0143 366.091 73.9504C363.402 75.8865 361.492 78.7157 360.7 81.9318C364.206 83.5489 367.284 85.9614 369.693 88.9777C372.103 91.9938 373.775 95.5306 374.576 99.3063C376.482 99.2622 378.358 98.8278 380.091 98.0297C381.823 97.2318 383.371 96.0873 384.645 94.6671C385.916 93.2469 386.883 91.5807 387.486 89.772C388.089 87.9632 388.314 86.0498 388.15 84.1503Z" stroke="#101010" stroke-linecap="round" stroke-linejoin="round"/>
<path d="M374.961 102.38C374.423 95.9127 371.372 89.9142 366.46 85.672C361.551 81.4299 355.172 79.2823 348.694 79.6902C342.219 80.0981 336.16 83.029 331.819 87.8539C327.481 92.6788 325.204 99.0127 325.483 105.496C330.625 104.102 335.91 103.3 341.233 103.104C341.521 104.853 341.92 106.582 342.428 108.279C342.898 109.346 343.623 109.431 344.903 107.467C347.765 103.327 353.57 109.731 346.782 114.683C349.711 119.753 353.433 124.323 357.807 128.217C363.169 126.487 367.786 122.991 370.902 118.297C374.016 113.604 375.449 107.992 374.961 102.38Z" stroke="#101010" stroke-linecap="round" stroke-linejoin="round"/>
<path d="M89.1113 246.456L98.0326 245.559" stroke="#101010" stroke-linecap="round" stroke-linejoin="round"/>
<path d="M113.828 243.937L122.751 243.041" stroke="#101010" stroke-linecap="round" stroke-linejoin="round"/>
<path d="M104.223 227.928L105.12 236.851" stroke="#101010" stroke-linecap="round" stroke-linejoin="round"/>
<path d="M106.743 252.646L107.638 261.567" stroke="#101010" stroke-linecap="round" stroke-linejoin="round"/>
<path d="M92.8262 234.077L99.7832 239.711" stroke="#101010" stroke-linecap="round" stroke-linejoin="round"/>
<path d="M112.078 249.744L119.037 255.42" stroke="#101010" stroke-linecap="round" stroke-linejoin="round"/>
<path d="M116.604 231.642L110.968 238.602" stroke="#101010" stroke-linecap="round" stroke-linejoin="round"/>
<path d="M100.936 250.896L95.2588 257.855" stroke="#101010" stroke-linecap="round" stroke-linejoin="round"/>
<path d="M295.815 144.257L290.64 131.621C293.803 126.918 295.333 121.304 294.993 115.646C294.055 100.796 280.265 89.2646 263.831 89.7348C247.053 90.2028 233.82 103.01 234.288 118.337C234.754 134.517 249.89 146.1 266.425 145.125C272.348 144.752 278.06 142.782 282.954 139.424L295.815 144.257Z" stroke="#101010" stroke-linecap="round" stroke-linejoin="round"/>
<path d="M197.458 137.811C196.669 138.567 195.673 139.072 194.597 139.262C193.521 139.452 192.412 139.319 191.411 138.879C190.411 138.439 189.563 137.712 188.976 136.79C188.388 135.869 188.087 134.794 188.111 133.701C188.134 132.608 188.481 131.547 189.108 130.652C189.735 129.756 190.613 129.066 191.632 128.67C192.65 128.274 193.764 128.189 194.831 128.425C195.898 128.661 196.871 129.209 197.627 129.999C198.637 131.059 199.186 132.476 199.155 133.939C199.123 135.403 198.513 136.795 197.458 137.811Z" stroke="#101010" stroke-linecap="round" stroke-linejoin="round"/>
<path d="M425.759 64.9827L427.68 88.2927" stroke="#101010" stroke-linecap="round" stroke-linejoin="round"/>
<path d="M438.395 75.6543L415.087 77.6185" stroke="#101010" stroke-linecap="round" stroke-linejoin="round"/>
<path d="M108.023 322.997C106.398 321.006 104.301 319.451 101.923 318.474C97.7831 316.978 93.7218 318.301 88.8978 319.669C79.1778 322.369 68.758 328.233 63.2905 324.185" stroke="#101010" stroke-linecap="round" stroke-linejoin="round"/>
<path d="M207.703 326.412L207.232 309.081" stroke="#101010" stroke-linecap="round" stroke-linejoin="round"/>
</svg>
