<svg width="16" height="19" viewBox="0 0 16 19" fill="none" xmlns="http://www.w3.org/2000/svg">
<path d="M12.6002 3.75262C12.6002 3.75262 13.1102 4.25262 12.6002 3.75262C11.9166 2.97224 11.5399 1.97005 11.5402 0.932617H8.45016V13.3326C8.42632 14.0036 8.14303 14.6392 7.65992 15.1056C7.17682 15.5719 6.5316 15.8325 5.86016 15.8326C4.44016 15.8326 3.26016 14.6726 3.26016 13.2326C3.26016 11.5126 4.92016 10.2226 6.63016 10.7526V7.59262C3.18016 7.13262 0.160156 9.81262 0.160156 13.2326C0.160156 16.5626 2.92016 18.9326 5.85016 18.9326C8.99016 18.9326 11.5402 16.3826 11.5402 13.2326V6.94262C12.7932 7.84247 14.2975 8.32526 15.8402 8.32262V5.23262C15.8402 5.23262 13.9602 5.32262 12.6002 3.75262Z" fill="black"/>
</svg>
