<svg width="22" height="22" viewBox="0 0 22 22" fill="none" xmlns="http://www.w3.org/2000/svg">
<path d="M11 0.432617C5.20156 0.432617 0.5 5.13418 0.5 10.9326C0.5 16.7311 5.20156 21.4326 11 21.4326C16.7984 21.4326 21.5 16.7311 21.5 10.9326C21.5 5.13418 16.7984 0.432617 11 0.432617ZM16.0461 8.34746C16.0531 8.45762 16.0531 8.57246 16.0531 8.68496C16.0531 12.1256 13.4328 16.0889 8.64453 16.0889C7.16797 16.0889 5.79922 15.66 4.64609 14.9217C4.85703 14.9451 5.05859 14.9545 5.27422 14.9545C6.49297 14.9545 7.61328 14.542 8.50625 13.8436C7.3625 13.8201 6.40156 13.0701 6.07344 12.0389C6.47422 12.0975 6.83516 12.0975 7.24766 11.992C6.65873 11.8723 6.12939 11.5525 5.74957 11.0868C5.36974 10.6211 5.16286 10.0383 5.16406 9.43731V9.40449C5.50859 9.59902 5.91406 9.71855 6.33828 9.73496C5.98166 9.49729 5.6892 9.1753 5.48682 8.79753C5.28445 8.41976 5.17841 7.9979 5.17813 7.56934C5.17813 7.08418 5.30469 6.64121 5.53203 6.25684C6.18571 7.06153 7.0014 7.71967 7.92609 8.18847C8.85078 8.65728 9.86377 8.92626 10.8992 8.97793C10.5312 7.2084 11.8531 5.77637 13.4422 5.77637C14.1922 5.77637 14.8672 6.09043 15.343 6.59668C15.9312 6.48652 16.4937 6.26621 16.9953 5.9709C16.8008 6.57324 16.393 7.08184 15.8516 7.40293C16.3766 7.34668 16.8828 7.20137 17.3516 6.99746C16.9977 7.51777 16.5547 7.97949 16.0461 8.34746Z" fill="black"/>
</svg>
