<svg width="24" height="24" viewBox="0 0 24 24" fill="none" xmlns="http://www.w3.org/2000/svg">
<path d="M13.9236 11.7322L11.2284 10.4746C10.9932 10.3654 10.8 10.4878 10.8 10.7482V13.117C10.8 13.3774 10.9932 13.4998 11.2284 13.3906L13.9224 12.133C14.1588 12.0226 14.1588 11.8426 13.9236 11.7322ZM12 0.412598C5.63758 0.412598 0.47998 5.5702 0.47998 11.9326C0.47998 18.295 5.63758 23.4526 12 23.4526C18.3624 23.4526 23.52 18.295 23.52 11.9326C23.52 5.5702 18.3624 0.412598 12 0.412598ZM12 16.6126C6.10318 16.6126 5.99998 16.081 5.99998 11.9326C5.99998 7.7842 6.10318 7.2526 12 7.2526C17.8968 7.2526 18 7.7842 18 11.9326C18 16.081 17.8968 16.6126 12 16.6126Z" fill="black"/>
</svg>
